<?xml version="1.0" encoding="UTF-8" standalone="no"?>
<!-- Created with Inkscape (http://www.inkscape.org/) -->

<svg
   width="40mm"
   height="40mm"
   viewBox="0 0 40 40"
   version="1.1"
   id="svg156"
   inkscape:version="1.2 (dc2aedaf03, 2022-05-15)"
   sodipodi:docname="computers_and_phones.svg"
   xmlns:inkscape="http://www.inkscape.org/namespaces/inkscape"
   xmlns:sodipodi="http://sodipodi.sourceforge.net/DTD/sodipodi-0.dtd"
   xmlns="http://www.w3.org/2000/svg"
   xmlns:svg="http://www.w3.org/2000/svg">
  <sodipodi:namedview
     id="namedview158"
     pagecolor="#ffffff"
     bordercolor="#666666"
     borderopacity="1.0"
     inkscape:showpageshadow="2"
     inkscape:pageopacity="0.0"
     inkscape:pagecheckerboard="0"
     inkscape:deskcolor="#d1d1d1"
     inkscape:document-units="mm"
     showgrid="false"
     inkscape:zoom="3.3766339"
     inkscape:cx="51.530609"
     inkscape:cy="53.751755"
     inkscape:window-width="1280"
     inkscape:window-height="738"
     inkscape:window-x="-6"
     inkscape:window-y="-6"
     inkscape:window-maximized="1"
     inkscape:current-layer="layer1"
     showguides="false" />
  <defs
     id="defs153">
    <inkscape:path-effect
       effect="powerstroke"
       id="path-effect869"
       is_visible="true"
       lpeversion="1"
       offset_points="2.0954075,0.27969068"
       not_jump="true"
       sort_points="true"
       interpolator_type="CentripetalCatmullRom"
       interpolator_beta="0.75"
       start_linecap_type="round"
       linejoin_type="spiro"
       miter_limit="4"
       scale_width="1"
       end_linecap_type="round" />
    <inkscape:path-effect
       effect="simplify"
       id="path-effect867"
       is_visible="true"
       lpeversion="1"
       steps="1"
       threshold="0.0032025118"
       smooth_angles="0"
       helper_size="0"
       simplify_individual_paths="false"
       simplify_just_coalesce="false"
       step="1" />
    <inkscape:path-effect
       effect="powerstroke"
       id="path-effect766"
       is_visible="true"
       lpeversion="1"
       offset_points="1.1910789,0.10160638"
       not_jump="true"
       sort_points="true"
       interpolator_type="CentripetalCatmullRom"
       interpolator_beta="0.75"
       start_linecap_type="round"
       linejoin_type="spiro"
       miter_limit="4"
       scale_width="1"
       end_linecap_type="round" />
    <inkscape:path-effect
       effect="simplify"
       id="path-effect764"
       is_visible="true"
       lpeversion="1"
       steps="1"
       threshold="0.0032025118"
       smooth_angles="0"
       helper_size="0"
       simplify_individual_paths="false"
       simplify_just_coalesce="false"
       step="1" />
    <inkscape:path-effect
       effect="powerstroke"
       id="path-effect757"
       is_visible="true"
       lpeversion="1"
       offset_points="0.53303251,0.097509348 | 1.4410189,0.10925417"
       not_jump="true"
       sort_points="true"
       interpolator_type="CentripetalCatmullRom"
       interpolator_beta="0.75"
       start_linecap_type="round"
       linejoin_type="spiro"
       miter_limit="4"
       scale_width="1"
       end_linecap_type="round" />
    <inkscape:path-effect
       effect="simplify"
       id="path-effect755"
       is_visible="true"
       lpeversion="1"
       steps="1"
       threshold="0.0032025118"
       smooth_angles="0"
       helper_size="0"
       simplify_individual_paths="false"
       simplify_just_coalesce="false"
       step="1" />
    <inkscape:path-effect
       effect="powerstroke"
       id="path-effect750"
       is_visible="true"
       lpeversion="1"
       offset_points="0.81150008,0.097236213"
       not_jump="true"
       sort_points="true"
       interpolator_type="CentripetalCatmullRom"
       interpolator_beta="0.75"
       start_linecap_type="round"
       linejoin_type="spiro"
       miter_limit="4"
       scale_width="1"
       end_linecap_type="round" />
    <inkscape:path-effect
       effect="simplify"
       id="path-effect748"
       is_visible="true"
       lpeversion="1"
       steps="1"
       threshold="0.0032025118"
       smooth_angles="0"
       helper_size="0"
       simplify_individual_paths="false"
       simplify_just_coalesce="false"
       step="1" />
    <inkscape:path-effect
       effect="powerstroke"
       id="path-effect743"
       is_visible="true"
       lpeversion="1"
       offset_points="0.6840779,0.098875025 | 2.0158561,0.11143926"
       not_jump="true"
       sort_points="true"
       interpolator_type="CentripetalCatmullRom"
       interpolator_beta="0.75"
       start_linecap_type="round"
       linejoin_type="spiro"
       miter_limit="4"
       scale_width="1"
       end_linecap_type="round" />
    <inkscape:path-effect
       effect="simplify"
       id="path-effect741"
       is_visible="true"
       lpeversion="1"
       steps="1"
       threshold="0.0032025118"
       smooth_angles="0"
       helper_size="0"
       simplify_individual_paths="false"
       simplify_just_coalesce="false"
       step="1" />
    <inkscape:path-effect
       effect="powerstroke"
       id="path-effect736"
       is_visible="true"
       lpeversion="1"
       offset_points="0.18123053,0.089315285"
       not_jump="true"
       sort_points="true"
       interpolator_type="CentripetalCatmullRom"
       interpolator_beta="0.75"
       start_linecap_type="round"
       linejoin_type="spiro"
       miter_limit="4"
       scale_width="1"
       end_linecap_type="round" />
    <inkscape:path-effect
       effect="simplify"
       id="path-effect734"
       is_visible="true"
       lpeversion="1"
       steps="1"
       threshold="0.0032025118"
       smooth_angles="0"
       helper_size="0"
       simplify_individual_paths="false"
       simplify_just_coalesce="false"
       step="1" />
    <inkscape:path-effect
       effect="powerstroke"
       id="path-effect729"
       is_visible="true"
       lpeversion="1"
       offset_points="0.57570038,0.10734222 | 1.6596033,0.12618857"
       not_jump="true"
       sort_points="true"
       interpolator_type="CentripetalCatmullRom"
       interpolator_beta="0.75"
       start_linecap_type="round"
       linejoin_type="spiro"
       miter_limit="4"
       scale_width="1"
       end_linecap_type="round" />
    <inkscape:path-effect
       effect="simplify"
       id="path-effect727"
       is_visible="true"
       lpeversion="1"
       steps="1"
       threshold="0.0032025118"
       smooth_angles="0"
       helper_size="0"
       simplify_individual_paths="false"
       simplify_just_coalesce="false"
       step="1" />
    <inkscape:path-effect
       effect="powerstroke"
       id="path-effect722"
       is_visible="true"
       lpeversion="1"
       offset_points="1.3793178,0.10925417 | 7.0804292,0.12618857"
       not_jump="true"
       sort_points="true"
       interpolator_type="CentripetalCatmullRom"
       interpolator_beta="0.75"
       start_linecap_type="round"
       linejoin_type="spiro"
       miter_limit="4"
       scale_width="1"
       end_linecap_type="round" />
    <inkscape:path-effect
       effect="simplify"
       id="path-effect720"
       is_visible="true"
       lpeversion="1"
       steps="1"
       threshold="0.0032025118"
       smooth_angles="0"
       helper_size="0"
       simplify_individual_paths="false"
       simplify_just_coalesce="false"
       step="1" />
    <inkscape:path-effect
       effect="powerstroke"
       id="path-effect715"
       is_visible="true"
       lpeversion="1"
       offset_points="0.70740033,0.12017959"
       not_jump="true"
       sort_points="true"
       interpolator_type="CentripetalCatmullRom"
       interpolator_beta="0.75"
       start_linecap_type="round"
       linejoin_type="spiro"
       miter_limit="4"
       scale_width="1"
       end_linecap_type="round" />
    <inkscape:path-effect
       effect="simplify"
       id="path-effect713"
       is_visible="true"
       lpeversion="1"
       steps="1"
       threshold="0.0032025118"
       smooth_angles="0"
       helper_size="0"
       simplify_individual_paths="false"
       simplify_just_coalesce="false"
       step="1" />
    <inkscape:path-effect
       effect="powerstroke"
       id="path-effect708"
       is_visible="true"
       lpeversion="1"
       offset_points="2.5,0.07347343"
       not_jump="true"
       sort_points="true"
       interpolator_type="CentripetalCatmullRom"
       interpolator_beta="0.75"
       start_linecap_type="round"
       linejoin_type="spiro"
       miter_limit="4"
       scale_width="1"
       end_linecap_type="round" />
    <inkscape:path-effect
       effect="simplify"
       id="path-effect706"
       is_visible="true"
       lpeversion="1"
       steps="1"
       threshold="0.0032025118"
       smooth_angles="0"
       helper_size="0"
       simplify_individual_paths="false"
       simplify_just_coalesce="false"
       step="1" />
    <inkscape:path-effect
       effect="powerstroke"
       id="path-effect701"
       is_visible="true"
       lpeversion="1"
       offset_points="0.60610383,0.088925983 | 5.2440784,0.13814801"
       not_jump="true"
       sort_points="true"
       interpolator_type="CentripetalCatmullRom"
       interpolator_beta="0.75"
       start_linecap_type="round"
       linejoin_type="spiro"
       miter_limit="4"
       scale_width="1"
       end_linecap_type="round" />
    <inkscape:path-effect
       effect="simplify"
       id="path-effect699"
       is_visible="true"
       lpeversion="1"
       steps="1"
       threshold="0.0032025118"
       smooth_angles="0"
       helper_size="0"
       simplify_individual_paths="false"
       simplify_just_coalesce="false"
       step="1" />
    <inkscape:path-effect
       effect="powerstroke"
       id="path-effect694"
       is_visible="true"
       lpeversion="1"
       offset_points="0.7404743,0.098444055 | 2.2101262,0.11095352"
       not_jump="true"
       sort_points="true"
       interpolator_type="CentripetalCatmullRom"
       interpolator_beta="0.75"
       start_linecap_type="round"
       linejoin_type="spiro"
       miter_limit="4"
       scale_width="1"
       end_linecap_type="round" />
    <inkscape:path-effect
       effect="simplify"
       id="path-effect692"
       is_visible="true"
       lpeversion="1"
       steps="1"
       threshold="0.0032025118"
       smooth_angles="0"
       helper_size="0"
       simplify_individual_paths="false"
       simplify_just_coalesce="false"
       step="1" />
    <inkscape:path-effect
       effect="powerstroke"
       id="path-effect687"
       is_visible="true"
       lpeversion="1"
       offset_points="0.6847644,0.10306712"
       not_jump="true"
       sort_points="true"
       interpolator_type="CentripetalCatmullRom"
       interpolator_beta="0.75"
       start_linecap_type="round"
       linejoin_type="spiro"
       miter_limit="4"
       scale_width="1"
       end_linecap_type="round" />
    <inkscape:path-effect
       effect="simplify"
       id="path-effect685"
       is_visible="true"
       lpeversion="1"
       steps="1"
       threshold="0.0032025118"
       smooth_angles="0"
       helper_size="0"
       simplify_individual_paths="false"
       simplify_just_coalesce="false"
       step="1" />
    <inkscape:path-effect
       effect="powerstroke"
       id="path-effect617"
       is_visible="true"
       lpeversion="1"
       offset_points="0.53941905,0.1041549"
       not_jump="true"
       sort_points="true"
       interpolator_type="CentripetalCatmullRom"
       interpolator_beta="0.75"
       start_linecap_type="round"
       linejoin_type="spiro"
       miter_limit="4"
       scale_width="1"
       end_linecap_type="round" />
    <inkscape:path-effect
       effect="simplify"
       id="path-effect615"
       is_visible="true"
       lpeversion="1"
       steps="1"
       threshold="0.0032025118"
       smooth_angles="0"
       helper_size="0"
       simplify_individual_paths="false"
       simplify_just_coalesce="false"
       step="1" />
    <inkscape:path-effect
       effect="powerstroke"
       id="path-effect610"
       is_visible="true"
       lpeversion="1"
       offset_points="0.83424487,0.079407912"
       not_jump="true"
       sort_points="true"
       interpolator_type="CentripetalCatmullRom"
       interpolator_beta="0.75"
       start_linecap_type="round"
       linejoin_type="spiro"
       miter_limit="4"
       scale_width="1"
       end_linecap_type="round" />
    <inkscape:path-effect
       effect="simplify"
       id="path-effect608"
       is_visible="true"
       lpeversion="1"
       steps="1"
       threshold="0.0032025118"
       smooth_angles="0"
       helper_size="0"
       simplify_individual_paths="false"
       simplify_just_coalesce="false"
       step="1" />
    <inkscape:path-effect
       effect="powerstroke"
       id="path-effect603"
       is_visible="true"
       lpeversion="1"
       offset_points="0.91574797,0.05656454 | 3.3051624,0.076960408"
       not_jump="true"
       sort_points="true"
       interpolator_type="CentripetalCatmullRom"
       interpolator_beta="0.75"
       start_linecap_type="round"
       linejoin_type="spiro"
       miter_limit="4"
       scale_width="1"
       end_linecap_type="round" />
    <inkscape:path-effect
       effect="simplify"
       id="path-effect601"
       is_visible="true"
       lpeversion="1"
       steps="1"
       threshold="0.0032025118"
       smooth_angles="0"
       helper_size="0"
       simplify_individual_paths="false"
       simplify_just_coalesce="false"
       step="1" />
    <inkscape:path-effect
       effect="powerstroke"
       id="path-effect596"
       is_visible="true"
       lpeversion="1"
       offset_points="1.6301063,0.073697069 | 4.8630248,0.088925983"
       not_jump="true"
       sort_points="true"
       interpolator_type="CentripetalCatmullRom"
       interpolator_beta="0.75"
       start_linecap_type="round"
       linejoin_type="spiro"
       miter_limit="4"
       scale_width="1"
       end_linecap_type="round" />
    <inkscape:path-effect
       effect="simplify"
       id="path-effect594"
       is_visible="true"
       lpeversion="1"
       steps="1"
       threshold="0.0032025118"
       smooth_angles="0"
       helper_size="0"
       simplify_individual_paths="false"
       simplify_just_coalesce="false"
       step="1" />
    <inkscape:path-effect
       effect="powerstroke"
       id="path-effect589"
       is_visible="true"
       lpeversion="1"
       offset_points="1.6976891,0.08484681 | 6.1660856,0.096812386 | 10.8739,0.1095938"
       not_jump="true"
       sort_points="true"
       interpolator_type="CentripetalCatmullRom"
       interpolator_beta="0.75"
       start_linecap_type="round"
       linejoin_type="spiro"
       miter_limit="4"
       scale_width="1"
       end_linecap_type="round" />
    <inkscape:path-effect
       effect="simplify"
       id="path-effect587"
       is_visible="true"
       lpeversion="1"
       steps="1"
       threshold="0.0032025118"
       smooth_angles="0"
       helper_size="0"
       simplify_individual_paths="false"
       simplify_just_coalesce="false"
       step="1" />
    <inkscape:path-effect
       effect="powerstroke"
       id="path-effect582"
       is_visible="true"
       lpeversion="1"
       offset_points="1.7299982,0.089197928 | 12.137997,0.10986574"
       not_jump="true"
       sort_points="true"
       interpolator_type="CentripetalCatmullRom"
       interpolator_beta="0.75"
       start_linecap_type="round"
       linejoin_type="spiro"
       miter_limit="4"
       scale_width="1"
       end_linecap_type="round" />
    <inkscape:path-effect
       effect="simplify"
       id="path-effect580"
       is_visible="true"
       lpeversion="1"
       steps="1"
       threshold="0.0032025118"
       smooth_angles="0"
       helper_size="0"
       simplify_individual_paths="false"
       simplify_just_coalesce="false"
       step="1" />
    <inkscape:path-effect
       effect="powerstroke"
       id="path-effect512"
       is_visible="true"
       lpeversion="1"
       offset_points="4.6098719,0.10769018"
       not_jump="true"
       sort_points="true"
       interpolator_type="CentripetalCatmullRom"
       interpolator_beta="0.75"
       start_linecap_type="round"
       linejoin_type="spiro"
       miter_limit="4"
       scale_width="1"
       end_linecap_type="round" />
    <inkscape:path-effect
       effect="simplify"
       id="path-effect510"
       is_visible="true"
       lpeversion="1"
       steps="1"
       threshold="0.0032025118"
       smooth_angles="0"
       helper_size="0"
       simplify_individual_paths="false"
       simplify_just_coalesce="false"
       step="1" />
    <inkscape:path-effect
       effect="powerstroke"
       id="path-effect505"
       is_visible="true"
       lpeversion="1"
       offset_points="2.7405082,0.13733218"
       not_jump="true"
       sort_points="true"
       interpolator_type="CentripetalCatmullRom"
       interpolator_beta="0.75"
       start_linecap_type="round"
       linejoin_type="spiro"
       miter_limit="4"
       scale_width="1"
       end_linecap_type="round" />
    <inkscape:path-effect
       effect="simplify"
       id="path-effect503"
       is_visible="true"
       lpeversion="1"
       steps="1"
       threshold="0.0032025118"
       smooth_angles="0"
       helper_size="0"
       simplify_individual_paths="false"
       simplify_just_coalesce="false"
       step="1" />
    <inkscape:path-effect
       effect="powerstroke"
       id="path-effect498"
       is_visible="true"
       lpeversion="1"
       offset_points="1.2900581,0.11095352"
       not_jump="true"
       sort_points="true"
       interpolator_type="CentripetalCatmullRom"
       interpolator_beta="0.75"
       start_linecap_type="round"
       linejoin_type="spiro"
       miter_limit="4"
       scale_width="1"
       end_linecap_type="round" />
    <inkscape:path-effect
       effect="simplify"
       id="path-effect496"
       is_visible="true"
       lpeversion="1"
       steps="1"
       threshold="0.0032025118"
       smooth_angles="0"
       helper_size="0"
       simplify_individual_paths="false"
       simplify_just_coalesce="false"
       step="1" />
    <inkscape:path-effect
       effect="powerstroke"
       id="path-effect483"
       is_visible="true"
       lpeversion="1"
       offset_points="2.0820272,0.10524268 | 3.6837451,0.1174802"
       not_jump="true"
       sort_points="true"
       interpolator_type="CentripetalCatmullRom"
       interpolator_beta="0.75"
       start_linecap_type="round"
       linejoin_type="spiro"
       miter_limit="4"
       scale_width="1"
       end_linecap_type="round" />
    <inkscape:path-effect
       effect="simplify"
       id="path-effect481"
       is_visible="true"
       lpeversion="1"
       steps="1"
       threshold="0.0032025118"
       smooth_angles="0"
       helper_size="0"
       simplify_individual_paths="false"
       simplify_just_coalesce="false"
       step="1" />
    <inkscape:path-effect
       effect="powerstroke"
       id="path-effect476"
       is_visible="true"
       lpeversion="1"
       offset_points="2.2841322,0.20912563 | 5.9837648,0.27847158 | 13.368559,0.14032357"
       not_jump="true"
       sort_points="true"
       interpolator_type="CentripetalCatmullRom"
       interpolator_beta="0.75"
       start_linecap_type="round"
       linejoin_type="spiro"
       miter_limit="4"
       scale_width="1"
       end_linecap_type="round" />
    <inkscape:path-effect
       effect="simplify"
       id="path-effect474"
       is_visible="true"
       lpeversion="1"
       steps="1"
       threshold="0.0032025118"
       smooth_angles="0"
       helper_size="0"
       simplify_individual_paths="false"
       simplify_just_coalesce="false"
       step="1" />
    <inkscape:path-effect
       effect="powerstroke"
       id="path-effect469"
       is_visible="true"
       lpeversion="1"
       offset_points="2.2881131,0.27847158"
       not_jump="true"
       sort_points="true"
       interpolator_type="CentripetalCatmullRom"
       interpolator_beta="0.75"
       start_linecap_type="round"
       linejoin_type="spiro"
       miter_limit="4"
       scale_width="1"
       end_linecap_type="round" />
    <inkscape:path-effect
       effect="simplify"
       id="path-effect467"
       is_visible="true"
       lpeversion="1"
       steps="1"
       threshold="0.0032025118"
       smooth_angles="0"
       helper_size="0"
       simplify_individual_paths="false"
       simplify_just_coalesce="false"
       step="1" />
    <inkscape:path-effect
       effect="powerstroke"
       id="path-effect348"
       is_visible="true"
       lpeversion="1"
       offset_points="1,0.10243258"
       not_jump="true"
       sort_points="true"
       interpolator_type="CentripetalCatmullRom"
       interpolator_beta="0.75"
       start_linecap_type="round"
       linejoin_type="spiro"
       miter_limit="4"
       scale_width="1"
       end_linecap_type="round" />
    <inkscape:path-effect
       effect="simplify"
       id="path-effect346"
       is_visible="true"
       lpeversion="1"
       steps="1"
       threshold="0.0032025118"
       smooth_angles="0"
       helper_size="0"
       simplify_individual_paths="false"
       simplify_just_coalesce="false"
       step="1" />
    <inkscape:path-effect
       effect="powerstroke"
       id="path-effect341"
       is_visible="true"
       lpeversion="1"
       offset_points="2.0224272,0.1095938"
       not_jump="true"
       sort_points="true"
       interpolator_type="CentripetalCatmullRom"
       interpolator_beta="0.75"
       start_linecap_type="round"
       linejoin_type="spiro"
       miter_limit="4"
       scale_width="1"
       end_linecap_type="round" />
    <inkscape:path-effect
       effect="simplify"
       id="path-effect339"
       is_visible="true"
       lpeversion="1"
       steps="1"
       threshold="0.0032025118"
       smooth_angles="0"
       helper_size="0"
       simplify_individual_paths="false"
       simplify_just_coalesce="false"
       step="1" />
    <inkscape:path-effect
       effect="powerstroke"
       id="path-effect334"
       is_visible="true"
       lpeversion="1"
       offset_points="1.541706,0.098987945 | 9.1291241,0.17513252"
       not_jump="true"
       sort_points="true"
       interpolator_type="CentripetalCatmullRom"
       interpolator_beta="0.75"
       start_linecap_type="round"
       linejoin_type="spiro"
       miter_limit="4"
       scale_width="1"
       end_linecap_type="round" />
    <inkscape:path-effect
       effect="simplify"
       id="path-effect332"
       is_visible="true"
       lpeversion="1"
       steps="1"
       threshold="0.0032025118"
       smooth_angles="0"
       helper_size="0"
       simplify_individual_paths="false"
       simplify_just_coalesce="false"
       step="1" />
    <inkscape:path-effect
       effect="powerstroke"
       id="path-effect323"
       is_visible="true"
       lpeversion="1"
       offset_points="1.6421114,0.098444055 | 11.283254,0.13379689"
       not_jump="true"
       sort_points="true"
       interpolator_type="CentripetalCatmullRom"
       interpolator_beta="0.75"
       start_linecap_type="round"
       linejoin_type="spiro"
       miter_limit="4"
       scale_width="1"
       end_linecap_type="round" />
    <inkscape:path-effect
       effect="simplify"
       id="path-effect321"
       is_visible="true"
       lpeversion="1"
       steps="1"
       threshold="0.0032025118"
       smooth_angles="0"
       helper_size="0"
       simplify_individual_paths="false"
       simplify_just_coalesce="false"
       step="1" />
    <inkscape:path-effect
       effect="powerstroke"
       id="path-effect316"
       is_visible="true"
       lpeversion="1"
       offset_points="1.3675007,0.11503269 | 5.7425876,0.15636832"
       not_jump="true"
       sort_points="true"
       interpolator_type="CentripetalCatmullRom"
       interpolator_beta="0.75"
       start_linecap_type="round"
       linejoin_type="spiro"
       miter_limit="4"
       scale_width="1"
       end_linecap_type="round" />
    <inkscape:path-effect
       effect="simplify"
       id="path-effect314"
       is_visible="true"
       lpeversion="1"
       steps="1"
       threshold="0.0032025118"
       smooth_angles="0"
       helper_size="0"
       simplify_individual_paths="false"
       simplify_just_coalesce="false"
       step="1" />
    <inkscape:path-effect
       effect="powerstroke"
       id="path-effect307"
       is_visible="true"
       lpeversion="1"
       offset_points="4.8229365,0.1841067"
       not_jump="true"
       sort_points="true"
       interpolator_type="CentripetalCatmullRom"
       interpolator_beta="0.75"
       start_linecap_type="round"
       linejoin_type="spiro"
       miter_limit="4"
       scale_width="1"
       end_linecap_type="round" />
    <inkscape:path-effect
       effect="simplify"
       id="path-effect305"
       is_visible="true"
       lpeversion="1"
       steps="1"
       threshold="0.0032025118"
       smooth_angles="0"
       helper_size="0"
       simplify_individual_paths="false"
       simplify_just_coalesce="false"
       step="1" />
    <inkscape:path-effect
       effect="powerstroke"
       id="path-effect296"
       is_visible="true"
       lpeversion="1"
       offset_points="1.5320307,0.077232353 | 7.1506866,0.095452661"
       not_jump="true"
       sort_points="true"
       interpolator_type="CentripetalCatmullRom"
       interpolator_beta="0.75"
       start_linecap_type="round"
       linejoin_type="spiro"
       miter_limit="4"
       scale_width="1"
       end_linecap_type="round" />
    <inkscape:path-effect
       effect="simplify"
       id="path-effect294"
       is_visible="true"
       lpeversion="1"
       steps="1"
       threshold="0.0032025118"
       smooth_angles="0"
       helper_size="0"
       simplify_individual_paths="false"
       simplify_just_coalesce="false"
       step="1" />
    <inkscape:path-effect
       effect="powerstroke"
       id="path-effect289"
       is_visible="true"
       lpeversion="1"
       offset_points="1.2142413,0.092461267 | 7.5611497,0.11421686"
       not_jump="true"
       sort_points="true"
       interpolator_type="CentripetalCatmullRom"
       interpolator_beta="0.75"
       start_linecap_type="round"
       linejoin_type="spiro"
       miter_limit="4"
       scale_width="1"
       end_linecap_type="round" />
    <inkscape:path-effect
       effect="simplify"
       id="path-effect287"
       is_visible="true"
       lpeversion="1"
       steps="1"
       threshold="0.0032025118"
       smooth_angles="0"
       helper_size="0"
       simplify_individual_paths="false"
       simplify_just_coalesce="false"
       step="1" />
    <inkscape:path-effect
       effect="powerstroke"
       id="path-effect230"
       is_visible="true"
       lpeversion="1"
       offset_points="0.83008212,0.087566259 | 4.4276145,0.11775214"
       not_jump="true"
       sort_points="true"
       interpolator_type="CentripetalCatmullRom"
       interpolator_beta="0.75"
       start_linecap_type="round"
       linejoin_type="spiro"
       miter_limit="4"
       scale_width="1"
       end_linecap_type="round" />
    <inkscape:path-effect
       effect="simplify"
       id="path-effect228"
       is_visible="true"
       lpeversion="1"
       steps="1"
       threshold="0.0032025118"
       smooth_angles="0"
       helper_size="0"
       simplify_individual_paths="false"
       simplify_just_coalesce="false"
       step="1" />
    <inkscape:path-effect
       effect="powerstroke"
       id="path-effect223"
       is_visible="true"
       lpeversion="1"
       offset_points="0.57320615,0.088382094 | 4.285574,0.1011635"
       not_jump="true"
       sort_points="true"
       interpolator_type="CentripetalCatmullRom"
       interpolator_beta="0.75"
       start_linecap_type="round"
       linejoin_type="spiro"
       miter_limit="4"
       scale_width="1"
       end_linecap_type="round" />
    <inkscape:path-effect
       effect="simplify"
       id="path-effect221"
       is_visible="true"
       lpeversion="1"
       steps="1"
       threshold="0.0032025118"
       smooth_angles="0"
       helper_size="0"
       simplify_individual_paths="false"
       simplify_just_coalesce="false"
       step="1" />
    <inkscape:path-effect
       effect="powerstroke"
       id="path-effect216"
       is_visible="true"
       lpeversion="1"
       offset_points="0.31549137,0.097900165"
       not_jump="true"
       sort_points="true"
       interpolator_type="CentripetalCatmullRom"
       interpolator_beta="0.75"
       start_linecap_type="round"
       linejoin_type="spiro"
       miter_limit="4"
       scale_width="1"
       end_linecap_type="round" />
    <inkscape:path-effect
       effect="simplify"
       id="path-effect214"
       is_visible="true"
       lpeversion="1"
       steps="1"
       threshold="0.0032025118"
       smooth_angles="0"
       helper_size="0"
       simplify_individual_paths="false"
       simplify_just_coalesce="false"
       step="1" />
    <inkscape:path-effect
       effect="powerstroke"
       id="path-effect209"
       is_visible="true"
       lpeversion="1"
       offset_points="2.6872726,0.28391048"
       not_jump="true"
       sort_points="true"
       interpolator_type="CentripetalCatmullRom"
       interpolator_beta="0.75"
       start_linecap_type="round"
       linejoin_type="spiro"
       miter_limit="4"
       scale_width="1"
       end_linecap_type="round" />
    <inkscape:path-effect
       effect="simplify"
       id="path-effect207"
       is_visible="true"
       lpeversion="1"
       steps="1"
       threshold="0.0032025118"
       smooth_angles="0"
       helper_size="0"
       simplify_individual_paths="false"
       simplify_just_coalesce="false"
       step="1" />
    <inkscape:path-effect
       effect="powerstroke"
       id="path-effect202"
       is_visible="true"
       lpeversion="1"
       offset_points="1.9023365,0.7734113"
       not_jump="true"
       sort_points="true"
       interpolator_type="CentripetalCatmullRom"
       interpolator_beta="0.75"
       start_linecap_type="round"
       linejoin_type="spiro"
       miter_limit="4"
       scale_width="1"
       end_linecap_type="round" />
    <inkscape:path-effect
       effect="simplify"
       id="path-effect200"
       is_visible="true"
       lpeversion="1"
       steps="1"
       threshold="0.0032025118"
       smooth_angles="0"
       helper_size="0"
       simplify_individual_paths="false"
       simplify_just_coalesce="false"
       step="1" />
    <inkscape:path-effect
       effect="powerstroke"
       id="path-effect195"
       is_visible="true"
       lpeversion="1"
       offset_points="1.5313805,0.030566607"
       not_jump="true"
       sort_points="true"
       interpolator_type="CentripetalCatmullRom"
       interpolator_beta="0.75"
       start_linecap_type="round"
       linejoin_type="spiro"
       miter_limit="4"
       scale_width="1"
       end_linecap_type="round" />
    <inkscape:path-effect
       effect="simplify"
       id="path-effect193"
       is_visible="true"
       lpeversion="1"
       steps="1"
       threshold="0.0032025118"
       smooth_angles="0"
       helper_size="0"
       simplify_individual_paths="false"
       simplify_just_coalesce="false"
       step="1" />
    <inkscape:path-effect
       effect="powerstroke"
       id="path-effect170"
       is_visible="true"
       lpeversion="1"
       offset_points="1.5,0.83541474"
       not_jump="true"
       sort_points="true"
       interpolator_type="CentripetalCatmullRom"
       interpolator_beta="0.75"
       start_linecap_type="round"
       linejoin_type="spiro"
       miter_limit="4"
       scale_width="1"
       end_linecap_type="round" />
    <inkscape:path-effect
       effect="simplify"
       id="path-effect168"
       is_visible="true"
       lpeversion="1"
       steps="1"
       threshold="0.0032025118"
       smooth_angles="0"
       helper_size="0"
       simplify_individual_paths="false"
       simplify_just_coalesce="false"
       step="1" />
    <inkscape:path-effect
       effect="powerstroke"
       id="path-effect163"
       is_visible="true"
       lpeversion="1"
       offset_points="1.9165052,0.77993798 | 3.4303413,1.0034767"
       not_jump="true"
       sort_points="true"
       interpolator_type="CentripetalCatmullRom"
       interpolator_beta="0.75"
       start_linecap_type="round"
       linejoin_type="spiro"
       miter_limit="4"
       scale_width="1"
       end_linecap_type="round" />
    <inkscape:path-effect
       effect="simplify"
       id="path-effect161"
       is_visible="true"
       lpeversion="1"
       steps="1"
       threshold="0.004158918"
       smooth_angles="0"
       helper_size="0"
       simplify_individual_paths="false"
       simplify_just_coalesce="false"
       step="1" />
    <inkscape:path-effect
       effect="powerstroke"
       id="path-effect156"
       is_visible="true"
       lpeversion="1"
       offset_points="1.8049339,0.75604689 | 9.1738643,1.0884468"
       not_jump="true"
       sort_points="true"
       interpolator_type="CentripetalCatmullRom"
       interpolator_beta="0.75"
       start_linecap_type="round"
       linejoin_type="spiro"
       miter_limit="4"
       scale_width="1"
       end_linecap_type="round" />
    <inkscape:path-effect
       effect="powerstroke"
       id="path-effect151"
       is_visible="true"
       lpeversion="1"
       offset_points="1.3196603,0.72182925 | 3.7308848,0.82122335 | 9.4586918,0.93365274"
       not_jump="true"
       sort_points="true"
       interpolator_type="CentripetalCatmullRom"
       interpolator_beta="0.75"
       start_linecap_type="round"
       linejoin_type="spiro"
       miter_limit="4"
       scale_width="1"
       end_linecap_type="round" />
    <inkscape:path-effect
       effect="powerstroke"
       id="path-effect146"
       is_visible="true"
       lpeversion="1"
       offset_points="2.4010055,0.38388933 | 5.0476245,0.50669263 | 19.130896,0.56551439"
       not_jump="true"
       sort_points="true"
       interpolator_type="CentripetalCatmullRom"
       interpolator_beta="0.75"
       start_linecap_type="round"
       linejoin_type="spiro"
       miter_limit="4"
       scale_width="1"
       end_linecap_type="round" />
    <inkscape:path-effect
       effect="simplify"
       id="path-effect144"
       is_visible="true"
       lpeversion="1"
       steps="1"
       threshold="0.0032025118"
       smooth_angles="0"
       helper_size="0"
       simplify_individual_paths="false"
       simplify_just_coalesce="false"
       step="1" />
    <inkscape:path-effect
       effect="powerstroke"
       id="path-effect139"
       is_visible="true"
       lpeversion="1"
       offset_points="4.7848705,0.69738808"
       not_jump="true"
       sort_points="true"
       interpolator_type="CentripetalCatmullRom"
       interpolator_beta="0.75"
       start_linecap_type="round"
       linejoin_type="spiro"
       miter_limit="4"
       scale_width="1"
       end_linecap_type="round" />
    <inkscape:path-effect
       effect="simplify"
       id="path-effect137"
       is_visible="true"
       lpeversion="1"
       steps="1"
       threshold="0.0032025118"
       smooth_angles="0"
       helper_size="0"
       simplify_individual_paths="false"
       simplify_just_coalesce="false"
       step="1" />
    <inkscape:path-effect
       effect="powerstroke"
       id="path-effect132"
       is_visible="true"
       lpeversion="1"
       offset_points="0.5,0"
       not_jump="true"
       sort_points="true"
       interpolator_type="CentripetalCatmullRom"
       interpolator_beta="0.75"
       start_linecap_type="round"
       linejoin_type="spiro"
       miter_limit="4"
       scale_width="1"
       end_linecap_type="round" />
    <inkscape:path-effect
       effect="simplify"
       id="path-effect130"
       is_visible="true"
       lpeversion="1"
       steps="1"
       threshold="0.0032025118"
       smooth_angles="0"
       helper_size="0"
       simplify_individual_paths="false"
       simplify_just_coalesce="false"
       step="1" />
  </defs>
  <g
     inkscape:label="Layer 1"
     inkscape:groupmode="layer"
     id="layer1">
    <path
       d="m 8.2896505,8.0487155 c 0.048425,-0.031986 0.1936996,-0.1279424 0.2905494,-0.1919136 0.09685,-0.063971 0.2421244,-0.159928 0.2905493,-0.1919136 a 0,0 0 0 0 0,0 c -0.048425,0.031986 -0.1936996,0.1279424 -0.2905493,0.1919136 -0.09685,0.063971 -0.2421245,0.159928 -0.2905494,0.1919136 z"
       id="path-1"
       inkscape:path-effect="#path-effect130;#path-effect132"
       inkscape:original-d="M 8.2896505,8.0487155 C 8.48335,7.9207731 8.6770496,7.7928307 8.8707492,7.6648883"
       style="fill:#000000;fill-rule:nonzero;stroke:none;stroke-width:1px;stroke-linecap:butt;stroke-linejoin:miter;stroke-opacity:1" />
    <path
       d="m 4.5717155,16.011858 c -0.029034,0.532831 -0.056309,1.324294 -0.025828,2.644752 0.010545,0.456804 0.024716,0.878156 0.048229,1.543518 0.039127,1.107174 0.1030801,2.695485 0.02299,4.170824 -0.064733,1.416955 -0.1092326,2.971613 -0.075572,3.561452 a 0.09790017,0.09790017 90 0 0 0.1954822,-0.01116 c -0.033176,-0.581333 0.010741,-2.119782 0.075644,-3.54052 0.080622,-1.485079 0.016167,-3.08298 -0.022867,-4.187515 -0.023512,-0.665312 -0.037645,-1.08562 -0.048159,-1.541121 -0.030363,-1.315341 -0.00317,-2.101743 0.02559,-2.62958 a 0.09790016,0.09790016 90 0 0 -0.1955102,-0.01065 z"
       id="path-1-4"
       inkscape:path-effect="#path-effect214;#path-effect216"
       inkscape:original-d="m 4.6694706,16.017185 c -0.1393047,2.52803 0.1389467,5.056443 0.07411,7.585601 -0.036621,1.428547 -0.1866119,2.897054 -0.1043035,4.32404"
       style="fill:#666666;fill-rule:nonzero;stroke:none;stroke-width:1px;stroke-linecap:butt;stroke-linejoin:miter;stroke-opacity:1" />
    <path
       d="m 4.6482851,28.05465 c 0.010599,0.0209 0.023751,0.05096 0.039133,0.104384 0.00969,0.03366 0.019472,0.07522 0.03262,0.124173 0.00333,0.0124 0.00697,0.02547 0.010937,0.03878 0.00782,0.02623 0.01902,0.06061 0.034788,0.09589 0.017942,0.04015 0.044329,0.08747 0.085814,0.132043 0.033242,0.03179 0.066444,0.05542 0.1036147,0.07533 0.033672,0.01803 0.069264,0.03231 0.1063233,0.04406 0.068652,0.02176 0.1384276,0.03368 0.2039993,0.04602 0.4141495,0.05702 0.8313251,0.0405 1.2274888,0.03222 1.024,-0.029 1.5167114,-0.07925 2.2861061,-0.0432 0.070378,0.0043 0.1274517,0.0085 0.1793427,0.01308 0.2215238,0.01937 0.3539117,0.0469 0.4376007,0.06798 a 0.1011635,0.1011635 90 0 0 0.049437,-0.196194 c -0.09323,-0.02349 -0.2372443,-0.0543 -0.4699618,-0.07339 -0.053926,-0.0044 -0.1134234,-0.0083 -0.1861487,-0.01215 -0.7790589,-0.03456 -1.2905059,0.01797 -2.3016124,0.04994 -0.4016256,0.01091 -0.8011496,0.02909 -1.1935383,-0.02234 -0.06634,-0.01117 -0.1232639,-0.01992 -0.1789776,-0.03643 -0.028738,-0.0085 -0.053777,-0.01824 -0.075894,-0.02955 -0.024192,-0.01238 -0.044277,-0.02636 -0.061271,-0.04196 -0.020491,-0.02164 -0.037506,-0.0503 -0.050533,-0.07861 -0.011529,-0.02507 -0.020397,-0.05102 -0.02734,-0.07375 -0.00344,-0.01126 -0.00668,-0.02263 -0.00977,-0.03392 -0.012139,-0.04438 -0.022436,-0.088 -0.033488,-0.126641 -0.018035,-0.06305 -0.034861,-0.103823 -0.051018,-0.135687 a 0.08838209,0.08838209 90 0 0 -0.1576538,0.07994 z"
       id="path-1-5"
       inkscape:path-effect="#path-effect221;#path-effect223"
       inkscape:original-d="m 4.727112,28.014679 c 0.08263,0.15999 0.070566,0.407736 0.2388003,0.513394 0.5446594,0.34207 3.3746218,-0.119596 4.4548592,0.159235"
       style="fill:#666666;fill-rule:nonzero;stroke:none;stroke-width:1px;stroke-linecap:butt;stroke-linejoin:miter;stroke-opacity:1" />
    <path
       d="m 9.6177454,28.517063 c 0.2226027,-2.364232 0.2730392,-4.502997 0.1787815,-9.59325 -0.010374,-0.560248 -0.023689,-1.276649 -0.032938,-1.961878 -0.00569,-0.233084 -0.00582,-0.777887 -0.037882,-1.156447 -6.632e-4,-0.0078 -0.0014,-0.01569 -0.0033,-0.02332 -0.0019,-0.0076 -0.00495,-0.01499 -0.00925,-0.02156 -0.00431,-0.0066 -0.00982,-0.01231 -0.01598,-0.01719 -0.00616,-0.0049 -0.012937,-0.0089 -0.019715,-0.01289 -0.014647,-0.0086 -0.030134,-0.015 -0.046239,-0.01922 -0.015933,-0.0042 -0.031716,-0.006 -0.047,-0.0061 -0.029906,-2.12e-4 -0.057607,0.0062 -0.081429,0.01429 -0.023623,0.008 -0.046189,0.01861 -0.066536,0.02913 -0.020114,0.01039 -0.040648,0.02207 -0.059004,0.03238 -0.039154,0.02199 -0.07065,0.0388 -0.1000525,0.04813 -0.013992,0.0044 -0.025391,0.0064 -0.034779,0.0067 -0.00913,3.06e-4 -0.016583,-9.61e-4 -0.02343,-0.0034 -0.00644,-0.0023 -0.013065,-0.0042 -0.019881,-0.0047 -0.00682,-4.94e-4 -0.013656,1.45e-4 -0.020464,7.45e-4 -0.2305383,0.02032 -0.4684419,0.0128 -0.6900451,0.0072 -0.2657628,-0.0068 -0.4875383,-0.0097 -0.7171982,0.01504 -0.5747935,0.03322 -1.0468546,0.04665 -1.4191356,0.05157 -0.9180626,0.01215 -1.5801127,-0.02462 -1.9054545,-0.04652 a 0.11775214,0.11775214 90 0 0 -0.015816,0.234972 c 0.3291495,0.02215 0.9984934,0.0616 1.9246819,0.04702 0.3751876,-0.0059 0.8515611,-0.02142 1.4356017,-0.05814 0.2189391,-0.02592 0.426886,-0.02608 0.6931248,-0.02275 0.2132986,0.0027 0.457987,0.0073 0.6975151,-0.0157 0.026109,0.005 0.051713,0.0059 0.076354,0.0037 0.03142,-0.0028 0.060621,-0.01043 0.08697,-0.02 0.050911,-0.0185 0.098071,-0.047 0.1343687,-0.06914 0.019538,-0.01192 0.035661,-0.02188 0.051499,-0.03087 0.015759,-0.0089 0.027983,-0.01501 0.038049,-0.01903 0.00966,-0.0039 0.015251,-0.0048 0.016155,-0.0051 l -0.051987,-0.07738 c 0.037803,0.37536 0.044725,0.896203 0.053377,1.142514 0.00992,0.68218 0.023982,1.403328 0.034719,1.961309 0.097812,5.082772 0.043191,7.223846 -0.1780416,9.573528 a 0.08756626,0.08756626 90 0 0 0.1743614,0.01642 z"
       id="path-1-2"
       inkscape:path-effect="#path-effect228;#path-effect230"
       inkscape:original-d="m 9.5305647,28.508855 c 0.3234264,-3.415573 0.2264106,-6.891743 0.1646898,-10.328277 -0.0039,-0.216903 -0.028086,-2.373868 -0.07411,-2.394008 -0.056641,-0.02479 -0.1794506,0.100254 -0.2305658,0.112562 -0.4167161,0.100342 -0.9328729,0.01953 -1.3586908,0.04942 -1.1658517,0.08183 -2.4471044,0.104055 -3.5929826,0.02471"
       style="fill:#666666;fill-rule:nonzero;stroke:none;stroke-width:1px;stroke-linecap:butt;stroke-linejoin:miter;stroke-opacity:1" />
    <path
       inkscape:path-effect="#path-effect287;#path-effect289"
       inkscape:original-d="m 5.4325334,17.197717 c 0.00732,0.07596 0.016884,0.15173 0.021959,0.22787 0.00318,0.04767 -0.025461,0.187283 0.00823,0.230615 0.1037359,0.133404 2.9736718,0.09267 3.0302924,0 0.094706,-0.155007 0.1789946,-0.556305 -0.030193,-0.650665 C 8.1656337,16.87148 6.1319657,17.25582 5.6630991,17.162026"
       style="fill:#666666;fill-rule:nonzero;stroke:none;stroke-width:1px;stroke-linecap:butt;stroke-linejoin:miter;stroke-opacity:1"
       d="m 5.3403234,17.204529 c 0.00376,0.05084 0.0066,0.06092 0.015036,0.138057 0.00412,0.03762 0.00775,0.07999 0.00557,0.121019 -5.798e-4,0.01022 -0.0016,0.02108 -0.00296,0.03445 -0.00139,0.01373 -0.0038,0.03579 -0.00488,0.05646 -8.779e-4,0.01681 -0.00119,0.03706 8.77e-4,0.05872 0.00191,0.02005 0.00596,0.0426 0.014254,0.06618 0.00151,0.0043 0.00316,0.0086 0.00535,0.01255 0.0022,0.004 0.00486,0.0077 0.00753,0.01139 0.016401,0.02259 0.036772,0.03897 0.058274,0.05063 0.01974,0.01071 0.039565,0.017 0.056503,0.02119 0.015877,0.0039 0.031793,0.0066 0.043353,0.0086 0.012287,0.0022 0.020386,0.0038 0.025987,0.0055 0.00174,5.5e-4 0.00352,0.001 0.00532,0.0013 0.00181,2.84e-4 0.00363,4.79e-4 0.00544,7.25e-4 0.2723722,0.03691 0.5380198,0.04096 0.8249741,0.04942 0.5649473,0.0087 1.1391749,0.005 1.7154552,-0.02641 0.0614,-0.0044 0.1230307,-0.0069 0.1864116,-0.01198 0.064286,-0.0052 0.1305808,-0.01313 0.1970818,-0.02879 0.00484,-0.0011 0.00967,-0.0024 0.014284,-0.0043 0.00462,-0.0019 0.00901,-0.0042 0.01337,-0.0066 0.02753,-0.01508 0.047826,-0.03507 0.062754,-0.05481 0.014774,-0.01953 0.02487,-0.03959 0.031972,-0.0557 0.015243,-0.03458 0.022939,-0.06026 0.0276,-0.06949 9.854e-4,-0.002 0.0019,-0.0039 0.00265,-0.006 7.48e-4,-0.0021 0.0014,-0.0041 0.00208,-0.0062 0.023213,-0.07061 0.040926,-0.143352 0.048543,-0.216922 9.759e-4,-0.0094 0.00178,-0.01885 0.00242,-0.02826 0.00446,-0.06643 5.763e-4,-0.137496 -0.01875,-0.209633 -0.014469,-0.0588 -0.047312,-0.115473 -0.093729,-0.159179 -0.022989,-0.02165 -0.049603,-0.04038 -0.079334,-0.05465 -0.029717,-0.01427 -0.062388,-0.02401 -0.097109,-0.02768 -0.0849,-0.01255 -0.1730765,-0.01455 -0.2568357,-0.01248 -0.083395,0.0021 -0.1713081,0.0086 -0.2460979,0.01293 -0.6770046,0.05086 -1.3038073,0.148892 -1.8613997,0.182299 -0.075565,0.0031 -0.1298198,0.0059 -0.1913071,0.0058 -0.07711,-8.9e-5 -0.1327006,-0.0053 -0.1784225,-0.01327 a 0.11421686,0.11421686 90 0 0 -0.038989,0.225082 c 0.060344,0.01045 0.1288434,0.01666 0.2167716,0.01703 0.067614,2.88e-4 0.1281685,-0.0026 0.2032477,-0.0054 0.5735524,-0.03394 1.2039657,-0.132002 1.865304,-0.181432 0.078226,-0.0044 0.1582086,-0.01033 0.2365262,-0.01222 0.076641,-0.0018 0.1505893,2.06e-4 0.2223784,0.01068 0.011855,0.0013 0.019092,0.0034 0.026253,0.0068 0.00725,0.0034 0.014472,0.0083 0.021267,0.01462 0.014121,0.01312 0.024474,0.03067 0.029216,0.04891 0.012344,0.04513 0.015764,0.09054 0.013035,0.13739 -3.858e-4,0.0066 -8.979e-4,0.01333 -0.00154,0.02013 -0.0049,0.05214 -0.017049,0.107337 -0.035175,0.165816 -0.012673,0.03029 -0.018766,0.05459 -0.024036,0.06825 -0.00275,0.0071 -0.0049,0.01093 -0.0047,0.01113 1.876e-4,2e-4 0.00341,-0.0031 0.00795,-0.0053 0.00446,-0.0022 0.0089,-0.0044 0.013487,-0.0063 0.00458,-0.0019 0.00936,-0.0033 0.014167,-0.0046 -0.051257,0.0131 -0.1053529,0.02098 -0.1643974,0.02695 -0.057665,0.0058 -0.1186331,0.0096 -0.1816643,0.0154 -0.5669297,0.03342 -1.1359221,0.03985 -1.6968862,0.03383 -0.2890678,-0.0057 -0.5415921,-0.0071 -0.8004032,-0.03943 -0.013727,-0.0027 -0.026927,-0.0043 -0.036301,-0.0055 -0.01365,-0.0017 -0.021394,-0.0026 -0.029259,-0.004 -0.00707,-0.0013 -0.010421,-0.0025 -0.010551,-0.0022 -1.376e-4,2.76e-4 0.00311,0.0029 0.00482,0.0057 0.00239,0.0039 0.00482,0.0077 0.00704,0.01165 0.00222,0.004 0.0041,0.0081 0.00584,0.01228 -0.00252,-0.0061 -0.00434,-0.01303 -0.00549,-0.02141 -0.00127,-0.0092 -0.00164,-0.0196 -0.00138,-0.03116 3.283e-4,-0.01486 0.00168,-0.03112 0.00299,-0.04706 0.00111,-0.01346 0.00227,-0.02768 0.00293,-0.04224 0.00258,-0.05626 -0.00247,-0.110801 -0.00658,-0.149781 -0.00658,-0.06229 -0.011804,-0.105948 -0.01373,-0.132014 a 0.09246127,0.09246127 90 0 0 -0.18442,0.01362 z"
       id="path-1-6" />
    <path
       d="m 8.2254087,18.462783 c -0.1280808,0.02448 -0.2952708,0.04125 -0.5287384,0.02845 -0.1679827,-0.0092 -0.3336875,-0.0308 -0.5445003,-0.06155 -0.1592091,-0.02522 -0.3501781,-0.04893 -0.5539331,-0.05613 -0.0027,-1.35e-4 -0.00668,-3.17e-4 -0.010666,-4.96e-4 -0.1087289,-0.0049 -0.3450681,-0.0078 -0.5018266,-0.02563 -0.07621,-0.0062 -0.1691413,-0.01488 -0.2566275,-0.01689 -0.08361,-0.0019 -0.1761142,0.0016 -0.2705846,0.02121 -0.00442,9.2e-4 -0.00879,0.0021 -0.013061,0.0036 -0.00267,9.09e-4 -0.010745,0.0031 -0.022236,0.0061 -0.010304,0.0027 -0.026665,0.007 -0.04326,0.01343 -0.016392,0.0064 -0.038243,0.01676 -0.058814,0.0346 -0.010393,0.009 -0.020467,0.01994 -0.029257,0.03308 -0.00876,0.01309 -0.015649,0.02751 -0.020438,0.04303 -0.01769,0.06674 -0.024236,0.128982 -0.026497,0.188994 -0.00219,0.05816 -3.774e-4,0.116211 7.277e-4,0.169207 0.00392,0.06777 0.00827,0.137542 0.018249,0.207081 0.01,0.06969 0.025986,0.141988 0.05425,0.212971 0.01206,0.03877 0.040653,0.07776 0.078436,0.104986 0.035926,0.02589 0.078941,0.04027 0.1238456,0.04128 0.2286753,0.02656 0.4683022,0.03049 0.677095,0.03869 0.6444683,0.01805 1.2461028,0.02506 1.8293549,0.01788 0.082481,-0.0024 0.1500604,-0.0016 0.2273287,-0.01021 0.013785,-0.0015 0.027769,-0.0038 0.040027,-0.01031 0.012258,-0.0065 0.022002,-0.01678 0.031024,-0.02731 0.012346,-0.01442 0.0211,-0.02982 0.027163,-0.04489 0.00621,-0.01544 0.00948,-0.03023 0.011205,-0.04307 0.00351,-0.02617 0.00127,-0.05039 -6.194e-4,-0.06571 -0.00183,-0.01487 -0.00576,-0.03726 -0.00669,-0.04323 -0.00187,-0.01192 -0.00199,-0.01777 -0.00201,-0.01703 a 0.1095938,0.1095938 90 0 0 -0.219106,-0.006 c -5.661e-4,0.02074 0.00198,0.04041 0.00458,0.05697 0.00223,0.0142 0.00458,0.02707 0.00569,0.0361 9.903e-4,0.008 4.893e-4,0.01293 9.129e-4,0.0098 1.808e-4,-0.0013 7.77e-4,-0.0049 0.0027,-0.0096 0.00193,-0.0048 0.00503,-0.01041 0.0097,-0.01587 0.00902,-0.01054 0.018766,-0.02082 0.031024,-0.02731 0.012258,-0.0065 0.026242,-0.0088 0.040027,-0.01032 -0.065329,0.0073 -0.1171041,0.0063 -0.2074552,0.0089 -0.5778434,0.0071 -1.1764507,1.41e-4 -1.8174752,-0.0178 -0.2168894,-0.0085 -0.445514,-0.01214 -0.664853,-0.03802 -0.00182,-2.15e-4 -0.00365,-3.79e-4 -0.00548,-5.32e-4 -0.00183,-1.53e-4 -0.00367,-3.29e-4 -0.00542,-8.63e-4 -0.00176,-5.34e-4 -0.0034,-0.0015 -0.00465,-0.0028 -0.00125,-0.0013 -0.00202,-0.003 -0.0027,-0.0048 -0.019932,-0.05006 -0.032506,-0.104358 -0.040922,-0.163017 -0.00851,-0.05928 -0.012453,-0.120486 -0.016241,-0.184688 -0.00101,-0.05225 -0.00256,-0.102141 -6.692e-4,-0.152214 0.00189,-0.05021 0.00717,-0.09529 0.018162,-0.137002 -0.0027,0.0091 -0.00496,0.01395 -0.00807,0.01859 -0.00309,0.0046 -0.00643,0.0081 -0.0093,0.01063 -0.0057,0.0049 -0.00793,0.0051 -0.00539,0.0041 0.00343,-0.0013 0.00864,-0.0029 0.018997,-0.0056 0.00696,-0.0018 0.018571,-0.0047 0.03032,-0.0083 0.070373,-0.01404 0.1427935,-0.01721 0.215374,-0.01554 0.079359,0.0018 0.1633225,0.0097 0.2404568,0.01589 0.1627075,0.01861 0.4207378,0.02234 0.513237,0.02647 0.00382,1.71e-4 0.00763,3.46e-4 0.011436,5.25e-4 0.193284,0.0068 0.3748796,0.02926 0.5299988,0.05382 0.2130743,0.03108 0.3870035,0.05393 0.5654559,0.06371 0.2507401,0.01375 0.4357941,-0.0041 0.5818903,-0.03202 a 0.1095938,0.1095938 90 0 0 -0.041151,-0.21529 z"
       id="path-1-9"
       inkscape:path-effect="#path-effect339;#path-effect341"
       inkscape:original-d="m 8.2459842,18.570428 c -0.4291085,0.08072 -0.8446,0.0041 -1.2681115,-0.05491 -0.2403553,-0.0335 -0.4706806,-0.03496 -0.7136558,-0.04393 -0.1814285,-0.0067 -0.5924692,-0.07835 -0.7712973,0.01922 -0.06708,0.0366 -0.05461,0.749995 0.082345,0.798918 0.1914557,0.06839 2.7658495,0.08702 2.7750232,0.05491 0.012074,-0.04227 -0.00297,-0.09988 -0.00549,-0.142762"
       style="fill:#666666;fill-rule:nonzero;stroke:none;stroke-width:1px;stroke-linecap:butt;stroke-linejoin:miter;stroke-opacity:1" />
    <path
       d="m 8.4383927,19.166063 c -0.00515,-0.04726 -0.00795,-0.104596 -0.0044,-0.207717 0.00281,-0.08152 0.00716,-0.148611 0.00703,-0.226254 -2.52e-5,-0.08308 -0.015896,-0.215915 -0.027024,-0.260563 a 0.10243258,0.10243258 90 0 0 -0.1987842,0.04954 c 0.00808,0.0324 0.02092,0.136165 0.020943,0.211223 1.235e-4,0.07296 -0.00386,0.13041 -0.00691,0.219001 -0.0038,0.11035 -9.686e-4,0.177763 0.00549,0.236972 a 0.10243258,0.10243258 90 0 0 0.2036582,-0.02221 z"
       id="path-1-1"
       inkscape:path-effect="#path-effect346;#path-effect348"
       inkscape:original-d="M 8.3365636,19.177166 C 8.3119145,18.960688 8.3679941,18.709904 8.314605,18.496301"
       style="fill:#666666;fill-rule:nonzero;stroke:none;stroke-width:1px;stroke-linecap:butt;stroke-linejoin:miter;stroke-opacity:1" />
    <path
       d="m 6.6628326,21.069935 c -0.056425,0.04917 -0.2107659,0.180669 -0.3085427,0.342162 -0.020487,0.03499 -0.042989,0.07887 -0.057259,0.128425 -0.00682,0.02367 -0.012051,0.04961 -0.013989,0.07721 -0.00189,0.02695 -6.417e-4,0.05555 0.00538,0.08503 0.00528,0.02655 0.01473,0.05173 0.027142,0.0747 0.012221,0.02261 0.027158,0.04281 0.043616,0.06058 0.032537,0.03513 0.071814,0.06169 0.1112996,0.08004 0.060809,0.02834 0.1236642,0.0437 0.1839573,0.05111 0.062767,0.0077 0.1241015,0.007 0.1794601,0.0027 0.062146,-0.0059 0.1206657,-0.01621 0.1763499,-0.03283 0.013107,-0.0039 0.025961,-0.0081 0.038558,-0.01271 0.044201,-0.01601 0.089385,-0.03754 0.1327139,-0.06696 0.03339,-0.02275 0.067352,-0.05363 0.093631,-0.09282 0.013115,-0.01956 0.024544,-0.04153 0.032774,-0.06584 0.0083,-0.02451 0.013187,-0.051 0.013305,-0.07893 1.806e-4,-0.02821 -0.00408,-0.05491 -0.01107,-0.07945 -0.00711,-0.02495 -0.017032,-0.04762 -0.027968,-0.06779 -0.02271,-0.04189 -0.05187,-0.0767 -0.076095,-0.102513 C 7.084588,21.24638 6.9170273,21.160376 6.8613381,21.130769 a 0.10769018,0.10769018 90 0 0 -0.1011038,0.190176 c 0.062217,0.03308 0.1974685,0.104042 0.289928,0.199614 0.016837,0.01796 0.032317,0.03749 0.042685,0.05661 0.00478,0.0088 0.0081,0.01687 0.010175,0.02416 0.002,0.007 0.00286,0.01337 0.00283,0.01928 -1.46e-5,0.0034 -5.436e-4,0.0069 -0.00194,0.01102 -0.00143,0.0042 -0.00383,0.0093 -0.00765,0.01495 -0.00803,0.01198 -0.020564,0.02425 -0.035868,0.03468 -0.025984,0.01764 -0.05472,0.0316 -0.084922,0.04254 -0.00861,0.0031 -0.01755,0.0061 -0.026843,0.0088 -0.039635,0.01183 -0.083937,0.01996 -0.1332724,0.02464 -0.043623,0.0034 -0.089936,0.0036 -0.1346312,-0.0019 -0.042766,-0.0053 -0.082941,-0.01563 -0.1193559,-0.0326 -0.017874,-0.0083 -0.033217,-0.0193 -0.04417,-0.03113 -0.00537,-0.0058 -0.00934,-0.01141 -0.012154,-0.01663 -0.00282,-0.0052 -0.00455,-0.01013 -0.00549,-0.01485 -0.00181,-0.0088 -0.00234,-0.01772 -0.00166,-0.0274 7.049e-4,-0.01004 0.00272,-0.02093 0.0061,-0.03269 0.00733,-0.02546 0.020207,-0.05197 0.035364,-0.07788 0.076576,-0.126452 0.2038072,-0.23664 0.2649705,-0.289939 A 0.10769018,0.10769018 90 0 0 6.6628326,21.069935 Z"
       id="path-1-28"
       inkscape:path-effect="#path-effect510;#path-effect512"
       inkscape:original-d="m 6.7335828,21.151124 c -1.2615316,1.083315 1.4590841,0.795844 0.077203,0.07473"
       style="fill:#800000;fill-rule:nonzero;stroke:none;stroke-width:18.8976"
       sodipodi:nodetypes="cc" />
    <path
       d="m 11.522255,18.473498 c 0.07301,0.877583 0.05154,2.448792 0.07575,4.529309 -3.96e-4,0.773866 0.0063,1.457071 0.006,2.232015 -2.32e-4,0.253999 -0.0014,0.534481 -0.0047,0.82492 -0.01107,0.210438 -0.05424,0.454277 -0.07896,0.724046 -0.01101,0.120161 -0.01765,0.24837 -0.01072,0.378469 0.0066,0.123691 0.02556,0.252622 0.06669,0.383042 0.0026,0.0082 0.0055,0.01641 0.01031,0.02356 0.0048,0.0072 0.01123,0.01301 0.01779,0.01858 0.05251,0.04457 0.111565,0.07454 0.174078,0.09444 0.05969,0.019 0.121741,0.02857 0.183392,0.03369 0.05958,0.0049 0.119434,0.0058 0.176835,0.0067 0.0562,9.41e-4 0.10902,0.002 0.1578,0.0069 0.344955,0.0035 0.675872,-0.01536 1.02298,-0.03434 0.327873,-0.01793 0.665926,-0.03562 1.001788,-0.02857 1.710897,-0.02395 3.459152,-0.185182 5.235631,-0.254965 0.574178,-0.0071 1.191391,0.007 1.787374,-0.02992 0.248998,-0.0015 0.511829,0.01044 0.776849,0.0043 0.265066,-0.0061 0.533247,-0.03053 0.796196,-0.107195 0.0404,-0.01027 0.07994,-0.02672 0.115565,-0.04795 0.03569,-0.02127 0.06653,-0.04678 0.09315,-0.07525 0.05316,-0.05684 0.08842,-0.12426 0.113522,-0.19117 0.02519,-0.06715 0.0416,-0.137873 0.0546,-0.203021 0.01325,-0.06637 0.02356,-0.129409 0.03521,-0.182793 0.136958,-0.997593 0.07866,-2.029545 0.05615,-2.958231 -0.05266,-1.250055 0.0023,-2.461135 -0.02004,-3.613294 -0.02078,-0.951736 -0.01607,-1.720828 -0.144624,-2.545407 0.0029,-0.04462 1.96e-4,-0.08612 -0.0092,-0.124248 -0.0011,-0.0045 -0.0023,-0.0089 -0.0036,-0.01325 -0.01112,-0.03805 -0.02913,-0.07216 -0.05423,-0.10108 -0.02789,-0.03214 -0.06152,-0.05445 -0.0966,-0.06945 -0.03447,-0.01473 -0.0704,-0.02246 -0.104709,-0.0262 -0.06732,-0.0073 -0.138649,-3.43e-4 -0.200786,0.0089 -0.06359,0.0095 -0.123144,0.02218 -0.168674,0.02985 -0.301154,0.06876 -0.602864,0.09198 -0.908861,0.100101 -0.303038,0.008 -0.629269,8.49e-4 -0.932306,0.0089 -2.879277,0.07642 -5.618329,0.118885 -8.265994,0.125605 -0.06017,7.1e-4 -0.120899,-0.0038 -0.18303,-0.01019 -0.06438,-0.0066 -0.129893,-0.01503 -0.195861,-0.02143 -0.06923,-0.0067 -0.138422,-0.01112 -0.208124,-0.0092 -0.07385,0.002 -0.146551,0.01119 -0.218436,0.03118 -0.0068,0.0019 -0.01347,0.0045 -0.01982,0.0076 -0.03787,0.01896 -0.06976,0.04278 -0.0961,0.07039 -0.02732,0.02865 -0.04748,0.06016 -0.06222,0.09217 -0.03098,0.0673 -0.03886,0.138743 -0.03941,0.198135 -6.3e-4,0.06727 0.0083,0.134552 0.0162,0.185568 0.01004,0.06469 0.01989,0.115848 0.02483,0.151859 a 0.10986574,0.10986574 90 0 0 0.217688,-0.0299 c -0.0061,-0.04416 -0.01622,-0.09681 -0.02529,-0.155578 -0.0075,-0.04831 -0.01396,-0.101121 -0.01345,-0.149776 4.65e-4,-0.04394 0.0066,-0.08047 0.01941,-0.108125 0.0057,-0.01242 0.01282,-0.02306 0.02161,-0.03224 0.0068,-0.0071 0.01536,-0.01413 0.0267,-0.02072 0.04812,-0.01227 0.09899,-0.01857 0.154288,-0.02004 0.05678,-0.0015 0.115832,0.0021 0.180703,0.0084 0.06139,0.006 0.126348,0.01445 0.194721,0.02149 0.06522,0.0067 0.135572,0.01229 0.207133,0.01149 2.648591,-0.0065 5.389559,-0.04892 8.270196,-0.125402 0.31917,-0.0081 0.613156,-9.04e-4 0.932454,-0.009 0.312409,-0.0084 0.63067,-0.03233 0.946097,-0.104709 0.04663,-0.0078 0.103587,-0.01994 0.158355,-0.02822 0.05653,-0.0086 0.105449,-0.01225 0.14426,-0.0081 0.01889,0.002 0.03254,0.0056 0.04207,0.0096 0.0091,0.0038 0.01392,0.0078 0.01694,0.01121 0.0027,0.0031 0.0063,0.0084 0.0094,0.01862 0.0044,0.01727 0.0067,0.03834 0.0039,0.07009 -7.98e-4,0.009 -5.13e-4,0.01806 8.99e-4,0.02697 0.128458,0.811154 0.124507,1.564165 0.146809,2.528603 0.02324,1.143016 -0.03076,2.354933 0.02372,3.615899 0.02394,0.937369 0.08233,1.946427 -0.04894,2.914981 -0.01161,0.05344 -0.02157,0.117073 -0.03352,0.178698 -0.01197,0.06176 -0.02548,0.11956 -0.04444,0.171015 -0.0188,0.05102 -0.04166,0.09213 -0.07028,0.123149 -0.01413,0.01531 -0.02994,0.02848 -0.04798,0.03939 -0.018,0.01088 -0.03915,0.02009 -0.06448,0.02672 -0.241813,0.07119 -0.490093,0.09545 -0.746811,0.102116 -0.255718,0.0066 -0.5175,-0.0044 -0.779022,-0.0019 -0.595055,0.03822 -1.198776,0.02554 -1.785475,0.03438 -1.786073,0.07169 -3.532066,0.23418 -5.229885,0.259466 -0.340852,-0.0064 -0.685784,0.01247 -1.012819,0.03107 -0.348452,0.01982 -0.673087,0.03901 -1.002796,0.03667 -0.04953,-0.0049 -0.109951,-0.0056 -0.164944,-0.0062 -0.05888,-6.19e-4 -0.11229,-0.0011 -0.164619,-0.0051 -0.05349,-0.0041 -0.100818,-0.01165 -0.142966,-0.02477 -0.03449,-0.01073 -0.06485,-0.02501 -0.09164,-0.04367 -0.03032,-0.103773 -0.04542,-0.207896 -0.05117,-0.310887 -0.0066,-0.118053 -9.58e-4,-0.236763 0.0094,-0.352318 0.02307,-0.258346 0.06652,-0.506503 0.07801,-0.734769 0.0031,-0.294824 0.0041,-0.576014 0.0041,-0.830372 1.98e-4,-0.756473 -0.0069,-1.476635 -0.0067,-2.233109 -0.02414,-2.072445 -0.0019,-3.656702 -0.07564,-4.543111 a 0.08919793,0.08919793 90 0 0 -0.177782,0.01479 z"
       id="path-1-3"
       inkscape:path-effect="#path-effect580;#path-effect582"
       inkscape:original-d="m 11.611146,18.466102 c 0.09913,1.127311 0.07411,2.26015 0.07411,3.390596 0,1.357123 0.0082,2.714246 0.0082,4.071461 0,0.447189 -0.193445,1.169717 -0.03019,1.589599 0.08875,0.228273 1.865864,0.05765 2.108029,0.05765 1.810839,0 3.626396,-0.15686 5.434764,-0.249834 0.672253,-0.03456 1.348801,0.0062 2.020195,-0.04118 0.300756,-0.02123 1.703133,0.09344 1.871974,-0.255324 0.355769,-0.7349 0.156455,-3.413106 0.156455,-4.329531 0,-0.961809 0.06793,-4.688391 -0.194883,-5.43319 -0.03554,-0.100725 -0.732187,0.06717 -0.80149,0.07413 -0.562578,0.05646 -1.169069,0.03392 -1.723754,0.04942 -2.638015,0.07368 -5.282404,0.108373 -7.921579,0.123544 -0.74917,0.0043 -1.182774,-0.286176 -1.010098,0.568302"
       style="fill:#808080;fill-rule:nonzero;stroke:none;stroke-width:18.8976" />
    <path
       d="m 12.624788,18.514239 c 0.09273,0.805706 0.108505,2.437194 0.109107,4.335865 -0.01391,0.715171 -0.0555,1.438678 -0.111187,2.19907 -0.02254,0.307694 -0.04697,0.616507 -0.07417,0.953238 -0.0074,0.07981 -0.02494,0.171392 -0.0374,0.272458 -0.01122,0.09098 -0.01842,0.195841 0.0022,0.301811 0.0014,0.007 0.0028,0.01398 0.0052,0.02067 0.0024,0.0067 0.0058,0.01305 0.01026,0.01859 0.0045,0.0055 0.0099,0.01022 0.01593,0.01405 0.006,0.0038 0.01249,0.0068 0.01898,0.0097 0.06312,0.02831 0.127782,0.04057 0.192214,0.04236 0.06257,0.0017 0.124323,-0.0064 0.183679,-0.01848 0.05813,-0.01183 0.115621,-0.02782 0.169635,-0.04261 0.05419,-0.01484 0.104299,-0.0283 0.152013,-0.03703 0.0041,-7.58e-4 0.0082,-0.0019 0.01223,-0.0032 0.171607,-0.05695 0.348485,-0.07898 0.524687,-0.05371 2.288008,0.118961 4.675916,-0.136966 6.831276,-0.254732 0.09148,-0.0055 0.183085,-0.01156 0.272394,-0.01737 0.447226,-0.02912 0.896181,-0.05645 1.339028,-0.0099 0.0164,0.0043 0.03285,0.0074 0.04927,0.0089 0.01944,0.0017 0.03908,0.0013 0.05844,-0.002 0.0195,-0.0033 0.03819,-0.0094 0.0557,-0.01834 0.01748,-0.0089 0.03279,-0.02015 0.04603,-0.03293 0.02616,-0.02525 0.04307,-0.05532 0.0544,-0.08362 0.01134,-0.02832 0.0184,-0.05811 0.02312,-0.08628 0.0093,-0.05532 0.01124,-0.116123 0.01306,-0.164926 9.51e-4,-0.02555 0.0018,-0.04798 0.0034,-0.06793 0.0016,-0.02026 0.0036,-0.03448 0.0058,-0.04369 0.0017,-0.0069 0.0024,-0.01391 0.0025,-0.02097 0.0063,-0.34444 -0.04699,-0.683617 -0.09467,-1.011254 -0.04829,-0.331758 -0.09086,-0.651658 -0.0711,-0.974206 0.01605,-1.374068 0.107505,-2.719951 -0.01364,-4.079909 -0.0089,-0.206204 -0.0043,-0.419194 -0.003,-0.63356 0.001,-0.162385 1.85e-4,-0.325126 -0.0098,-0.488191 -0.0033,-0.05462 -0.0078,-0.110159 -0.01365,-0.166306 -0.0016,-0.01516 -0.0041,-0.03059 -0.01163,-0.04383 -0.0075,-0.01325 -0.0195,-0.0233 -0.03167,-0.03247 -0.04768,-0.03588 -0.100074,-0.05937 -0.153824,-0.07476 -0.05167,-0.01479 -0.104535,-0.0221 -0.155657,-0.02605 -0.04974,-0.0038 -0.09979,-0.0046 -0.145853,-0.0056 -0.04644,-9.38e-4 -0.08814,-0.002 -0.12656,-0.0058 -0.280688,-0.0075 -0.554271,0.0064 -0.820571,0.01402 -0.271947,0.0078 -0.531898,0.0089 -0.789592,-0.02097 -1.604696,-0.112275 -3.137739,-0.06289 -4.497869,-0.101975 -1.319123,-0.02058 -2.072931,0.01591 -2.808167,0.127166 a 0.1095938,0.1095938 90 0 0 0.03279,0.21672 c 0.717984,-0.108642 1.458781,-0.144861 2.770468,-0.123958 1.366648,0.03957 2.898401,-0.0091 4.482365,0.101796 0.269125,0.03135 0.542136,0.02986 0.816315,0.02202 0.272945,-0.0078 0.53586,-0.02132 0.800593,-0.01459 0.04032,0.0043 0.09038,0.0053 0.135933,0.0062 0.04808,9e-4 0.09118,0.0015 0.133373,0.0047 0.04264,0.0032 0.07964,0.0087 0.112144,0.0179 0.01626,0.0046 0.03096,0.01 0.0444,0.01623 0.0031,0.03455 0.0057,0.06896 0.0079,0.103163 0.0099,0.15545 0.01112,0.3122 0.01056,0.473498 -7.29e-4,0.209892 -0.0047,0.431137 0.0056,0.649165 0.121689,1.350319 0.03259,2.673025 0.0185,4.05793 -0.02008,0.341896 0.027,0.681707 0.07609,1.011885 0.04897,0.329389 0.09956,0.647388 0.09571,0.968532 -0.0038,0.0209 -0.0059,0.04263 -0.0072,0.0629 -0.0016,0.02452 -0.0023,0.05084 -0.003,0.07566 -0.0014,0.05222 -0.0027,0.09904 -0.009,0.139017 -0.003,0.01952 -0.0068,0.0342 -0.01088,0.04482 -0.0039,0.01015 -0.0073,0.01406 -0.0071,0.01407 0.003,-0.0014 7.94e-4,-0.0011 -0.0037,-0.0014 -0.0045,-3.26e-4 -0.01114,-0.0014 -0.02009,-0.0039 -0.0056,-0.0016 -0.01138,-0.0028 -0.0172,-0.0034 -0.465166,-0.04815 -0.933414,-0.01746 -1.380991,0.01316 -0.08954,0.0061 -0.180544,0.01243 -0.270755,0.01818 -2.168741,0.120257 -4.53567,0.376726 -6.802471,0.261183 -0.199707,-0.02684 -0.40335,0.0015 -0.594632,0.06631 -0.05422,0.01082 -0.109008,0.0262 -0.159997,0.04064 -0.05545,0.0157 -0.106649,0.03034 -0.157681,0.04119 -0.05144,0.01093 -0.09877,0.01706 -0.143218,0.01622 -0.0288,-5.46e-4 -0.05612,-0.004 -0.0823,-0.01095 -0.0069,-0.06405 -0.003,-0.130767 0.0049,-0.199165 0.01066,-0.09286 0.02799,-0.18704 0.03588,-0.278485 0.0269,-0.337919 0.05102,-0.646773 0.07336,-0.955348 0.05518,-0.762177 0.09677,-1.488529 0.110786,-2.209779 -5.73e-4,-1.894472 -0.01552,-3.541469 -0.109371,-4.356883 a 0.08484681,0.08484681 90 0 0 -0.16858,0.0194 z"
       id="path-1-16"
       inkscape:path-effect="#path-effect587;#path-effect589"
       inkscape:original-d="m 12.709078,18.504537 c 0.154188,1.31489 0.112538,2.642588 0.112538,3.96439 0,1.163838 -0.09566,2.30584 -0.178414,3.464722 -0.0041,0.05685 -0.09089,0.587516 -0.04392,0.625957 0.159367,0.130419 0.815945,-0.148975 1.001863,-0.137271 2.236292,0.140776 4.496455,-0.0997 6.733068,-0.22787 0.612784,-0.03512 1.265754,-0.104472 1.880208,-0.05491 0.04595,0.0037 0.16279,0.04451 0.178414,-0.0082 0.179305,-0.605283 -0.112538,-1.49861 -0.112538,-2.127702 0,-1.396836 0.113484,-2.819693 -0.0082,-4.214223 -0.02942,-0.337023 0.01157,-1.378482 -0.04392,-1.416638 -0.205961,-0.141628 -1.512921,-0.028 -1.825312,-0.05491 -1.182098,-0.10183 -2.341579,-0.09422 -3.527107,-0.104326 -1.33318,-0.01136 -2.735836,-0.09633 -4.054114,0.104326"
       style="fill:#808080;fill-rule:nonzero;stroke:none;stroke-width:18.8976" />
    <path
       d="m 15.026131,27.635144 c -1.78e-4,0.01959 -0.0025,0.04593 -0.0117,0.07715 -0.0067,0.02289 -0.017,0.04784 -0.03215,0.07422 -0.02569,0.04474 -0.06326,0.08963 -0.11146,0.129838 -0.07569,0.06317 -0.16143,0.114517 -0.254372,0.158676 -0.02413,0.01147 -0.04851,0.02233 -0.073,0.03269 -0.0662,0.028 -0.136309,0.05358 -0.216096,0.08047 -0.340634,0.113258 -0.653928,0.16524 -1.062808,0.253851 -0.03096,0.007 -0.06266,0.0129 -0.09586,0.02129 -0.03441,0.0087 -0.07009,0.02003 -0.104927,0.03768 -0.0025,0.0012 -0.0049,0.0026 -0.0071,0.0041 -0.0023,0.0016 -0.0044,0.0033 -0.0066,0.005 -0.02121,0.0167 -0.03442,0.03702 -0.04256,0.0561 -0.0083,0.01934 -0.01155,0.03798 -0.01323,0.05104 -0.0017,0.01357 -0.0025,0.02871 -0.003,0.03558 -2.84e-4,0.0044 -5.3e-4,0.0077 -8.08e-4,0.01047 -3.48e-4,0.0035 -6.92e-4,0.0056 -9.43e-4,0.0067 -4.25e-4,0.0018 -7.53e-4,0.0036 -8.78e-4,0.0054 -1.26e-4,0.0018 -1.55e-4,0.0036 -2.41e-4,0.0055 -0.0022,0.04556 -6.17e-4,0.09049 9.24e-4,0.126694 0.0023,0.05305 0.004,0.0937 0.0041,0.11603 A 0.08892598,0.08892598 90 0 0 13.17129,28.9232 c -6.3e-5,-0.02582 -0.0014,-0.07143 -0.0034,-0.12277 -0.0013,-0.03477 -0.0025,-0.07212 -0.0014,-0.108518 7.21e-4,-0.006 0.0011,-0.01161 0.0014,-0.01663 2.93e-4,-0.0056 4.11e-4,-0.01102 4.7e-4,-0.01599 1.18e-4,-0.01 9.5e-5,-0.01853 2.76e-4,-0.02383 1.79e-4,-0.0052 4.94e-4,-0.0063 -7.18e-4,-0.0043 -0.0015,0.0025 -0.0045,0.0073 -0.01011,0.01122 -0.0045,0.0031 -0.009,0.0064 -0.01373,0.0091 0.01914,-0.01119 0.04147,-0.02031 0.0693,-0.02914 0.02645,-0.0084 0.05654,-0.01597 0.08827,-0.02505 0.398206,-0.09042 0.722852,-0.147745 1.073942,-0.267309 0.08191,-0.02876 0.155169,-0.0563 0.22575,-0.08676 0.0261,-0.01127 0.05232,-0.02315 0.07847,-0.03575 0.100593,-0.04847 0.197227,-0.106106 0.284557,-0.179008 0.06008,-0.05014 0.109428,-0.107787 0.144762,-0.168668 0.02097,-0.03614 0.03598,-0.07159 0.04618,-0.105554 0.01398,-0.04657 0.01789,-0.08692 0.01817,-0.117794 a 0.07369707,0.07369707 90 0 0 -0.147388,-0.0013 z"
       id="path-1-19"
       inkscape:path-effect="#path-effect594;#path-effect596"
       inkscape:original-d="m 15.099825,27.635811 c -0.01584,0.713608 -1.985944,0.832378 -2.011961,0.958152 -0.02128,0.10288 -0.0055,0.225478 -0.0055,0.329451"
       style="fill:#808080;fill-rule:nonzero;stroke:none;stroke-width:18.8976" />
    <path
       d="m 12.901846,28.983387 c 0.294129,0.117985 0.768189,0.277189 1.484302,0.371425 0.311575,0.041 0.643756,0.06698 1.017832,0.08138 0.153294,0.0059 0.31724,0.01004 0.503214,0.01266 0.388259,0.0035 1.4149,0.0032 2.09548,0.02697 0.782644,0.01934 1.683387,0.02829 2.559919,-0.121105 0.161007,-0.01927 0.336882,-0.02714 0.513136,-0.0498 0.08827,-0.01135 0.176618,-0.02649 0.26371,-0.04904 0.08811,-0.02282 0.174534,-0.05311 0.258159,-0.09443 0.08914,-0.04076 0.155686,-0.115388 0.191271,-0.198201 0.01883,-0.04383 0.02925,-0.09034 0.03068,-0.136956 0.0015,-0.04921 -0.007,-0.09782 -0.02531,-0.143474 -0.02723,-0.08955 -0.07831,-0.171222 -0.100231,-0.205637 a 0.07940791,0.07940791 90 0 0 -0.133946,0.08533 c 0.02117,0.03324 0.06191,0.09947 0.08458,0.173208 0.01227,0.03133 0.01702,0.05813 0.01617,0.0857 -8.06e-4,0.02626 -0.0067,0.05318 -0.01785,0.07913 -0.0213,0.04958 -0.06096,0.09342 -0.11358,0.117504 -0.07437,0.03671 -0.15027,0.0635 -0.229746,0.08408 -0.07872,0.02038 -0.160136,0.03447 -0.24415,0.04527 -0.167399,0.02152 -0.342816,0.02941 -0.515709,0.0502 -0.863619,0.147099 -1.750498,0.138799 -2.53236,0.119481 -0.682463,-0.02386 -1.714142,-0.02352 -2.09837,-0.02703 -0.184537,-0.0026 -0.347171,-0.0067 -0.498949,-0.01255 -0.370368,-0.01426 -0.697538,-0.03991 -1.003221,-0.08014 -0.701106,-0.09226 -1.162253,-0.247588 -1.445897,-0.361367 a 0.07940791,0.07940791 90 0 0 -0.05913,0.1474 z"
       id="path-1-0"
       inkscape:path-effect="#path-effect608;#path-effect610"
       inkscape:original-d="m 12.931409,28.909687 c 1.404702,0.563307 2.992247,0.437809 4.485052,0.472213 0.99182,0.02286 2.063257,0.07146 3.044017,-0.09335 0.426824,-0.07172 1.652051,-0.01 1.166553,-0.768718"
       style="fill:#808080;fill-rule:nonzero;stroke:none;stroke-width:18.8976" />
    <path
       d="m 21.540615,28.330584 c -0.151899,-0.0021 -0.414668,-0.0186 -0.742341,-0.114247 -0.163522,-0.04773 -0.369334,-0.12274 -0.598122,-0.243007 -0.470617,-0.245646 -0.845889,-0.571075 -1.033929,-0.741416 a 0.1041549,0.1041549 90 0 0 -0.139852,0.154384 c 0.191507,0.173482 0.58263,0.513451 1.077123,0.771559 0.242556,0.127505 0.461573,0.207407 0.636408,0.258444 0.350628,0.102353 0.633078,0.120327 0.797875,0.122573 a 0.1041549,0.1041549 90 0 0 0.0028,-0.20829 z"
       id="path-1-55"
       inkscape:path-effect="#path-effect615;#path-effect617"
       inkscape:original-d="m 21.539196,28.434729 c -0.952891,-0.01629 -1.7561,-0.503077 -2.442899,-1.125623"
       style="fill:#808080;fill-rule:nonzero;stroke:none;stroke-width:18.8976" />
    <path
       d="m 28.543514,18.747419 c -0.04878,-0.0011 -0.271699,-0.0083 -0.470984,0.02394 -0.05452,0.0088 -0.11432,0.02137 -0.176004,0.03987 -0.01932,0.0058 -0.03982,0.01247 -0.06116,0.02018 -0.06628,0.02396 -0.144886,0.05944 -0.224351,0.113879 -0.003,0.0021 -0.006,0.0043 -0.0088,0.0067 -0.04508,0.0386 -0.0831,0.0851 -0.114375,0.140005 -0.0274,0.0481 -0.04822,0.100087 -0.06494,0.155364 -0.03068,0.101398 -0.04369,0.197914 -0.06431,0.296177 -0.09878,0.717222 -0.07065,1.401523 -0.04784,2.194954 0.02366,0.796529 0.10001,1.624413 0.05486,2.428943 -0.05594,1.525793 -0.172161,2.876792 -0.140771,4.33541 0.0034,0.08631 0.01141,0.173092 0.02629,0.258912 0.01538,0.08871 0.03797,0.17591 0.06991,0.258395 0.03336,0.08616 0.07666,0.166521 0.131883,0.237843 0.05852,0.07557 0.128999,0.13913 0.211961,0.188484 0.05348,0.03298 0.10298,0.05468 0.132047,0.06652 a 0.10306712,0.10306712 90 0 0 0.07777,-0.190902 c -0.02322,-0.0095 -0.06139,-0.02627 -0.103045,-0.05194 -0.0611,-0.03636 -0.112316,-0.08228 -0.155747,-0.138368 -0.04124,-0.05327 -0.07534,-0.115561 -0.102637,-0.186062 -0.02617,-0.0676 -0.04553,-0.141313 -0.05904,-0.219186 -0.01305,-0.07528 -0.02035,-0.152825 -0.02336,-0.229947 -0.03117,-1.449116 0.08433,-2.783175 0.140643,-4.319611 0.0457,-0.813907 -0.03159,-1.666241 -0.05471,-2.444516 -0.02296,-0.798437 -0.04997,-1.464052 0.04477,-2.153737 0.0232,-0.109332 0.0313,-0.181323 0.05863,-0.271676 0.01342,-0.04436 0.02873,-0.08139 0.04674,-0.113019 0.0192,-0.0337 0.04099,-0.06035 0.06533,-0.08197 0.06009,-0.04046 0.120316,-0.06773 0.17315,-0.08683 0.01741,-0.0063 0.03426,-0.01178 0.0503,-0.0166 0.05129,-0.01538 0.102043,-0.02613 0.149674,-0.03382 0.177317,-0.02866 0.380695,-0.02251 0.433582,-0.02135 a 0.10306712,0.10306712 90 0 0 0.0045,-0.206084 z"
       id="path-1-54"
       inkscape:path-effect="#path-effect685;#path-effect687"
       inkscape:original-d="m 28.541258,18.850461 c -0.268393,-0.01617 -0.829641,0.02401 -0.963154,0.287754 -0.368385,0.727718 -0.07028,3.668549 -0.09517,4.589403 -0.03974,1.470667 -0.160383,2.855924 -0.160383,4.328243 0,0.50564 -0.03559,1.138066 0.513283,1.361729"
       style="fill:#4d4d4d;fill-rule:nonzero;stroke:none;stroke-width:18.8976"
       sodipodi:nodetypes="csssc" />
    <path
       d="m 27.87861,29.565821 c 0.334136,0.112198 0.78151,0.212723 1.458806,0.244523 0.145304,0.0068 0.311042,0.01118 0.514637,0.01164 0.66731,2.65e-4 1.327649,-0.05651 1.989158,-0.08805 0.609477,-0.02906 1.064848,-0.01598 1.064835,-0.01551 -1.2e-5,4.32e-4 -0.438613,-0.0022 -0.526433,-3.02e-4 a 0.11095352,0.11095352 90 0 0 -0.0048,-0.221856 c 0.08924,-0.0019 0.536888,-1.09e-4 0.536878,3.24e-4 -1.1e-5,4.73e-4 -0.467231,-0.0088 -1.081411,0.02496 -0.669671,0.0368 -1.319816,0.09723 -1.978603,0.100518 -0.200414,9.41e-4 -0.363808,-0.0024 -0.505478,-0.0084 -0.65886,-0.02808 -1.090721,-0.128968 -1.404945,-0.234479 a 0.09844405,0.09844405 90 0 0 -0.06267,0.186646 z"
       id="path-1-35"
       inkscape:path-effect="#path-effect692;#path-effect694"
       inkscape:original-d="m 27.909947,29.472498 c 1.326737,0.45213 3.148391,0.156305 4.467281,0.134698"
       style="fill:#4d4d4d;fill-rule:nonzero;stroke:none;stroke-width:18.8976"
       sodipodi:nodetypes="cc" />
    <path
       d="m 32.426641,29.711907 c 0.06645,-0.002 0.120411,-7.43e-4 0.232151,0.0016 0.06805,0.0014 0.160511,0.0032 0.249799,-0.002 0.07845,-0.0046 0.167409,-0.01499 0.25698,-0.04044 0.08185,-0.02325 0.167099,-0.0598 0.248972,-0.118894 0.05138,-0.03221 0.101514,-0.07623 0.145072,-0.127191 0.02163,-0.0253 0.04143,-0.05208 0.05954,-0.0801 0.01594,-0.02467 0.03113,-0.05118 0.04542,-0.07966 0.05052,-0.100681 0.08586,-0.218045 0.106878,-0.350191 0.102321,-0.63458 0.07985,-1.234318 0.05909,-1.98952 -0.03119,-0.95061 -0.13053,-1.943283 -0.09769,-2.937301 0.01893,-1.214707 0.06354,-2.394537 -0.06998,-3.581823 -0.02846,-0.207579 -0.05581,-0.410069 -0.103104,-0.610524 -0.0506,-0.214438 -0.121347,-0.413799 -0.229512,-0.59564 -0.09081,-0.143002 -0.199849,-0.264792 -0.322739,-0.353436 -0.07064,-0.05096 -0.143973,-0.08966 -0.218998,-0.11598 -0.08796,-0.03086 -0.174073,-0.04325 -0.256268,-0.04177 -0.0041,-3.81e-4 -0.01459,-6.62e-4 -0.02446,-8.38e-4 -0.05687,-0.001 -0.114676,0.0012 -0.15639,0.0029 -0.09241,0.0036 -0.12782,0.0048 -0.170821,0.0039 a 0.12618857,0.12618857 90 0 0 -0.0052,0.252324 c 0.05098,0.001 0.09248,2.05e-4 0.185924,-0.0034 0.0424,-0.0017 0.09426,-0.0037 0.142943,-0.0033 0.0083,7.8e-5 0.01708,2.32e-4 0.02607,4.95e-4 0.06015,-0.0011 0.116554,0.0065 0.175642,0.02684 0.0507,0.01745 0.102985,0.04414 0.155998,0.08186 0.09308,0.06622 0.182189,0.1623 0.258422,0.280351 0.09054,0.150554 0.154532,0.324345 0.20237,0.522333 0.04517,0.186948 0.07211,0.377448 0.101663,0.584176 0.133152,1.164812 0.09154,2.325341 0.07482,3.546173 -0.03119,1.01315 0.0714,2.009649 0.104282,2.949883 0.02333,0.759503 0.04619,1.337334 -0.0506,1.947937 -0.01739,0.115246 -0.04634,0.210274 -0.08426,0.286917 -0.01069,0.02161 -0.02184,0.04126 -0.03329,0.05915 -0.013,0.02033 -0.02694,0.03927 -0.04182,0.05681 -0.02983,0.03515 -0.06341,0.0646 -0.100995,0.08841 -0.06322,0.04546 -0.12438,0.07215 -0.186476,0.08978 -0.06878,0.01953 -0.140554,0.02838 -0.210063,0.03235 -0.07944,0.0045 -0.163594,0.0029 -0.232495,0.0013 -0.110152,-0.0025 -0.170702,-0.004 -0.243497,-0.0018 a 0.10925417,0.10925417 90 0 0 0.0066,0.218408 z"
       id="path-1-68"
       inkscape:path-effect="#path-effect720;#path-effect722"
       inkscape:original-d="m 32.42334,29.602703 c 0.331881,-0.01948 0.765276,0.103166 1.08469,-0.286384 0.420167,-0.512425 0.135555,-3.286476 0.10476,-4.569865 -0.02823,-1.176562 0.213526,-4.621422 -0.402747,-5.504054 -0.372336,-0.533263 -0.668771,-0.414784 -1.032062,-0.421292"
       style="fill:#4d4d4d;fill-rule:nonzero;stroke:none;stroke-width:18.8976"
       sodipodi:nodetypes="csssc" />
    <path
       d="m 32.149793,18.700587 c -0.337273,-0.0061 -1.242068,0.0026 -2.018848,0.01738 -0.3998,0.0076 -0.954658,0.01713 -1.482214,0.01281 -0.02613,-0.0049 -0.05335,-0.01069 -0.07014,-0.01211 -0.01542,-0.0013 -0.03008,-8.8e-5 -0.03609,-1.09e-4 a 0.12618857,0.12618857 90 0 0 -8.82e-4,0.252376 c 0.0061,2.1e-5 0.0208,0.0013 0.03634,1.09e-4 0.01698,-0.0013 0.04427,-0.007 0.07041,-0.01188 0.526128,-0.0017 1.09255,-0.01709 1.487192,-0.02655 0.776858,-0.01862 1.675984,-0.02341 2.010361,-0.01737 a 0.10734222,0.10734222 90 0 0 0.0039,-0.21465 z"
       id="path-1-29"
       inkscape:path-effect="#path-effect727;#path-effect729"
       inkscape:original-d="m 32.147855,18.807912 c -1.143098,-0.02213 -2.305037,0.04137 -3.605801,0.03683"
       style="fill:#4d4d4d;fill-rule:nonzero;stroke:none;stroke-width:18.8976"
       sodipodi:nodetypes="cc" />
    <path
       d="m 27.815572,20.325716 c 0.0054,0.265636 0.01194,0.73914 9.64e-4,1.408731 -0.02226,1.357663 -0.210469,5.310719 -0.210503,6.376477 a 0.08931528,0.08931528 90 0 0 0.17863,6e-6 c 3.5e-5,-1.060845 0.188137,-5.010847 0.21048,-6.373555 0.01102,-0.672261 0.0044,-1.148007 -9.77e-4,-1.415263 a 0.08931529,0.08931529 90 0 0 -0.178594,0.0036 z"
       id="path-1-94"
       inkscape:path-effect="#path-effect734;#path-effect736"
       inkscape:original-d="m 27.904869,20.323914 c 0.05239,2.6 -0.209521,5.191431 -0.209521,7.787013"
       style="fill:#4d4d4d;fill-rule:nonzero;stroke:none;stroke-width:18.8976" />
    <path
       d="m 27.664384,28.215315 c 0.314471,0.002 1.154721,0.03229 1.891318,0.06344 0.258941,0.01095 0.566571,0.02309 0.877532,0.02914 0.806552,0.01515 1.57783,0.01368 2.338645,-0.118841 0.0033,-5.68e-4 0.0057,-9.99e-4 0.0082,-0.0014 0.197529,-0.03453 0.351394,-0.07669 0.458428,-0.108772 a 0.11143926,0.11143926 90 0 0 -0.06399,-0.213496 c -0.106082,0.03179 -0.240321,0.06501 -0.434994,0.103109 5.4e-5,-10e-6 -0.0072,0.0014 -0.0071,0.0014 -0.738409,0.131954 -1.488528,0.143381 -2.296116,0.135269 -0.309075,-0.0038 -0.61335,-0.01388 -0.872579,-0.02396 -0.734713,-0.02857 -1.580489,-0.06155 -1.89806,-0.0636 a 0.09887502,0.09887502 90 0 0 -0.0013,0.197746 z"
       id="path-1-7"
       inkscape:path-effect="#path-effect741;#path-effect743"
       inkscape:original-d="m 27.665023,28.116442 c 1.505833,2.63e-4 4.096714,0.289192 5.541498,-0.144337"
       style="fill:#4d4d4d;fill-rule:nonzero;stroke:none;stroke-width:18.8976"
       sodipodi:nodetypes="cc" />
    <path
       d="m 27.915365,20.34601 c 0.347006,0.04154 1.324888,0.08068 2.082279,0.05321 0.15047,-0.0055 0.303284,-0.01196 0.48106,-0.01995 0.932178,-0.04323 2.152484,-0.111104 2.581425,-0.112536 a 0.09723621,0.09723621 90 0 0 -6.5e-4,-0.194472 c -0.433966,0.0014 -1.662439,0.06974 -2.58965,0.112738 -0.177395,0.008 -0.329575,0.01445 -0.479233,0.01988 -0.753167,0.02732 -1.713186,-0.01139 -2.052115,-0.05196 a 0.09723621,0.09723621 90 0 0 -0.02312,0.193094 z"
       id="path-1-40"
       inkscape:path-effect="#path-effect748;#path-effect750"
       inkscape:original-d="m 27.926923,20.249463 c 1.529172,0.191001 3.609315,-0.07997 5.132881,-0.07997"
       style="fill:#4d4d4d;fill-rule:nonzero;stroke:none;stroke-width:18.8976"
       sodipodi:nodetypes="cc" />
    <path
       d="m 33.053195,20.183365 c 0.03495,1.200419 0.06913,2.037214 0.104077,3.237634 0.02369,0.855131 0.04267,1.834331 0.03689,2.834182 -0.008,0.197247 -0.0285,0.412603 -0.04206,0.644289 -0.0017,0.02822 -0.0032,0.05776 -0.0047,0.08811 -0.01003,0.212098 -0.01409,0.483665 0.03382,0.758823 0.02131,0.109796 0.04794,0.18453 0.06946,0.237466 a 0.10925417,0.10925417 90 0 0 0.202422,-0.08229 c -0.01652,-0.04065 -0.0365,-0.102495 -0.05444,-0.195188 -0.04328,-0.248772 -0.0407,-0.501037 -0.03228,-0.709203 0.0012,-0.02946 0.0025,-0.05827 0.0039,-0.0859 0.01206,-0.242415 0.02745,-0.429592 0.03159,-0.652746 5.76e-4,-1.003956 -0.0242,-1.989142 -0.04967,-2.843151 -0.03358,-1.12563 -0.0705,-2.112073 -0.104079,-3.237703 a 0.09750935,0.09750935 90 0 0 -0.194936,0.0057 z"
       id="path-1-03"
       inkscape:path-effect="#path-effect755;#path-effect757"
       inkscape:original-d="m 33.150663,20.180527 c 0.05899,1.995247 0.148869,3.979951 0.148869,5.978132 0,0.49708 -0.1368,1.319612 0.05238,1.784064"
       style="fill:#4d4d4d;fill-rule:nonzero;stroke:none;stroke-width:18.8976" />
    <path
       d="m 30.230328,28.402852 c -0.02366,0.01606 -0.109425,0.07324 -0.175433,0.125738 -0.04971,0.03953 -0.110777,0.09317 -0.164871,0.161621 -0.01166,0.01478 -0.02319,0.03089 -0.0341,0.0483 -0.01476,0.02354 -0.03112,0.0538 -0.04401,0.08932 -0.01646,0.04534 -0.02934,0.105064 -0.02028,0.172148 0.0061,0.04802 0.02237,0.09363 0.04495,0.136415 0.02037,0.03859 0.04516,0.07362 0.07028,0.105678 0.03833,0.04794 0.08605,0.09029 0.141879,0.122359 0.05385,0.03094 0.115845,0.0526 0.182796,0.0584 0.08225,0.0078 0.163846,-0.0066 0.23777,-0.03552 0.07369,-0.02881 0.140618,-0.07217 0.196754,-0.123354 0.0521,-0.04763 0.09779,-0.10454 0.1314,-0.168037 0.0349,-0.06591 0.05672,-0.138824 0.0592,-0.215279 0.0026,-0.06377 -0.01119,-0.124417 -0.03382,-0.176908 -0.0248,-0.05753 -0.06053,-0.106363 -0.100364,-0.144804 -0.05183,-0.05102 -0.109328,-0.08745 -0.159487,-0.113461 -0.06599,-0.03422 -0.130864,-0.05615 -0.171875,-0.06882 a 0.10160638,0.10160638 90 0 0 -0.05999,0.194156 c 0.0363,0.01121 0.08798,0.02896 0.138314,0.05506 0.03812,0.01977 0.07725,0.04517 0.111214,0.07859 0.02268,0.0219 0.04224,0.04876 0.05558,0.07971 0.01209,0.02805 0.01861,0.05858 0.01736,0.08902 -0.0014,0.04254 -0.01336,0.08542 -0.03572,0.127654 -0.02167,0.04093 -0.0523,0.07966 -0.08882,0.113042 -0.03925,0.03579 -0.08519,0.06519 -0.133732,0.08416 -0.04849,0.01896 -0.09788,0.0269 -0.145417,0.0224 -0.03505,-0.003 -0.06886,-0.01438 -0.09992,-0.03223 -0.03243,-0.01863 -0.06099,-0.04379 -0.08378,-0.07228 -0.02056,-0.02625 -0.03736,-0.05065 -0.04989,-0.07441 -0.01358,-0.02574 -0.02064,-0.04794 -0.02318,-0.06793 -0.0036,-0.02639 9.89e-4,-0.05216 0.0098,-0.07645 0.0068,-0.01879 0.01596,-0.03603 0.02516,-0.0507 0.0067,-0.01067 0.01393,-0.02082 0.02143,-0.03032 0.04046,-0.05119 0.0882,-0.09377 0.131866,-0.128498 0.05845,-0.04648 0.136172,-0.09839 0.163057,-0.116636 a 0.10160638,0.10160638 90 0 0 -0.114114,-0.168148 z"
       id="path-1-36"
       inkscape:path-effect="#path-effect764;#path-effect766"
       inkscape:original-d="m 30.287385,28.486926 c -0.19453,0.131211 -0.501352,0.340609 -0.361748,0.600135 0.371531,0.690679 1.383187,-0.324071 0.435487,-0.613336"
       style="fill:#4d4d4d;fill-rule:nonzero;stroke:none;stroke-width:18.8976"
       sodipodi:nodetypes="csc" />
  </g>
</svg>
