<?xml version="1.0" encoding="UTF-8" standalone="no"?>
<!-- Created with Inkscape (http://www.inkscape.org/) -->

<svg
   width="40mm"
   height="40mm"
   viewBox="0 0 40 40"
   version="1.1"
   id="svg1654"
   inkscape:version="1.2 (dc2aedaf03, 2022-05-15)"
   sodipodi:docname="synapses_brain.svg"
   xmlns:inkscape="http://www.inkscape.org/namespaces/inkscape"
   xmlns:sodipodi="http://sodipodi.sourceforge.net/DTD/sodipodi-0.dtd"
   xmlns="http://www.w3.org/2000/svg"
   xmlns:svg="http://www.w3.org/2000/svg">
  <sodipodi:namedview
     id="namedview1656"
     pagecolor="#ffffff"
     bordercolor="#666666"
     borderopacity="1.0"
     inkscape:showpageshadow="2"
     inkscape:pageopacity="0.0"
     inkscape:pagecheckerboard="0"
     inkscape:deskcolor="#d1d1d1"
     inkscape:document-units="mm"
     showgrid="false"
     inkscape:zoom="3.3638608"
     inkscape:cx="95.723342"
     inkscape:cy="75.954391"
     inkscape:window-width="1280"
     inkscape:window-height="738"
     inkscape:window-x="-6"
     inkscape:window-y="-6"
     inkscape:window-maximized="1"
     inkscape:current-layer="layer1" />
  <defs
     id="defs1651">
    <inkscape:path-effect
       effect="powerstroke"
       id="path-effect2098"
       is_visible="true"
       lpeversion="1"
       offset_points="0.91009224,0.11867329"
       not_jump="true"
       sort_points="true"
       interpolator_type="CentripetalCatmullRom"
       interpolator_beta="0.75"
       start_linecap_type="round"
       linejoin_type="spiro"
       miter_limit="4"
       scale_width="1"
       end_linecap_type="round" />
    <inkscape:path-effect
       effect="simplify"
       id="path-effect2096"
       is_visible="true"
       lpeversion="1"
       steps="1"
       threshold="0.0032025118"
       smooth_angles="0"
       helper_size="0"
       simplify_individual_paths="false"
       simplify_just_coalesce="false"
       step="1" />
    <inkscape:path-effect
       effect="powerstroke"
       id="path-effect2091"
       is_visible="true"
       lpeversion="1"
       offset_points="2,0.11176028"
       not_jump="true"
       sort_points="true"
       interpolator_type="CentripetalCatmullRom"
       interpolator_beta="0.75"
       start_linecap_type="round"
       linejoin_type="spiro"
       miter_limit="4"
       scale_width="1"
       end_linecap_type="round" />
    <inkscape:path-effect
       effect="simplify"
       id="path-effect2089"
       is_visible="true"
       lpeversion="1"
       steps="1"
       threshold="0.0032025118"
       smooth_angles="0"
       helper_size="0"
       simplify_individual_paths="false"
       simplify_just_coalesce="false"
       step="1" />
    <inkscape:path-effect
       effect="powerstroke"
       id="path-effect2084"
       is_visible="true"
       lpeversion="1"
       offset_points="1.5,0.061448952"
       not_jump="true"
       sort_points="true"
       interpolator_type="CentripetalCatmullRom"
       interpolator_beta="0.75"
       start_linecap_type="round"
       linejoin_type="spiro"
       miter_limit="4"
       scale_width="1"
       end_linecap_type="round" />
    <inkscape:path-effect
       effect="simplify"
       id="path-effect2082"
       is_visible="true"
       lpeversion="1"
       steps="1"
       threshold="0.0032025118"
       smooth_angles="0"
       helper_size="0"
       simplify_individual_paths="false"
       simplify_just_coalesce="false"
       step="1" />
    <inkscape:path-effect
       effect="powerstroke"
       id="path-effect2077"
       is_visible="true"
       lpeversion="1"
       offset_points="1.5,0"
       not_jump="true"
       sort_points="true"
       interpolator_type="CentripetalCatmullRom"
       interpolator_beta="0.75"
       start_linecap_type="round"
       linejoin_type="spiro"
       miter_limit="4"
       scale_width="1"
       end_linecap_type="round" />
    <inkscape:path-effect
       effect="simplify"
       id="path-effect2075"
       is_visible="true"
       lpeversion="1"
       steps="1"
       threshold="0.0032025118"
       smooth_angles="0"
       helper_size="0"
       simplify_individual_paths="false"
       simplify_just_coalesce="false"
       step="1" />
    <inkscape:path-effect
       effect="powerstroke"
       id="path-effect2070"
       is_visible="true"
       lpeversion="1"
       offset_points="2.0755106,0.11713707"
       not_jump="true"
       sort_points="true"
       interpolator_type="CentripetalCatmullRom"
       interpolator_beta="0.75"
       start_linecap_type="round"
       linejoin_type="spiro"
       miter_limit="4"
       scale_width="1"
       end_linecap_type="round" />
    <inkscape:path-effect
       effect="simplify"
       id="path-effect2068"
       is_visible="true"
       lpeversion="1"
       steps="1"
       threshold="0.0032025118"
       smooth_angles="0"
       helper_size="0"
       simplify_individual_paths="false"
       simplify_just_coalesce="false"
       step="1" />
    <inkscape:path-effect
       effect="powerstroke"
       id="path-effect2063"
       is_visible="true"
       lpeversion="1"
       offset_points="3.271127,0.11905735"
       not_jump="true"
       sort_points="true"
       interpolator_type="CentripetalCatmullRom"
       interpolator_beta="0.75"
       start_linecap_type="round"
       linejoin_type="spiro"
       miter_limit="4"
       scale_width="1"
       end_linecap_type="round" />
    <inkscape:path-effect
       effect="simplify"
       id="path-effect2061"
       is_visible="true"
       lpeversion="1"
       steps="1"
       threshold="0.0032025118"
       smooth_angles="0"
       helper_size="0"
       simplify_individual_paths="false"
       simplify_just_coalesce="false"
       step="1" />
    <inkscape:path-effect
       effect="powerstroke"
       id="path-effect2056"
       is_visible="true"
       lpeversion="1"
       offset_points="2,0.10446322"
       not_jump="true"
       sort_points="true"
       interpolator_type="CentripetalCatmullRom"
       interpolator_beta="0.75"
       start_linecap_type="round"
       linejoin_type="spiro"
       miter_limit="4"
       scale_width="1"
       end_linecap_type="round" />
    <inkscape:path-effect
       effect="simplify"
       id="path-effect2054"
       is_visible="true"
       lpeversion="1"
       steps="1"
       threshold="0.0032025118"
       smooth_angles="0"
       helper_size="0"
       simplify_individual_paths="false"
       simplify_just_coalesce="false"
       step="1" />
    <inkscape:path-effect
       effect="powerstroke"
       id="path-effect2049"
       is_visible="true"
       lpeversion="1"
       offset_points="1.5,0.10791972"
       not_jump="true"
       sort_points="true"
       interpolator_type="CentripetalCatmullRom"
       interpolator_beta="0.75"
       start_linecap_type="round"
       linejoin_type="spiro"
       miter_limit="4"
       scale_width="1"
       end_linecap_type="round" />
    <inkscape:path-effect
       effect="simplify"
       id="path-effect2047"
       is_visible="true"
       lpeversion="1"
       steps="1"
       threshold="0.0032025118"
       smooth_angles="0"
       helper_size="0"
       simplify_individual_paths="false"
       simplify_just_coalesce="false"
       step="1" />
    <inkscape:path-effect
       effect="powerstroke"
       id="path-effect2042"
       is_visible="true"
       lpeversion="1"
       offset_points="1.5,0.11828923"
       not_jump="true"
       sort_points="true"
       interpolator_type="CentripetalCatmullRom"
       interpolator_beta="0.75"
       start_linecap_type="round"
       linejoin_type="spiro"
       miter_limit="4"
       scale_width="1"
       end_linecap_type="round" />
    <inkscape:path-effect
       effect="simplify"
       id="path-effect2040"
       is_visible="true"
       lpeversion="1"
       steps="1"
       threshold="0.0032025118"
       smooth_angles="0"
       helper_size="0"
       simplify_individual_paths="false"
       simplify_just_coalesce="false"
       step="1" />
    <inkscape:path-effect
       effect="powerstroke"
       id="path-effect1875"
       is_visible="true"
       lpeversion="1"
       offset_points="0.8900034,0.084492309"
       not_jump="true"
       sort_points="true"
       interpolator_type="CentripetalCatmullRom"
       interpolator_beta="0.75"
       start_linecap_type="round"
       linejoin_type="spiro"
       miter_limit="4"
       scale_width="1"
       end_linecap_type="round" />
    <inkscape:path-effect
       effect="simplify"
       id="path-effect1873"
       is_visible="true"
       lpeversion="1"
       steps="1"
       threshold="0.0032025118"
       smooth_angles="0"
       helper_size="0"
       simplify_individual_paths="false"
       simplify_just_coalesce="false"
       step="1" />
    <inkscape:path-effect
       effect="powerstroke"
       id="path-effect1868"
       is_visible="true"
       lpeversion="1"
       offset_points="0.5,0.12328196"
       not_jump="true"
       sort_points="true"
       interpolator_type="CentripetalCatmullRom"
       interpolator_beta="0.75"
       start_linecap_type="round"
       linejoin_type="spiro"
       miter_limit="4"
       scale_width="1"
       end_linecap_type="round" />
    <inkscape:path-effect
       effect="simplify"
       id="path-effect1866"
       is_visible="true"
       lpeversion="1"
       steps="1"
       threshold="0.0032025118"
       smooth_angles="0"
       helper_size="0"
       simplify_individual_paths="false"
       simplify_just_coalesce="false"
       step="1" />
    <inkscape:path-effect
       effect="powerstroke"
       id="path-effect1861"
       is_visible="true"
       lpeversion="1"
       offset_points="0.91782337,0.10907189"
       not_jump="true"
       sort_points="true"
       interpolator_type="CentripetalCatmullRom"
       interpolator_beta="0.75"
       start_linecap_type="round"
       linejoin_type="spiro"
       miter_limit="4"
       scale_width="1"
       end_linecap_type="round" />
    <inkscape:path-effect
       effect="simplify"
       id="path-effect1859"
       is_visible="true"
       lpeversion="1"
       steps="1"
       threshold="0.0032025118"
       smooth_angles="0"
       helper_size="0"
       simplify_individual_paths="false"
       simplify_just_coalesce="false"
       step="1" />
    <inkscape:path-effect
       effect="powerstroke"
       id="path-effect1854"
       is_visible="true"
       lpeversion="1"
       offset_points="0.88111943,0.092557484 | 2.568835,0.10907189"
       not_jump="true"
       sort_points="true"
       interpolator_type="CentripetalCatmullRom"
       interpolator_beta="0.75"
       start_linecap_type="round"
       linejoin_type="spiro"
       miter_limit="4"
       scale_width="1"
       end_linecap_type="round" />
    <inkscape:path-effect
       effect="simplify"
       id="path-effect1852"
       is_visible="true"
       lpeversion="1"
       steps="1"
       threshold="0.0032025118"
       smooth_angles="0"
       helper_size="0"
       simplify_individual_paths="false"
       simplify_just_coalesce="false"
       step="1" />
    <inkscape:path-effect
       effect="powerstroke"
       id="path-effect1847"
       is_visible="true"
       lpeversion="1"
       offset_points="1.7991154,0.09870238"
       not_jump="true"
       sort_points="true"
       interpolator_type="CentripetalCatmullRom"
       interpolator_beta="0.75"
       start_linecap_type="round"
       linejoin_type="spiro"
       miter_limit="4"
       scale_width="1"
       end_linecap_type="round" />
    <inkscape:path-effect
       effect="simplify"
       id="path-effect1845"
       is_visible="true"
       lpeversion="1"
       steps="1"
       threshold="0.0032025118"
       smooth_angles="0"
       helper_size="0"
       simplify_individual_paths="false"
       simplify_just_coalesce="false"
       step="1" />
    <inkscape:path-effect
       effect="powerstroke"
       id="path-effect1840"
       is_visible="true"
       lpeversion="1"
       offset_points="1.0981645,0.12251385"
       not_jump="true"
       sort_points="true"
       interpolator_type="CentripetalCatmullRom"
       interpolator_beta="0.75"
       start_linecap_type="round"
       linejoin_type="spiro"
       miter_limit="4"
       scale_width="1"
       end_linecap_type="round" />
    <inkscape:path-effect
       effect="simplify"
       id="path-effect1838"
       is_visible="true"
       lpeversion="1"
       steps="1"
       threshold="0.0032025118"
       smooth_angles="0"
       helper_size="0"
       simplify_individual_paths="false"
       simplify_just_coalesce="false"
       step="1" />
    <inkscape:path-effect
       effect="powerstroke"
       id="path-effect1833"
       is_visible="true"
       lpeversion="1"
       offset_points="0.50854192,0.11099217"
       not_jump="true"
       sort_points="true"
       interpolator_type="CentripetalCatmullRom"
       interpolator_beta="0.75"
       start_linecap_type="round"
       linejoin_type="spiro"
       miter_limit="4"
       scale_width="1"
       end_linecap_type="round" />
    <inkscape:path-effect
       effect="simplify"
       id="path-effect1831"
       is_visible="true"
       lpeversion="1"
       steps="1"
       threshold="0.0032025118"
       smooth_angles="0"
       helper_size="0"
       simplify_individual_paths="false"
       simplify_just_coalesce="false"
       step="1" />
    <inkscape:path-effect
       effect="powerstroke"
       id="path-effect1826"
       is_visible="true"
       lpeversion="1"
       offset_points="0.88580713,0.096013988 | 4.2350305,0.11444867"
       not_jump="true"
       sort_points="true"
       interpolator_type="CentripetalCatmullRom"
       interpolator_beta="0.75"
       start_linecap_type="round"
       linejoin_type="spiro"
       miter_limit="4"
       scale_width="1"
       end_linecap_type="round" />
    <inkscape:path-effect
       effect="simplify"
       id="path-effect1824"
       is_visible="true"
       lpeversion="1"
       steps="1"
       threshold="0.0032025118"
       smooth_angles="0"
       helper_size="0"
       simplify_individual_paths="false"
       simplify_just_coalesce="false"
       step="1" />
    <inkscape:path-effect
       effect="powerstroke"
       id="path-effect1819"
       is_visible="true"
       lpeversion="1"
       offset_points="0.67497639,0.10523133 | 2.3706701,0.11982546"
       not_jump="true"
       sort_points="true"
       interpolator_type="CentripetalCatmullRom"
       interpolator_beta="0.75"
       start_linecap_type="round"
       linejoin_type="spiro"
       miter_limit="4"
       scale_width="1"
       end_linecap_type="round" />
    <inkscape:path-effect
       effect="simplify"
       id="path-effect1817"
       is_visible="true"
       lpeversion="1"
       steps="1"
       threshold="0.0032025118"
       smooth_angles="0"
       helper_size="0"
       simplify_individual_paths="false"
       simplify_just_coalesce="false"
       step="1" />
    <inkscape:path-effect
       effect="powerstroke"
       id="path-effect1812"
       is_visible="true"
       lpeversion="1"
       offset_points="0.91758112,0.11752112 | 6.6245182,0.10446322"
       not_jump="true"
       sort_points="true"
       interpolator_type="CentripetalCatmullRom"
       interpolator_beta="0.75"
       start_linecap_type="round"
       linejoin_type="spiro"
       miter_limit="4"
       scale_width="1"
       end_linecap_type="round" />
    <inkscape:path-effect
       effect="simplify"
       id="path-effect1810"
       is_visible="true"
       lpeversion="1"
       steps="1"
       threshold="0.0032025118"
       smooth_angles="0"
       helper_size="0"
       simplify_individual_paths="false"
       simplify_just_coalesce="false"
       step="1" />
    <inkscape:path-effect
       effect="powerstroke"
       id="path-effect1805"
       is_visible="true"
       lpeversion="1"
       offset_points="1.0600273,0.080267694 | 4.3598286,0.093709652"
       not_jump="true"
       sort_points="true"
       interpolator_type="CentripetalCatmullRom"
       interpolator_beta="0.75"
       start_linecap_type="round"
       linejoin_type="spiro"
       miter_limit="4"
       scale_width="1"
       end_linecap_type="round" />
    <inkscape:path-effect
       effect="simplify"
       id="path-effect1803"
       is_visible="true"
       lpeversion="1"
       steps="1"
       threshold="0.0032025118"
       smooth_angles="0"
       helper_size="0"
       simplify_individual_paths="false"
       simplify_just_coalesce="false"
       step="1" />
    <inkscape:path-effect
       effect="powerstroke"
       id="path-effect1798"
       is_visible="true"
       lpeversion="1"
       offset_points="0.94819343,0.11828923"
       not_jump="true"
       sort_points="true"
       interpolator_type="CentripetalCatmullRom"
       interpolator_beta="0.75"
       start_linecap_type="round"
       linejoin_type="spiro"
       miter_limit="4"
       scale_width="1"
       end_linecap_type="round" />
    <inkscape:path-effect
       effect="simplify"
       id="path-effect1796"
       is_visible="true"
       lpeversion="1"
       steps="1"
       threshold="0.0032025118"
       smooth_angles="0"
       helper_size="0"
       simplify_individual_paths="false"
       simplify_just_coalesce="false"
       step="1" />
    <inkscape:path-effect
       effect="powerstroke"
       id="path-effect1791"
       is_visible="true"
       lpeversion="1"
       offset_points="0.5,0.056840281"
       not_jump="true"
       sort_points="true"
       interpolator_type="CentripetalCatmullRom"
       interpolator_beta="0.75"
       start_linecap_type="round"
       linejoin_type="spiro"
       miter_limit="4"
       scale_width="1"
       end_linecap_type="round" />
    <inkscape:path-effect
       effect="simplify"
       id="path-effect1789"
       is_visible="true"
       lpeversion="1"
       steps="1"
       threshold="0.0032025118"
       smooth_angles="0"
       helper_size="0"
       simplify_individual_paths="false"
       simplify_just_coalesce="false"
       step="1" />
    <inkscape:path-effect
       effect="powerstroke"
       id="path-effect1784"
       is_visible="true"
       lpeversion="1"
       offset_points="0.71584806,0.075659023 | 1.871197,0.097934268"
       not_jump="true"
       sort_points="true"
       interpolator_type="CentripetalCatmullRom"
       interpolator_beta="0.75"
       start_linecap_type="round"
       linejoin_type="spiro"
       miter_limit="4"
       scale_width="1"
       end_linecap_type="round" />
    <inkscape:path-effect
       effect="simplify"
       id="path-effect1782"
       is_visible="true"
       lpeversion="1"
       steps="1"
       threshold="0.0032025118"
       smooth_angles="0"
       helper_size="0"
       simplify_individual_paths="false"
       simplify_just_coalesce="false"
       step="1" />
    <inkscape:path-effect
       effect="powerstroke"
       id="path-effect1777"
       is_visible="true"
       lpeversion="1"
       offset_points="0.92239403,0.12059357"
       not_jump="true"
       sort_points="true"
       interpolator_type="CentripetalCatmullRom"
       interpolator_beta="0.75"
       start_linecap_type="round"
       linejoin_type="spiro"
       miter_limit="4"
       scale_width="1"
       end_linecap_type="round" />
    <inkscape:path-effect
       effect="simplify"
       id="path-effect1775"
       is_visible="true"
       lpeversion="1"
       steps="1"
       threshold="0.0032025118"
       smooth_angles="0"
       helper_size="0"
       simplify_individual_paths="false"
       simplify_just_coalesce="false"
       step="1" />
    <inkscape:path-effect
       effect="powerstroke"
       id="path-effect1770"
       is_visible="true"
       lpeversion="1"
       offset_points="0.86364136,0.11521679"
       not_jump="true"
       sort_points="true"
       interpolator_type="CentripetalCatmullRom"
       interpolator_beta="0.75"
       start_linecap_type="round"
       linejoin_type="spiro"
       miter_limit="4"
       scale_width="1"
       end_linecap_type="round" />
    <inkscape:path-effect
       effect="simplify"
       id="path-effect1768"
       is_visible="true"
       lpeversion="1"
       steps="1"
       threshold="0.0032025118"
       smooth_angles="0"
       helper_size="0"
       simplify_individual_paths="false"
       simplify_just_coalesce="false"
       step="1" />
    <inkscape:path-effect
       effect="powerstroke"
       id="path-effect1763"
       is_visible="true"
       lpeversion="1"
       offset_points="0.35504994,0.10215888 | 2.0399014,0.11636895"
       not_jump="true"
       sort_points="true"
       interpolator_type="CentripetalCatmullRom"
       interpolator_beta="0.75"
       start_linecap_type="round"
       linejoin_type="spiro"
       miter_limit="4"
       scale_width="1"
       end_linecap_type="round" />
    <inkscape:path-effect
       effect="simplify"
       id="path-effect1761"
       is_visible="true"
       lpeversion="1"
       steps="1"
       threshold="0.0032025118"
       smooth_angles="0"
       helper_size="0"
       simplify_individual_paths="false"
       simplify_just_coalesce="false"
       step="1" />
    <inkscape:path-effect
       effect="powerstroke"
       id="path-effect1756"
       is_visible="true"
       lpeversion="1"
       offset_points="0.96467005,0.098318324"
       not_jump="true"
       sort_points="true"
       interpolator_type="CentripetalCatmullRom"
       interpolator_beta="0.75"
       start_linecap_type="round"
       linejoin_type="spiro"
       miter_limit="4"
       scale_width="1"
       end_linecap_type="round" />
    <inkscape:path-effect
       effect="simplify"
       id="path-effect1754"
       is_visible="true"
       lpeversion="1"
       steps="1"
       threshold="0.0032025118"
       smooth_angles="0"
       helper_size="0"
       simplify_individual_paths="false"
       simplify_just_coalesce="false"
       step="1" />
    <inkscape:path-effect
       effect="powerstroke"
       id="path-effect1749"
       is_visible="true"
       lpeversion="1"
       offset_points="0.54099165,0.12750658"
       not_jump="true"
       sort_points="true"
       interpolator_type="CentripetalCatmullRom"
       interpolator_beta="0.75"
       start_linecap_type="round"
       linejoin_type="spiro"
       miter_limit="4"
       scale_width="1"
       end_linecap_type="round" />
    <inkscape:path-effect
       effect="simplify"
       id="path-effect1747"
       is_visible="true"
       lpeversion="1"
       steps="1"
       threshold="0.0032025118"
       smooth_angles="0"
       helper_size="0"
       simplify_individual_paths="false"
       simplify_just_coalesce="false"
       step="1" />
    <inkscape:path-effect
       effect="powerstroke"
       id="path-effect1742"
       is_visible="true"
       lpeversion="1"
       offset_points="0.43245548,0.13365147 | 1.5181221,0.15054993"
       not_jump="true"
       sort_points="true"
       interpolator_type="CentripetalCatmullRom"
       interpolator_beta="0.75"
       start_linecap_type="round"
       linejoin_type="spiro"
       miter_limit="4"
       scale_width="1"
       end_linecap_type="round" />
    <inkscape:path-effect
       effect="simplify"
       id="path-effect1740"
       is_visible="true"
       lpeversion="1"
       steps="1"
       threshold="0.0032025118"
       smooth_angles="0"
       helper_size="0"
       simplify_individual_paths="false"
       simplify_just_coalesce="false"
       step="1" />
    <inkscape:path-effect
       effect="powerstroke"
       id="path-effect1735"
       is_visible="true"
       lpeversion="1"
       offset_points="0.96531845,0.12328196"
       not_jump="true"
       sort_points="true"
       interpolator_type="CentripetalCatmullRom"
       interpolator_beta="0.75"
       start_linecap_type="round"
       linejoin_type="spiro"
       miter_limit="4"
       scale_width="1"
       end_linecap_type="round" />
    <inkscape:path-effect
       effect="simplify"
       id="path-effect1733"
       is_visible="true"
       lpeversion="1"
       steps="1"
       threshold="0.0032025118"
       smooth_angles="0"
       helper_size="0"
       simplify_individual_paths="false"
       simplify_just_coalesce="false"
       step="1" />
    <inkscape:path-effect
       effect="powerstroke"
       id="path-effect1728"
       is_visible="true"
       lpeversion="1"
       offset_points="1.0657017,0.09870238 | 7.1401499,0.11905735"
       not_jump="true"
       sort_points="true"
       interpolator_type="CentripetalCatmullRom"
       interpolator_beta="0.75"
       start_linecap_type="round"
       linejoin_type="spiro"
       miter_limit="4"
       scale_width="1"
       end_linecap_type="round" />
    <inkscape:path-effect
       effect="simplify"
       id="path-effect1726"
       is_visible="true"
       lpeversion="1"
       steps="1"
       threshold="0.0032025118"
       smooth_angles="0"
       helper_size="0"
       simplify_individual_paths="false"
       simplify_just_coalesce="false"
       step="1" />
    <inkscape:path-effect
       effect="powerstroke"
       id="path-effect1721"
       is_visible="true"
       lpeversion="1"
       offset_points="0.73894878,0.11560084 | 3.2466845,0.13365147"
       not_jump="true"
       sort_points="true"
       interpolator_type="CentripetalCatmullRom"
       interpolator_beta="0.75"
       start_linecap_type="round"
       linejoin_type="spiro"
       miter_limit="4"
       scale_width="1"
       end_linecap_type="round" />
    <inkscape:path-effect
       effect="simplify"
       id="path-effect1719"
       is_visible="true"
       lpeversion="1"
       steps="1"
       threshold="0.0032025118"
       smooth_angles="0"
       helper_size="0"
       simplify_individual_paths="false"
       simplify_just_coalesce="false"
       step="1" />
    <inkscape:path-effect
       effect="powerstroke"
       id="path-effect1714"
       is_visible="true"
       lpeversion="1"
       offset_points="1.5210772,0.11867329 | 3.5738232,0.14133259"
       not_jump="true"
       sort_points="true"
       interpolator_type="CentripetalCatmullRom"
       interpolator_beta="0.75"
       start_linecap_type="round"
       linejoin_type="spiro"
       miter_limit="4"
       scale_width="1"
       end_linecap_type="round" />
    <inkscape:path-effect
       effect="simplify"
       id="path-effect1712"
       is_visible="true"
       lpeversion="1"
       steps="1"
       threshold="0.0032025118"
       smooth_angles="0"
       helper_size="0"
       simplify_individual_paths="false"
       simplify_just_coalesce="false"
       step="1" />
    <inkscape:path-effect
       effect="powerstroke"
       id="path-effect1707"
       is_visible="true"
       lpeversion="1"
       offset_points="0.50435284,0.1228979 | 2.6585411,0.13749203"
       not_jump="true"
       sort_points="true"
       interpolator_type="CentripetalCatmullRom"
       interpolator_beta="0.75"
       start_linecap_type="round"
       linejoin_type="spiro"
       miter_limit="4"
       scale_width="1"
       end_linecap_type="round" />
    <inkscape:path-effect
       effect="simplify"
       id="path-effect1705"
       is_visible="true"
       lpeversion="1"
       steps="1"
       threshold="0.0032025118"
       smooth_angles="0"
       helper_size="0"
       simplify_individual_paths="false"
       simplify_just_coalesce="false"
       step="1" />
    <inkscape:path-effect
       effect="powerstroke"
       id="path-effect1700"
       is_visible="true"
       lpeversion="1"
       offset_points="0.64527218,0.11060811 | 2.3261903,0.12443413"
       not_jump="true"
       sort_points="true"
       interpolator_type="CentripetalCatmullRom"
       interpolator_beta="0.75"
       start_linecap_type="round"
       linejoin_type="spiro"
       miter_limit="4"
       scale_width="1"
       end_linecap_type="round" />
    <inkscape:path-effect
       effect="simplify"
       id="path-effect1698"
       is_visible="true"
       lpeversion="1"
       steps="1"
       threshold="0.0032025118"
       smooth_angles="0"
       helper_size="0"
       simplify_individual_paths="false"
       simplify_just_coalesce="false"
       step="1" />
    <inkscape:path-effect
       effect="powerstroke"
       id="path-effect1693"
       is_visible="true"
       lpeversion="1"
       offset_points="1.1597273,0.1159849 | 3.5661901,0.13749203"
       not_jump="true"
       sort_points="true"
       interpolator_type="CentripetalCatmullRom"
       interpolator_beta="0.75"
       start_linecap_type="round"
       linejoin_type="spiro"
       miter_limit="4"
       scale_width="1"
       end_linecap_type="round" />
    <inkscape:path-effect
       effect="simplify"
       id="path-effect1691"
       is_visible="true"
       lpeversion="1"
       steps="1"
       threshold="0.0032025118"
       smooth_angles="0"
       helper_size="0"
       simplify_individual_paths="false"
       simplify_just_coalesce="false"
       step="1" />
    <inkscape:path-effect
       effect="powerstroke"
       id="path-effect1686"
       is_visible="true"
       lpeversion="1"
       offset_points="0.39815907,0.11905735 | 2.5885633,0.13979637"
       not_jump="true"
       sort_points="true"
       interpolator_type="CentripetalCatmullRom"
       interpolator_beta="0.75"
       start_linecap_type="round"
       linejoin_type="spiro"
       miter_limit="4"
       scale_width="1"
       end_linecap_type="round" />
    <inkscape:path-effect
       effect="simplify"
       id="path-effect1684"
       is_visible="true"
       lpeversion="1"
       steps="1"
       threshold="0.0032025118"
       smooth_angles="0"
       helper_size="0"
       simplify_individual_paths="false"
       simplify_just_coalesce="false"
       step="1" />
    <inkscape:path-effect
       effect="powerstroke"
       id="path-effect1679"
       is_visible="true"
       lpeversion="1"
       offset_points="0.25301383,0.10561539 | 0.980065,0.11982546"
       not_jump="true"
       sort_points="true"
       interpolator_type="CentripetalCatmullRom"
       interpolator_beta="0.75"
       start_linecap_type="round"
       linejoin_type="spiro"
       miter_limit="4"
       scale_width="1"
       end_linecap_type="round" />
    <inkscape:path-effect
       effect="simplify"
       id="path-effect1677"
       is_visible="true"
       lpeversion="1"
       steps="1"
       threshold="0.0032025118"
       smooth_angles="0"
       helper_size="0"
       simplify_individual_paths="false"
       simplify_just_coalesce="false"
       step="1" />
    <inkscape:path-effect
       effect="powerstroke"
       id="path-effect1672"
       is_visible="true"
       lpeversion="1"
       offset_points="0.32330574,0.095629932"
       not_jump="true"
       sort_points="true"
       interpolator_type="CentripetalCatmullRom"
       interpolator_beta="0.75"
       start_linecap_type="round"
       linejoin_type="spiro"
       miter_limit="4"
       scale_width="1"
       end_linecap_type="round" />
    <inkscape:path-effect
       effect="simplify"
       id="path-effect1670"
       is_visible="true"
       lpeversion="1"
       steps="1"
       threshold="0.0032025118"
       smooth_angles="0"
       helper_size="0"
       simplify_individual_paths="false"
       simplify_just_coalesce="false"
       step="1" />
    <inkscape:path-effect
       effect="powerstroke"
       id="path-effect1665"
       is_visible="true"
       lpeversion="1"
       offset_points="1.2781698,0.11521679"
       not_jump="true"
       sort_points="true"
       interpolator_type="CentripetalCatmullRom"
       interpolator_beta="0.75"
       start_linecap_type="round"
       linejoin_type="spiro"
       miter_limit="4"
       scale_width="1"
       end_linecap_type="round" />
    <inkscape:path-effect
       effect="simplify"
       id="path-effect1663"
       is_visible="true"
       lpeversion="1"
       steps="1"
       threshold="0.0032025118"
       smooth_angles="0"
       helper_size="0"
       simplify_individual_paths="false"
       simplify_just_coalesce="false"
       step="1" />
  </defs>
  <g
     inkscape:label="Layer 1"
     inkscape:groupmode="layer"
     id="layer1">
    <path
       d="m 8.7432982,14.744281 c -0.04153,-0.07882 -0.1201169,-0.236134 -0.1718681,-0.422633 -0.038757,-0.139672 -0.060576,-0.287633 -0.052639,-0.438985 0.0034,-0.07673 0.014446,-0.14948 0.030412,-0.218266 0.012373,-0.0533 0.029031,-0.109944 0.051048,-0.169883 0.044406,-0.12089 0.1060195,-0.242693 0.1830163,-0.364668 0.1776762,-0.282597 0.4480102,-0.59316 0.5352439,-0.696193 A 0.11521679,0.11521679 90 0 0 9.142645,12.284755 c -0.082086,0.09695 -0.3659102,0.422552 -0.5543464,0.722263 -0.08411,0.133243 -0.1534911,0.269586 -0.2043498,0.408042 -0.02526,0.06877 -0.044659,0.134539 -0.059212,0.197235 -0.018758,0.08081 -0.032049,0.167645 -0.036108,0.259232 -0.00946,0.18028 0.016845,0.353482 0.060758,0.511735 0.058307,0.210126 0.1458186,0.384494 0.1900447,0.468433 a 0.11521679,0.11521679 90 0 0 0.203867,-0.107414 z"
       id="path-1"
       inkscape:path-effect="#path-effect1663;#path-effect1665"
       inkscape:original-d="M 8.6413647,14.797988 C 8.0996526,13.765326 8.5558741,13.152449 9.2305782,12.359204"
       style="fill:#e9afaf;fill-rule:nonzero;stroke:none;stroke-width:18.8976" />
    <path
       d="m 9.2213068,12.344702 c -0.00451,-0.06378 -0.012296,-0.214393 0.020299,-0.412413 0.00969,-0.05888 0.024901,-0.134207 0.049753,-0.221816 0.04832,-0.170341 0.1295116,-0.374025 0.2632779,-0.590445 0.1118494,-0.179344 0.254839,-0.357621 0.42957,-0.512241 0.1686766,-0.149263 0.3575866,-0.268147 0.5621636,-0.346623 0.380951,-0.14719 0.709378,-0.09245 0.871893,-0.04703 a 0.09562993,0.09562993 90 0 0 0.05148,-0.1842 c -0.18755,-0.052421 -0.560764,-0.1139177 -0.992093,0.05274 -0.227976,0.08745 -0.436267,0.219121 -0.6201948,0.38188 -0.1903589,0.168449 -0.3448747,0.361474 -0.4653116,0.554589 -0.1440205,0.233009 -0.2320416,0.453183 -0.2847894,0.639134 -0.027127,0.09563 -0.043804,0.17813 -0.054473,0.242947 -0.035939,0.218341 -0.027432,0.385296 -0.022362,0.456973 a 0.09562993,0.09562993 90 0 0 0.1907832,-0.0135 z"
       id="path-1-3"
       inkscape:path-effect="#path-effect1670;#path-effect1672"
       inkscape:original-d="M 9.1259152,12.35145 C 9.0383757,11.188908 10.185574,9.7787543 11.444005,10.122037"
       style="fill:#e9afaf;fill-rule:nonzero;stroke:none;stroke-width:18.8976" />
    <path
       d="m 11.595557,9.9567258 c 0.08807,-0.07825 0.259452,-0.227842 0.483655,-0.3873114 0.390371,-0.2776606 0.936663,-0.5827558 1.594982,-0.7446721 0.01544,-0.0038 0.03113,-0.00756 0.04708,-0.011287 0.890604,-0.2135915 1.71137,-0.085576 2.260205,0.070671 a 0.11982546,0.11982546 90 0 0 0.06562,-0.2304924 c -0.56934,-0.1620851 -1.441199,-0.3065312 -2.381966,-0.073537 -0.01617,0.00389 -0.03278,0.00801 -0.04911,0.012163 -0.695905,0.1769447 -1.259541,0.5159834 -1.659926,0.8055145 -0.232062,0.1678123 -0.408966,0.3194225 -0.500833,0.401042 a 0.10561539,0.10561539 90 0 0 0.140296,0.1579102 z"
       id="path-1-31"
       inkscape:path-effect="#path-effect1677;#path-effect1679"
       inkscape:original-d="M 11.525409,9.8777707 C 12.825391,8.728104 14.323398,8.2941427 16.014285,8.76888"
       style="fill:#e9afaf;fill-rule:nonzero;stroke:none;stroke-width:18.8976" />
    <path
       d="m 16.066143,8.8964439 c 0.103387,-0.037117 0.346525,-0.1210607 0.658924,-0.1661147 0.228807,-0.032998 0.59843,-0.060782 1.015764,0.028919 0.542802,0.113085 1.041837,0.399074 1.440151,0.7834428 0.01615,0.018656 0.03015,0.034987 0.03906,0.044564 0.01297,0.01395 0.02427,0.02395 0.02909,0.028774 a 0.13979637,0.13979637 90 0 0 0.197722,-0.197682 c -0.0052,-0.00519 -0.01604,-0.017305 -0.03134,-0.030996 -0.01071,-0.00959 -0.02822,-0.023889 -0.04893,-0.040074 C 18.93173,8.9374014 18.385935,8.6325282 17.790805,8.5158195 17.334691,8.4232647 16.934425,8.4582224 16.690423,8.4947479 16.35607,8.5447983 16.095624,8.632865 15.985685,8.6723341 a 0.11905735,0.11905735 90 0 0 0.08046,0.2241098 z"
       id="path-1-1"
       inkscape:path-effect="#path-effect1684;#path-effect1686"
       inkscape:original-d="M 16.025914,8.784389 C 17.27304,8.3412287 18.453257,8.6222581 19.347993,9.5171873"
       style="fill:#e9afaf;fill-rule:nonzero;stroke:none;stroke-width:18.8976" />
    <path
       d="m 19.377809,9.5228887 c 0.226346,-0.1394152 0.564961,-0.3107714 1.10911,-0.458722 0.07442,-0.019432 0.149782,-0.037509 0.224919,-0.053716 0.323891,-0.069864 0.753584,-0.1293151 1.201035,-0.068982 0.162117,0.022839 0.322995,0.064895 0.469811,0.1304126 0.15549,0.069389 0.283289,0.1597043 0.383009,0.2678451 0.03039,0.035407 0.05306,0.066327 0.06907,0.088377 0.02341,0.032247 0.04137,0.058217 0.04897,0.070108 a 0.13749203,0.13749203 90 0 0 0.23166,-0.1481562 c -0.0096,-0.015027 -0.03054,-0.048893 -0.06183,-0.088508 -0.02121,-0.026855 -0.05321,-0.063829 -0.09474,-0.1043079 -0.129217,-0.1349361 -0.28962,-0.2416501 -0.47453,-0.3198034 -0.173864,-0.073485 -0.358969,-0.1173029 -0.539967,-0.1393198 -0.487761,-0.059252 -0.946996,0.011337 -1.282103,0.08573 -0.07842,0.01741 -0.156818,0.036599 -0.235201,0.057362 -0.566438,0.1565092 -0.924761,0.3325786 -1.170875,0.4841695 a 0.1159849,0.1159849 90 0 0 0.121654,0.1975102 z"
       id="path-1-10"
       inkscape:path-effect="#path-effect1691;#path-effect1693"
       inkscape:original-d="m 19.316982,9.4241336 c 0.851376,-0.5365609 2.983137,-1.093121 3.682583,0"
       style="fill:#e9afaf;fill-rule:nonzero;stroke:none;stroke-width:18.8976" />
    <path
       d="m 22.940277,9.5252643 c 0.09935,0.063083 0.261606,0.1810038 0.428128,0.3935024 0.03505,0.044723 0.06852,0.09138 0.100363,0.1397533 0.06668,0.101307 0.135693,0.224714 0.199575,0.371853 0.08861,0.207074 0.157834,0.4387 0.19103,0.683739 0.03344,0.246838 0.02702,0.482776 -0.01405,0.701657 -0.02272,0.11978 -0.05629,0.223768 -0.09187,0.310395 -0.02195,0.05343 -0.04665,0.105084 -0.07403,0.154617 -0.108048,0.195493 -0.232385,0.312048 -0.308223,0.373092 a 0.12443413,0.12443413 90 0 0 0.156048,0.193866 c 0.09329,-0.07509 0.243496,-0.214622 0.370918,-0.446411 0.03211,-0.05842 0.06079,-0.119107 0.08588,-0.181562 0.04069,-0.101277 0.0779,-0.222211 0.101891,-0.360373 0.04339,-0.24633 0.04659,-0.508394 0.0064,-0.778459 -0.03983,-0.26782 -0.11856,-0.518402 -0.217027,-0.741396 C 23.803697,10.180519 23.727185,10.047163 23.653125,9.936254 23.617802,9.8833552 23.580684,9.8320558 23.54172,9.7825863 23.355713,9.5464296 23.174161,9.411725 23.058853,9.3385119 a 0.11060811,0.11060811 90 0 0 -0.118576,0.1867524 z"
       id="path-1-17"
       inkscape:path-effect="#path-effect1698;#path-effect1700"
       inkscape:original-d="m 22.999565,9.4318881 c 0.987497,0.6197959 1.433943,2.5157799 0.449663,3.3189179"
       style="fill:#e9afaf;fill-rule:nonzero;stroke:none;stroke-width:18.8976" />
    <path
       d="m 23.810912,12.16263 c 0.08456,0.05688 0.262921,0.185084 0.427515,0.39851 0.001,0.0013 0.0021,0.0027 0.0031,0.004 0.0867,0.113106 0.196236,0.285042 0.266084,0.508811 0.07177,0.223227 0.104225,0.464644 0.101749,0.726783 -0.0024,0.254953 -0.03767,0.50902 -0.08509,0.747479 -0.09951,0.498154 -0.277066,1.01333 -0.356542,1.246651 -0.104488,0.306748 -0.184476,0.53764 -0.220855,0.645883 a 0.13749203,0.13749203 90 0 0 0.260656,0.0876 c 0.0604,-0.179704 0.160249,-0.46556 0.220646,-0.645265 0.07825,-0.232305 0.257784,-0.763329 0.357737,-1.283917 0.04706,-0.249208 0.0825,-0.520845 0.0824,-0.797312 -1.03e-4,-0.285149 -0.03798,-0.553821 -0.121297,-0.80518 -0.08364,-0.257766 -0.211903,-0.453996 -0.310846,-0.581633 -0.0012,-0.0015 -0.0024,-0.0031 -0.0036,-0.0046 -0.188174,-0.241343 -0.388853,-0.38747 -0.484511,-0.45182 a 0.1228979,0.1228979 90 0 0 -0.137194,0.203946 z"
       id="path-1-4"
       inkscape:path-effect="#path-effect1705;#path-effect1707"
       inkscape:original-d="m 23.879509,12.060657 c 1.521845,1.045575 0.649983,3.066779 0.197697,4.423931"
       style="fill:#e9afaf;fill-rule:nonzero;stroke:none;stroke-width:18.8976" />
    <path
       d="m 23.85408,16.611846 c 0.0063,0.105557 0.01853,0.328502 1.76e-4,0.555112 -0.01383,0.170687 -0.04481,0.351139 -0.109231,0.527601 -0.04661,0.129661 -0.113071,0.245938 -0.190188,0.346849 -0.06791,0.08887 -0.153615,0.178074 -0.258176,0.259534 -0.138932,0.109849 -0.291826,0.203235 -0.45635,0.290142 -0.1656,0.08748 -0.343585,0.16842 -0.502056,0.241653 -0.04813,0.01933 -0.09055,0.0365 -0.120207,0.04943 -0.04079,0.01778 -0.07347,0.03414 -0.08818,0.04097 a 0.14133259,0.14133259 90 0 0 0.11906,0.256368 c 0.01452,-0.0067 0.04848,-0.02132 0.08833,-0.04104 0.02882,-0.01426 0.07008,-0.03606 0.116571,-0.06108 0.154968,-0.07589 0.338403,-0.164506 0.509473,-0.259898 0.171256,-0.09549 0.335691,-0.200443 0.487354,-0.325166 0.118665,-0.09758 0.215893,-0.203328 0.293803,-0.30816 0.08841,-0.118965 0.166154,-0.256048 0.22126,-0.409749 0.07325,-0.201031 0.107741,-0.403119 0.12331,-0.588045 0.0206,-0.244662 0.0084,-0.481485 0.002,-0.588648 a 0.11867329,0.11867329 90 0 0 -0.236926,0.01413 z"
       id="path-1-7"
       inkscape:path-effect="#path-effect1712;#path-effect1714"
       inkscape:original-d="m 23.972543,16.604782 c 0.100286,1.574408 -0.574006,1.885031 -1.783146,2.446539"
       style="fill:#e9afaf;fill-rule:nonzero;stroke:none;stroke-width:18.8976" />
    <path
       d="m 21.99241,19.126802 c -8.7e-4,0.04874 -0.003,0.166562 -0.02634,0.282961 -0.0083,0.04155 -0.01936,0.08352 -0.03407,0.12469 -0.01351,0.0378 -0.03207,0.08036 -0.05806,0.123451 -0.05431,0.09033 -0.15067,0.17458 -0.281911,0.216946 -0.08982,0.03028 -0.183363,0.04536 -0.278203,0.05274 -0.103589,0.0081 -0.21248,0.007 -0.302654,0.0058 -0.06124,-0.0011 -0.127733,-0.0031 -0.176971,-0.0045 -0.286143,-0.0082 -0.415507,-0.0064 -0.562355,0.005 a 0.13365147,0.13365147 90 0 0 0.02073,0.266498 c 0.08665,-0.0067 0.298258,-0.0087 0.535286,-0.0043 0.05043,9.48e-4 0.116192,0.002 0.181783,0.002 0.09039,-6.12e-4 0.210422,-0.002 0.327643,-0.01409 0.108218,-0.01118 0.223349,-0.0321 0.337326,-0.07392 0.185556,-0.06788 0.322976,-0.194993 0.401459,-0.334565 0.03385,-0.05887 0.05745,-0.116172 0.07418,-0.164835 0.01828,-0.05318 0.03165,-0.105788 0.04161,-0.156015 0.0274,-0.138249 0.03083,-0.274017 0.03172,-0.32382 a 0.11560084,0.11560084 90 0 0 -0.231164,-0.0041 z"
       id="path-1-8"
       inkscape:path-effect="#path-effect1719;#path-effect1721"
       inkscape:original-d="m 22.107992,19.128865 c -0.01603,1.218142 -0.999974,0.873083 -1.825786,0.938293"
       style="fill:#e9afaf;fill-rule:nonzero;stroke:none;stroke-width:18.8976" />
    <path
       d="m 20.245646,20.201878 c -0.0049,0.10033 -0.0032,0.238149 0.02546,0.439349 0.01955,0.137158 0.0439,0.257046 0.07546,0.420582 0.0097,0.04707 0.01948,0.09334 0.02959,0.140095 0.05498,0.254308 0.12998,0.561299 0.208436,0.910653 0.06906,0.307514 0.145095,0.673226 0.185989,1.04599 0.01086,0.123098 0.02097,0.260678 0.01666,0.395175 -0.004,0.125258 -0.02049,0.251354 -0.06146,0.372302 -0.0077,0.01891 -0.01712,0.04172 -0.02752,0.06336 -0.01024,0.02131 -0.02083,0.04015 -0.03217,0.0561 -0.0112,0.01574 -0.02224,0.02739 -0.03312,0.03567 -0.01044,0.0079 -0.0212,0.01318 -0.0333,0.01612 -0.0091,0.0012 -0.02563,8.18e-4 -0.04286,-0.0025 -0.01761,-0.0034 -0.03649,-0.01001 -0.05688,-0.01992 -0.04258,-0.0207 -0.08486,-0.05227 -0.129147,-0.08764 -0.109884,-0.09345 -0.209189,-0.2028 -0.299616,-0.315758 -0.09587,-0.119755 -0.1854,-0.248381 -0.26701,-0.366829 -0.319813,-0.479137 -0.54487,-0.897905 -0.703526,-1.229194 -0.0024,-0.0056 -0.0058,-0.01325 -0.0087,-0.01967 -0.03178,-0.07113 -0.04093,-0.09372 -0.04867,-0.11933 a 0.11905735,0.11905735 90 0 0 -0.227922,0.06892 c 0.01175,0.03886 0.0253,0.07563 0.06016,0.149682 0.0026,0.0055 0.0074,0.01557 0.0099,0.02103 0.165061,0.341973 0.397518,0.769819 0.727518,1.259092 0.08341,0.119191 0.178187,0.253339 0.280802,0.379489 0.09713,0.119411 0.207391,0.239517 0.33575,0.346773 0.04883,0.03747 0.109019,0.08206 0.176705,0.113144 0.03409,0.01565 0.07187,0.02878 0.112735,0.03564 0.04106,0.0069 0.08462,0.0073 0.129677,-0.0018 0.0506,-0.01366 0.08745,-0.03408 0.118448,-0.05922 0.03082,-0.025 0.05514,-0.05407 0.07463,-0.08296 0.01967,-0.02917 0.03535,-0.05955 0.04815,-0.08782 0.01299,-0.02867 0.02389,-0.05717 0.03299,-0.08163 0.04989,-0.151305 0.06693,-0.299236 0.07018,-0.43738 0.0035,-0.147722 -0.0089,-0.295678 -0.02102,-0.421373 -0.04352,-0.386086 -0.1227,-0.760601 -0.192894,-1.06942 -0.08005,-0.352176 -0.15535,-0.657414 -0.210056,-0.908562 -0.01006,-0.04617 -0.01978,-0.0918 -0.02917,-0.137043 -0.0321,-0.163394 -0.05562,-0.279334 -0.07406,-0.409455 -0.02676,-0.188748 -0.02737,-0.313988 -0.02303,-0.401945 a 0.09870238,0.09870238 90 0 0 -0.197166,-0.0097 z"
       id="path-1-5"
       inkscape:path-effect="#path-effect1726;#path-effect1728"
       inkscape:original-d="m 20.344229,20.206738 c -0.06094,0.860017 0.89023,3.164857 0.410898,3.896626 -0.420091,0.64133 -1.760735,-1.884421 -1.825786,-2.132482"
       style="fill:#e9afaf;fill-rule:nonzero;stroke:none;stroke-width:18.8976" />
    <path
       d="m 18.806258,21.747133 c -0.199317,-0.05352 -0.587015,-0.167839 -1.002748,-0.381197 -0.288886,-0.148258 -0.567082,-0.331385 -0.817841,-0.556443 -0.01794,-0.0161 -0.03612,-0.03276 -0.05447,-0.04996 -0.431684,-0.399025 -0.81797,-0.967857 -1.086298,-1.728379 -0.07979,-0.223833 -0.133691,-0.417125 -0.161205,-0.519692 a 0.12328196,0.12328196 90 0 0 -0.238144,0.06388 c 0.02833,0.105592 0.08417,0.305964 0.166967,0.538223 0.28012,0.793946 0.687208,1.398029 1.150687,1.826439 0.01906,0.01787 0.03854,0.03572 0.05777,0.05298 0.268708,0.241168 0.565039,0.435826 0.869952,0.59231 0.438005,0.224787 0.844656,0.344448 1.051381,0.399962 a 0.12328196,0.12328196 90 0 0 0.06395,-0.238128 z"
       id="path-1-15"
       inkscape:path-effect="#path-effect1733;#path-effect1735"
       inkscape:original-d="M 18.774285,21.866197 C 16.977071,21.378136 16.031043,20.282252 15.564622,18.543402"
       style="fill:#e9afaf;fill-rule:nonzero;stroke:none;stroke-width:18.8976" />
    <path
       d="m 15.367577,18.336353 c -0.1092,-0.09167 -0.284717,-0.224176 -0.546233,-0.369093 -0.0282,-0.01563 -0.05817,-0.03185 -0.09003,-0.04859 -0.201079,-0.105681 -0.423492,-0.20393 -0.687488,-0.302324 -0.238787,-0.08934 -0.617991,-0.216593 -0.780598,-0.273205 -6.4e-5,-2.3e-5 -0.0279,-0.0097 -0.02796,-0.0098 -0.351418,-0.12281 -0.55532,-0.207013 -0.722427,-0.286765 a 0.15054993,0.15054993 90 0 0 -0.129688,0.27174 c 0.174873,0.08346 0.397036,0.17871 0.754136,0.299737 0.0094,0.0032 0.01891,0.0064 0.02859,0.0097 0.214778,0.07218 0.501251,0.159168 0.781299,0.256902 0.256495,0.08835 0.471818,0.177118 0.660981,0.272756 0.0301,0.01522 0.05836,0.03002 0.08483,0.04432 0.243484,0.13156 0.405478,0.257716 0.502728,0.339354 a 0.13365147,0.13365147 90 0 0 0.171864,-0.204728 z"
       id="path-1-6"
       inkscape:path-effect="#path-effect1740;#path-effect1742"
       inkscape:original-d="M 15.281645,18.438717 C 14.448582,17.744016 13.387001,17.630422 12.447994,17.182491"
       style="fill:#e9afaf;fill-rule:nonzero;stroke:none;stroke-width:18.8976" />
    <path
       d="m 12.248886,16.92045 c -0.09449,0.04587 -0.275599,0.12206 -0.54611,0.152739 -0.01552,0.0018 -0.03124,0.0034 -0.04715,0.0048 -0.135218,0.0122 -0.313911,0.01511 -0.534907,-0.01248 C 10.647312,17.003794 10.151476,16.83228 9.6919492,16.536563 9.4540105,16.381582 9.3055243,16.240596 9.2184614,16.148734 a 0.12750658,0.12750658 90 0 0 -0.1850924,0.17542 c 0.098354,0.103777 0.2619575,0.258408 0.5199893,0.426474 0.4923117,0.316817 1.0241087,0.501232 1.5350847,0.567841 0.240997,0.03009 0.438013,0.02722 0.590105,0.0135 0.01784,-0.0016 0.03549,-0.0034 0.05297,-0.0054 0.306583,-0.03477 0.515898,-0.121942 0.628735,-0.176716 A 0.12750658,0.12750658 90 0 0 12.248886,16.92045 Z"
       id="path-1-36"
       inkscape:path-effect="#path-effect1747;#path-effect1749"
       inkscape:original-d="M 12.304567,17.035156 C 11.343158,17.504594 9.8353539,16.986584 9.1259152,16.236444"
       style="fill:#e9afaf;fill-rule:nonzero;stroke:none;stroke-width:18.8976" />
    <path
       d="m 9.0145111,15.895364 c -0.037312,-0.02537 -0.1227306,-0.08393 -0.2010469,-0.152927 -0.053688,-0.0473 -0.1069276,-0.101614 -0.1527946,-0.164258 -0.00323,-0.0044 -0.00649,-0.009 -0.00977,-0.01364 -0.026597,-0.03769 -0.054782,-0.08727 -0.074021,-0.146931 -0.015679,-0.04862 -0.024751,-0.102038 -0.022543,-0.15752 0.0021,-0.06677 0.016203,-0.133248 0.039596,-0.200846 0.023701,-0.06849 0.0559,-0.135111 0.09043,-0.198318 0.025881,-0.04706 0.050631,-0.08703 0.063539,-0.1076 A 0.09831832,0.09831832 90 0 0 8.5813501,14.648788 c -0.013726,0.02187 -0.040757,0.06549 -0.069426,0.117623 -0.037558,0.06875 -0.075234,0.145914 -0.1038228,0.228528 -0.02837,0.08198 -0.047458,0.168277 -0.050281,0.258154 -0.00323,0.081 0.010205,0.15757 0.031907,0.224867 0.026577,0.08242 0.06504,0.149698 0.1003419,0.199722 0.00391,0.0056 0.00795,0.01121 0.011945,0.01666 0.056519,0.07719 0.120425,0.141866 0.1814671,0.195641 0.088351,0.07783 0.1827303,0.14233 0.2204676,0.167989 a 0.09831832,0.09831832 90 0 0 0.1105624,-0.16261 z"
       id="path-1-76"
       inkscape:path-effect="#path-effect1754;#path-effect1756"
       inkscape:original-d="M 8.9592299,15.976669 C 8.3626227,15.575052 8.3394748,15.218998 8.6646232,14.701057"
       style="fill:#e9afaf;fill-rule:nonzero;stroke:none;stroke-width:18.8976" />
    <path
       d="m 15.516032,18.467853 c 0.0931,0.115737 0.282225,0.334467 0.587786,0.567411 0.07676,0.05852 0.167438,0.123038 0.272968,0.190228 0.277653,0.176779 0.619687,0.347411 1.033086,0.486561 0.960428,0.318587 1.916962,0.366405 2.740308,0.267756 0.0063,-7.22e-4 0.012,-0.0014 0.01759,-0.0021 0.176276,-0.02096 0.321818,-0.05006 0.409211,-0.06802 a 0.11636895,0.11636895 90 0 0 -0.04685,-0.227974 c -0.08929,0.01835 -0.217548,0.04087 -0.392097,0.06516 5.54e-4,-7.7e-5 -0.01694,0.0023 -0.01639,0.0023 -0.793865,0.09805 -1.716026,0.05903 -2.644377,-0.241507 C 17.079652,19.377752 16.751418,19.217232 16.486907,19.051289 16.38634,18.988197 16.300103,18.92755 16.22739,18.872551 15.938425,18.65398 15.761675,18.44725 15.675236,18.339791 a 0.10215888,0.10215888 90 0 0 -0.159204,0.128062 z"
       id="path-1-64"
       inkscape:path-effect="#path-effect1761;#path-effect1763"
       inkscape:original-d="m 15.595634,18.403822 c 1.077111,1.34059 3.305125,1.731618 4.95792,1.391929"
       style="fill:#e9afaf;fill-rule:nonzero;stroke:none;stroke-width:18.8976" />
    <path
       d="m 13.196051,17.485789 c 0.09583,-0.05106 0.249121,-0.148635 0.400303,-0.329291 0.07834,-0.09361 0.147143,-0.198869 0.204298,-0.312806 0.01925,-0.03837 0.03868,-0.08072 0.05734,-0.126914 0.06421,-0.159278 0.116731,-0.354491 0.129085,-0.573242 0.01096,-0.194007 -0.01059,-0.394055 -0.07361,-0.586981 -0.05783,-0.175257 -0.13636,-0.296998 -0.186338,-0.365247 a 0.11521679,0.11521679 90 0 0 -0.185916,0.136144 c 0.04025,0.05497 0.105229,0.155241 0.153318,0.30098 0.05313,0.162649 0.07198,0.333747 0.06248,0.502111 -0.01073,0.190006 -0.05647,0.360504 -0.112706,0.499995 -0.01615,0.03997 -0.03298,0.07665 -0.04962,0.10983 -0.04948,0.09862 -0.108591,0.188832 -0.175046,0.268244 -0.127476,0.152328 -0.254907,0.232762 -0.331947,0.273813 a 0.11521679,0.11521679 90 0 0 0.108362,0.203364 z"
       id="path-1-2"
       inkscape:path-effect="#path-effect1768;#path-effect1770"
       inkscape:original-d="m 13.14187,17.384107 c 0.704163,-0.375464 0.967444,-1.475228 0.492303,-2.124727"
       style="fill:#e9afaf;fill-rule:nonzero;stroke:none;stroke-width:18.8976" />
    <path
       d="m 13.449622,15.799936 c -0.04113,0.01336 -0.122013,0.03708 -0.217446,0.04369 -0.05966,0.0041 -0.119855,0.0013 -0.178621,-0.01086 -0.01007,-0.0021 -0.02058,-0.0045 -0.03143,-0.0074 -0.05645,-0.01459 -0.118173,-0.04001 -0.18297,-0.08245 -0.05643,-0.03695 -0.109692,-0.08325 -0.158003,-0.136605 -0.11026,-0.120942 -0.185114,-0.259499 -0.219212,-0.325023 a 0.12059357,0.12059357 90 0 0 -0.213952,0.111336 c 0.03662,0.07037 0.122133,0.230518 0.254655,0.375877 0.06044,0.06675 0.129123,0.126904 0.204376,0.176186 0.08696,0.05695 0.172955,0.09306 0.253808,0.113942 0.01461,0.0039 0.02961,0.0074 0.04391,0.01037 0.08336,0.01723 0.165882,0.02069 0.244112,0.01527 0.123787,-0.0086 0.225476,-0.03874 0.275273,-0.05491 a 0.12059357,0.12059357 90 0 0 -0.0745,-0.229394 z"
       id="path-1-649"
       inkscape:path-effect="#path-effect1775;#path-effect1777"
       inkscape:original-d="M 13.48687,15.914633 C 12.941313,16.089699 12.594432,15.79823 12.35496,15.336925"
       style="fill:#e9afaf;fill-rule:nonzero;stroke:none;stroke-width:18.8976" />
    <path
       d="m 9.2812171,15.811466 c 0.033756,-0.08247 0.1062867,-0.249499 0.2316395,-0.408295 0.042651,-0.05403 0.088042,-0.10288 0.1358479,-0.146062 0.062565,-0.05651 0.1334864,-0.106938 0.2131408,-0.147506 0.133079,-0.06935 0.2830277,-0.110524 0.4520247,-0.130151 0.113319,-0.01316 0.232591,-0.0164 0.360182,-0.01317 0.03993,0.001 0.08163,0.0027 0.126069,0.0051 0.20231,0.0099 0.439528,0.03763 0.69349,0.05665 0.23233,0.01741 0.473892,0.025 0.717546,-0.0085 0.330832,-0.04666 0.548459,-0.172073 0.675438,-0.267188 a 0.09793427,0.09793427 90 0 0 -0.117428,-0.156766 c -0.104898,0.07858 -0.293482,0.185805 -0.58531,0.225506 -0.222717,0.0301 -0.447722,0.0234 -0.67533,0.0066 -0.247507,-0.0183 -0.488431,-0.04559 -0.699356,-0.05396 -0.04598,-0.0019 -0.0899,-0.003 -0.132098,-0.0032 -0.134833,-8.25e-4 -0.264159,0.0069 -0.388446,0.02663 -0.186131,0.02953 -0.3540765,0.08496 -0.503762,0.171337 -0.090082,0.05103 -0.1693535,0.112256 -0.2387621,0.177487 -0.053181,0.04998 -0.1033323,0.105022 -0.1504408,0.165076 -0.1374288,0.175192 -0.2186004,0.355504 -0.254487,0.443184 a 0.07565902,0.07565902 90 0 0 0.140042,0.05732 z"
       id="path-1-84"
       inkscape:path-effect="#path-effect1782;#path-effect1784"
       inkscape:original-d="M 9.2111961,15.782807 C 9.937745,14.039149 11.73978,15.480091 12.827881,14.673917"
       style="fill:#e9afaf;fill-rule:nonzero;stroke:none;stroke-width:18.8976" />
    <path
       d="m 11.826275,14.678539 c 0.0054,-0.06568 0.0325,-0.262018 0.05856,-0.393011 0.02606,-0.130993 0.07013,-0.328604 0.08387,-0.394914 a 0.05684028,0.05684028 90 0 0 -0.111316,-0.02306 c -0.01356,0.06546 -0.05754,0.262521 -0.08405,0.395797 -0.02651,0.133276 -0.05476,0.337101 -0.06037,0.405948 a 0.05684028,0.05684028 90 0 0 0.113304,0.0092 z"
       id="path-1-44"
       inkscape:path-effect="#path-effect1789;#path-effect1791"
       inkscape:original-d="m 11.769623,14.673917 c 0.02352,-0.278777 0.08799,-0.526123 0.143427,-0.794835"
       style="fill:#e9afaf;fill-rule:nonzero;stroke:none;stroke-width:18.8976" />
    <path
       d="m 11.286201,10.289753 c 0.08022,0.04034 0.253536,0.1299 0.418698,0.253595 0.112841,0.08451 0.217994,0.181426 0.306637,0.294378 0.0097,0.0124 0.01957,0.02538 0.02944,0.03895 0.124631,0.169043 0.220116,0.401573 0.245373,0.692312 0.03491,0.39056 -0.03888,0.862853 -0.06021,1.018416 a 0.11828923,0.11828923 90 0 0 0.234386,0.03213 c 0.01974,-0.144028 0.09933,-0.647977 0.06149,-1.071314 -0.02875,-0.330939 -0.13848,-0.605582 -0.290156,-0.811304 -0.01118,-0.01539 -0.02277,-0.03068 -0.03421,-0.04525 -0.104092,-0.132638 -0.225311,-0.243602 -0.350929,-0.337681 -0.182609,-0.136763 -0.371366,-0.233927 -0.454234,-0.275596 a 0.11828923,0.11828923 90 0 0 -0.106282,0.21136 z"
       id="path-1-367"
       inkscape:path-effect="#path-effect1796;#path-effect1798"
       inkscape:original-d="m 11.339342,10.184073 c 1.146895,0.574399 1.162118,1.300955 1.003989,2.419397"
       style="fill:#e9afaf;fill-rule:nonzero;stroke:none;stroke-width:18.8976" />
    <path
       d="m 9.3633282,12.363882 c 0.01803,0.05738 0.061123,0.185503 0.1391083,0.310853 0.056134,0.09023 0.132981,0.183942 0.2389399,0.257278 0.00937,0.0066 0.019537,0.01338 0.029889,0.01984 0.064827,0.04046 0.1468137,0.07554 0.2455739,0.09291 0.09097,0.016 0.192254,0.01606 0.295357,-0.0064 0.131876,-0.02847 0.258779,-0.08432 0.374425,-0.162876 0.113365,-0.077 0.212508,-0.173523 0.292845,-0.281166 0.06726,-0.09052 0.119784,-0.189965 0.152515,-0.292467 0.03764,-0.117862 0.04678,-0.232069 0.03136,-0.338059 -0.0098,-0.07223 -0.03143,-0.13311 -0.05199,-0.178393 -0.01029,-0.02266 -0.02145,-0.04393 -0.03306,-0.06375 -0.05878,-0.100407 -0.129984,-0.165392 -0.162161,-0.193258 a 0.09370965,0.09370965 90 0 0 -0.122694,0.141676 c 0.02608,0.02258 0.07852,0.07166 0.122929,0.146774 0.0087,0.01468 0.01698,0.03027 0.02464,0.04672 0.01537,0.03302 0.03129,0.0762 0.03912,0.127168 0.0122,0.07708 0.0075,0.163329 -0.02094,0.257196 -0.02488,0.08214 -0.06645,0.16479 -0.121907,0.241918 -0.06778,0.09321 -0.151953,0.177108 -0.247987,0.244073 -0.09785,0.06824 -0.204162,0.11623 -0.313559,0.141174 -0.08096,0.01903 -0.160532,0.02018 -0.231631,0.0087 -0.076885,-0.0124 -0.1397001,-0.03866 -0.1882987,-0.06847 -0.00779,-0.0048 -0.015418,-0.0098 -0.022889,-0.01497 C 9.7489263,12.742926 9.6860687,12.667666 9.6381463,12.590416 9.5711298,12.482387 9.5333556,12.369457 9.5164798,12.315754 a 0.08026769,0.08026769 90 0 0 -0.1531516,0.04813 z"
       id="path-1-43"
       inkscape:path-effect="#path-effect1803;#path-effect1805"
       inkscape:original-d="m 9.439904,12.339818 c 0.4646294,1.478979 2.261705,0.0048 1.414887,-0.740553"
       style="fill:#e9afaf;fill-rule:nonzero;stroke:none;stroke-width:18.8976" />
    <path
       d="m 15.854078,8.8045677 c -0.08227,0.2158351 -0.281524,0.7451871 -0.416947,1.3260543 -0.07762,0.332919 -0.146082,0.727928 -0.162806,1.156262 -0.0029,0.07357 -0.0043,0.15125 -0.0038,0.232483 0.0036,0.396853 0.05747,0.981578 0.3079,1.583039 0.04672,0.09562 0.102396,0.174846 0.164545,0.249069 0.05936,0.0709 0.123608,0.136047 0.187448,0.200355 0.06174,0.06219 0.122239,0.122756 0.176763,0.186171 0.05305,0.0617 0.0998,0.125379 0.136249,0.195038 0.01904,0.03529 0.03201,0.0721 0.03967,0.110886 0.0076,0.03836 0.0099,0.07863 0.0072,0.119894 -0.0054,0.08231 -0.03079,0.166118 -0.07134,0.241168 -0.0019,0.0036 -0.0038,0.0073 -0.0053,0.01107 -0.01715,0.04298 -0.04412,0.08115 -0.0767,0.109409 -0.01644,0.01426 -0.03404,0.02576 -0.05223,0.03429 -0.01852,0.0087 -0.03781,0.01437 -0.05769,0.0169 -0.05118,0.0068 -0.10077,0.0057 -0.149659,-0.0014 -0.0508,-0.0073 -0.100974,-0.02108 -0.149875,-0.03927 -0.105646,-0.03931 -0.204997,-0.09926 -0.289574,-0.158372 -0.161087,-0.117263 -0.284444,-0.254348 -0.370101,-0.386706 -0.02533,-0.03915 -0.04722,-0.0776 -0.06608,-0.114952 -0.06214,-0.12313 -0.09912,-0.249728 -0.110611,-0.376212 -0.0085,-0.09843 0.0023,-0.176521 0.0089,-0.216073 a 0.10446322,0.10446322 90 0 0 -0.20607,-0.03443 c -0.0083,0.04948 -0.02066,0.146239 -0.01045,0.268687 0.01398,0.154996 0.05874,0.306935 0.131568,0.451962 0.02209,0.04398 0.04757,0.08894 0.07687,0.134471 0.09895,0.153731 0.239509,0.310218 0.422964,0.444745 0.09299,0.06581 0.208504,0.137496 0.337472,0.186434 0.0603,0.02288 0.125175,0.04144 0.193502,0.05177 0.06598,0.01 0.135603,0.01233 0.207419,0.0033 0.04175,-0.0047 0.08289,-0.01628 0.121374,-0.03361 0.03763,-0.01694 0.07231,-0.03918 0.10349,-0.06541 0.05924,-0.04984 0.106143,-0.114379 0.136869,-0.185462 0.05376,-0.09892 0.08928,-0.211481 0.09784,-0.326583 0.0044,-0.05905 0.0017,-0.118896 -0.0094,-0.17789 -0.01125,-0.05983 -0.03104,-0.11835 -0.06036,-0.173795 -0.04595,-0.08889 -0.103696,-0.167229 -0.163491,-0.237457 -0.06057,-0.07114 -0.127034,-0.138179 -0.186903,-0.199057 -0.0641,-0.06518 -0.121537,-0.124176 -0.173539,-0.186872 -0.05364,-0.06467 -0.09746,-0.12865 -0.130631,-0.196948 -0.230359,-0.55857 -0.280547,-1.110881 -0.283307,-1.489866 -4.41e-4,-0.07716 0.001,-0.151262 0.0038,-0.221523 0.01632,-0.409355 0.08199,-0.789057 0.157282,-1.112064 0.131557,-0.5643803 0.325483,-1.0813113 0.407239,-1.2958031 a 0.11752112,0.11752112 90 0 0 -0.219628,-0.083714 z"
       id="path-1-20"
       inkscape:path-effect="#path-effect1810;#path-effect1812"
       inkscape:original-d="m 15.963892,8.8464248 c -0.507251,1.3286682 -0.835458,2.7547272 -0.306236,4.1486472 0.209124,0.550813 1.064439,0.783197 0.620225,1.53151 -0.312122,0.525791 -1.639916,-0.305122 -1.480787,-1.260104"
       style="fill:#e9afaf;fill-rule:nonzero;stroke:none;stroke-width:18.8976" />
    <path
       d="m 15.641781,12.52769 c 0.04218,-0.04549 0.129909,-0.135806 0.252406,-0.212484 0.03208,-0.02008 0.06528,-0.03845 0.09947,-0.05471 0.05439,-0.02586 0.120618,-0.05076 0.196326,-0.06613 0.09299,-0.01963 0.193091,-0.02296 0.297952,-0.0079 0.103969,0.01497 0.202145,0.04655 0.289768,0.08709 0.07686,0.03518 0.14235,0.07409 0.195109,0.108758 0.139585,0.09171 0.245988,0.191893 0.298038,0.24387 a 0.11982546,0.11982546 90 0 0 0.16934,-0.169578 c -0.05625,-0.05617 -0.175935,-0.172581 -0.33721,-0.27551 -0.06136,-0.03916 -0.139104,-0.08299 -0.230489,-0.121816 -0.106855,-0.04599 -0.227701,-0.08102 -0.356271,-0.09558 -0.130045,-0.01473 -0.25565,-0.0071 -0.372743,0.02076 -0.09427,0.02153 -0.175884,0.05437 -0.24146,0.08654 -0.04138,0.02029 -0.08117,0.0427 -0.119343,0.06678 -0.144553,0.0912 -0.247545,0.195361 -0.295212,0.246761 a 0.10523133,0.10523133 90 0 0 0.154318,0.14311 z"
       id="path-1-34"
       inkscape:path-effect="#path-effect1817;#path-effect1819"
       inkscape:original-d="m 15.564622,12.456135 c 0.566503,-0.606269 1.258286,-0.447428 1.790899,0.0853"
       style="fill:#e9afaf;fill-rule:nonzero;stroke:none;stroke-width:18.8976" />
    <path
       d="m 15.673071,18.346625 c 0.03944,-0.09796 0.132436,-0.321605 0.278923,-0.532961 0.08105,-0.116942 0.180727,-0.234177 0.303772,-0.334908 0.03217,-0.02634 0.0679,-0.05315 0.107327,-0.0793 0.109903,-0.07448 0.242042,-0.136864 0.411405,-0.186919 0.142147,-0.04201 0.291735,-0.07019 0.459581,-0.09645 0.136777,-0.0223 0.290354,-0.04695 0.437337,-0.08892 0.148724,-0.04247 0.294,-0.103344 0.423905,-0.200466 0.149687,-0.110477 0.257338,-0.251861 0.336183,-0.392543 0.09084,-0.162087 0.148117,-0.332058 0.185425,-0.466222 0.0091,-0.03177 0.0168,-0.0608 0.02312,-0.08591 0.03158,-0.125564 0.04953,-0.236092 0.05719,-0.281991 a 0.11444867,0.11444867 90 0 0 -0.225776,-0.03768 c -0.0073,0.04402 -0.02612,0.147938 -0.05379,0.265453 -0.0055,0.02346 -0.01212,0.05058 -0.01982,0.08022 -0.03369,0.125787 -0.08354,0.277401 -0.160502,0.418739 -0.06652,0.122157 -0.153871,0.238 -0.271784,0.327427 -0.102102,0.07862 -0.220541,0.131881 -0.353071,0.17182 -0.132653,0.03998 -0.27354,0.06488 -0.41184,0.08944 -0.16981,0.02878 -0.329065,0.06046 -0.483263,0.107954 -0.185185,0.05703 -0.335146,0.128772 -0.462223,0.216326 -0.04421,0.0297 -0.0849,0.06059 -0.121378,0.09072 -0.139355,0.115118 -0.250315,0.246702 -0.338816,0.374351 -0.159167,0.229577 -0.259388,0.469171 -0.300022,0.570104 a 0.09601399,0.09601399 90 0 0 0.178134,0.07171 z"
       id="path-1-35"
       inkscape:path-effect="#path-effect1824;#path-effect1826"
       inkscape:original-d="m 15.584004,18.310768 c 0.903697,-2.241995 2.599997,-0.327021 3.000337,-2.729577"
       style="fill:#e9afaf;fill-rule:nonzero;stroke:none;stroke-width:18.8976" />
    <path
       d="m 19.166221,9.5422729 c 0.04497,0.1938092 0.121952,0.5855881 0.104415,1.1170901 -0.0089,0.268816 -0.04376,0.638626 -0.152955,1.079719 -0.114982,0.45483 -0.296449,0.935773 -0.577391,1.381395 -0.06814,0.102975 -0.158804,0.214395 -0.229821,0.307174 -0.11606,0.151624 -0.177913,0.251044 -0.225271,0.348731 a 0.11099217,0.11099217 90 0 0 0.199748,0.09684 c 0.03894,-0.08032 0.09173,-0.166853 0.201795,-0.310643 0.06457,-0.08436 0.164932,-0.208156 0.240016,-0.321678 0.297443,-0.471746 0.486842,-0.975518 0.606271,-1.447942 0.113674,-0.459177 0.150182,-0.844713 0.159472,-1.126273 0.01838,-0.556985 -0.06236,-0.969067 -0.110039,-1.1745823 a 0.11099217,0.11099217 90 0 0 -0.21624,0.050171 z"
       id="path-1-40"
       inkscape:path-effect="#path-effect1831;#path-effect1833"
       inkscape:original-d="m 19.274341,9.5171873 c 0.272508,1.1559697 0.02332,2.5572077 -0.596966,3.5942017 -0.146497,0.244912 -0.374536,0.465426 -0.492303,0.713412"
       style="fill:#e9afaf;fill-rule:nonzero;stroke:none;stroke-width:18.8976" />
    <path
       d="m 22.496268,9.4595142 c -0.06489,0.028842 -0.163507,0.083099 -0.285118,0.1440651 -0.07338,0.036789 -0.161694,0.077231 -0.255188,0.096075 -0.01523,0.0013 -0.03079,0.00247 -0.04679,0.00352 -0.07218,0.00473 -0.125518,0.00586 -0.225971,0.00949 -0.08184,0.00296 -0.190627,0.00753 -0.298189,0.023238 -0.07183,0.010672 -0.165193,0.026082 -0.254877,0.056191 -0.04254,0.014281 -0.08675,0.032626 -0.129997,0.056941 -0.04164,0.02341 -0.08286,0.052622 -0.121025,0.089551 -0.02684,0.025394 -0.04956,0.05512 -0.06765,0.087066 -0.01752,0.03094 -0.0304,0.06341 -0.03958,0.0962 -0.01767,0.06308 -0.0219,0.128159 -0.01893,0.188317 0.0038,0.139032 0.0426,0.271147 0.09826,0.393457 0.05428,0.119276 0.124905,0.229794 0.195017,0.33102 0.08954,0.130262 0.18608,0.252716 0.271717,0.375736 0.08605,0.123608 0.159771,0.245544 0.209673,0.37725 0.06391,0.165067 0.0637,0.346693 0.0018,0.499786 -0.02793,0.06785 -0.06017,0.13164 -0.09757,0.188685 -0.03912,0.05967 -0.08266,0.110085 -0.13119,0.150706 -0.04734,0.03994 -0.104169,0.06421 -0.164262,0.0763 -0.0665,0.01337 -0.135123,0.01147 -0.197084,2.02e-4 -0.02346,-0.0038 -0.04138,-0.0075 -0.05321,-0.01013 a 0.12251385,0.12251385 90 0 0 -0.05255,0.239326 c 0.01455,0.0032 0.03725,0.0079 0.06432,0.01229 0.08475,0.01543 0.185066,0.01899 0.286826,-0.0015 0.09248,-0.01859 0.189354,-0.05786 0.273597,-0.128929 0.06945,-0.05813 0.128395,-0.127577 0.178464,-0.203943 0.04773,-0.0728 0.08682,-0.150998 0.119521,-0.230443 0.08687,-0.214676 0.08505,-0.460902 2.02e-4,-0.680022 -0.05988,-0.158061 -0.146441,-0.298947 -0.237387,-0.429594 -0.09123,-0.131059 -0.187451,-0.253155 -0.27114,-0.374903 -0.06742,-0.09734 -0.128385,-0.193841 -0.173677,-0.293361 -0.04581,-0.100661 -0.07365,-0.200692 -0.07645,-0.301399 -0.0021,-0.04374 0.0012,-0.08132 0.01004,-0.112793 0.0045,-0.01596 0.0102,-0.0298 0.01685,-0.04154 0.0068,-0.01199 0.01471,-0.02214 0.02383,-0.03078 0.02207,-0.02135 0.0458,-0.03843 0.07171,-0.053 0.02708,-0.01523 0.05662,-0.02774 0.08789,-0.03824 0.06761,-0.0227 0.142484,-0.035647 0.212599,-0.046065 0.09262,-0.013524 0.189367,-0.017818 0.271336,-0.020782 0.09746,-0.00352 0.156278,-0.00482 0.233149,-0.00986 0.01988,-0.0013 0.03942,-0.00279 0.05875,-0.0045 0.0041,-3.631e-4 0.0082,-9.318e-4 0.0122,-0.0017 0.13095,-0.025058 0.246863,-0.079768 0.324809,-0.1188439 0.132952,-0.066652 0.219763,-0.1147285 0.274823,-0.1391997 a 0.12251385,0.12251385 90 0 0 -0.09952,-0.223909 z"
       id="path-1-82"
       inkscape:path-effect="#path-effect1838;#path-effect1840"
       inkscape:original-d="m 22.546026,9.5714687 c -0.180899,0.081422 -0.350068,0.196849 -0.542696,0.2442661 -0.182614,0.044952 -1.075861,-0.060729 -1.124158,0.3916012 -0.08932,0.83659 1.313965,1.392125 0.631854,2.368994 -0.163686,0.234419 -0.373621,0.297464 -0.651236,0.236511"
       style="fill:#e9afaf;fill-rule:nonzero;stroke:none;stroke-width:18.8976" />
    <path
       d="m 21.985861,12.035901 c 0.02507,-0.0066 0.07742,-0.0204 0.126806,-0.02794 0.03766,-0.0058 0.07678,-0.0086 0.11563,-0.005 0.03423,0.0031 0.06511,0.01494 0.08957,0.03176 0.0061,0.0042 0.01221,0.009 0.01811,0.01438 0.0226,0.02045 0.04353,0.04536 0.06563,0.07727 0.02141,0.03091 0.04081,0.06369 0.06271,0.09979 0.0262,0.04406 0.0508,0.08601 0.06298,0.106287 a 0.09870238,0.09870238 90 0 0 0.169248,-0.101604 c -0.01168,-0.01945 -0.03558,-0.06023 -0.06302,-0.106353 -0.02056,-0.03388 -0.04393,-0.0734 -0.06965,-0.110537 -0.02776,-0.04007 -0.05837,-0.07767 -0.09506,-0.110868 -0.0127,-0.01162 -0.02602,-0.02202 -0.0391,-0.03102 -0.05202,-0.03577 -0.11523,-0.05952 -0.183291,-0.06567 -0.05982,-0.0056 -0.116149,-8.46e-4 -0.163575,0.0064 -0.06128,0.0094 -0.123362,0.02588 -0.147328,0.0322 a 0.09870238,0.09870238 90 0 0 0.05034,0.190878 z"
       id="path-1-14"
       inkscape:path-effect="#path-effect1845;#path-effect1847"
       inkscape:original-d="m 21.960689,11.940462 c 0.418522,-0.11386 0.468704,0.03691 0.651236,0.341198"
       style="fill:#e9afaf;fill-rule:nonzero;stroke:none;stroke-width:18.8976" />
    <path
       d="m 19.041839,17.117876 c 0.01962,-0.07127 0.06278,-0.191067 0.169116,-0.31837 0.05966,-0.07143 0.130682,-0.134824 0.209194,-0.187466 0.02389,-0.01602 0.04896,-0.03135 0.07514,-0.04581 0.158067,-0.08909 0.33394,-0.155165 0.535257,-0.20916 0.185871,-0.04985 0.373016,-0.08446 0.579142,-0.123266 0.213855,-0.04025 0.438196,-0.07574 0.664094,-0.124527 0.03069,-0.0066 0.06141,-0.01351 0.09213,-0.02069 0.170727,-0.0399 0.370512,-0.09559 0.570281,-0.181444 0.130472,-0.05594 0.265837,-0.133562 0.384701,-0.237329 0.117681,-0.102734 0.21479,-0.22733 0.276022,-0.374359 0.08789,-0.20398 0.09314,-0.407395 0.09306,-0.497562 a 0.10907189,0.10907189 90 0 0 -0.218144,1.96e-4 c 7.4e-5,0.08162 -0.0076,0.249836 -0.07795,0.410966 -0.04705,0.112113 -0.122019,0.209817 -0.218519,0.293994 -0.09798,0.08546 -0.212382,0.151936 -0.326527,0.201393 -0.183125,0.07921 -0.369098,0.132256 -0.533329,0.171905 -0.02941,0.0071 -0.05893,0.01396 -0.08853,0.02062 -0.217869,0.04904 -0.440339,0.08747 -0.657682,0.132036 -0.203884,0.04224 -0.398228,0.0823 -0.591726,0.13837 -0.211247,0.06122 -0.401051,0.13604 -0.57454,0.236661 -0.03003,0.01732 -0.05918,0.03579 -0.08699,0.05494 -0.09132,0.06286 -0.174799,0.137664 -0.245981,0.222745 -0.127524,0.152423 -0.182053,0.297475 -0.206704,0.387036 a 0.09255748,0.09255748 90 0 0 0.178478,0.04912 z"
       id="path-1-79"
       inkscape:path-effect="#path-effect1852;#path-effect1854"
       inkscape:original-d="m 18.9526,17.093314 c 0.43608,-1.485515 3.628314,-0.484796 3.628314,-2.295326"
       style="fill:#e9afaf;fill-rule:nonzero;stroke:none;stroke-width:18.8976" />
    <path
       d="m 20.597856,19.653645 c 0.135188,-0.129047 0.342197,-0.360966 0.462982,-0.686735 0.0084,-0.02268 0.01668,-0.04658 0.02462,-0.07164 0.06942,-0.217198 0.07801,-0.409668 0.07328,-0.538115 a 0.10907189,0.10907189 90 0 0 -0.217996,0.008 c 0.0041,0.110963 -0.0034,0.276919 -0.06316,0.463949 -0.0069,0.0218 -0.01402,0.04237 -0.02128,0.06194 -0.104797,0.282649 -0.28637,0.487652 -0.40907,0.604777 a 0.10907189,0.10907189 90 0 0 0.150626,0.157794 z"
       id="path-1-30"
       inkscape:path-effect="#path-effect1859;#path-effect1861"
       inkscape:original-d="m 20.522543,19.574748 c 0.339524,-0.325217 0.544085,-0.740438 0.527191,-1.213576"
       style="fill:#e9afaf;fill-rule:nonzero;stroke:none;stroke-width:18.8976" />
    <path
       d="m 21.138257,18.246633 c -0.06097,-0.08495 -0.142583,-0.192016 -0.253861,-0.322803 -0.10537,-0.123842 -0.208072,-0.234393 -0.272076,-0.302402 a 0.12328196,0.12328196 90 0 0 -0.179554,0.16898 c 0.063,0.06695 0.162434,0.174016 0.263841,0.293201 0.106644,0.12534 0.184097,0.227045 0.241346,0.306802 a 0.12328196,0.12328196 90 0 0 0.200304,-0.143778 z"
       id="path-1-78"
       inkscape:path-effect="#path-effect1866;#path-effect1868"
       inkscape:original-d="M 21.038105,18.318522 C 20.883288,18.102466 20.701502,17.895875 20.522543,17.705918"
       style="fill:#e9afaf;fill-rule:nonzero;stroke:none;stroke-width:18.8976" />
    <path
       d="m 21.111708,18.263512 c 0.08077,-0.08716 0.211444,-0.206492 0.432489,-0.333338 0.0186,-0.01068 0.03858,-0.02183 0.06003,-0.03343 0.0801,-0.04425 0.18126,-0.09454 0.287847,-0.157571 0.0945,-0.05589 0.191009,-0.12171 0.275963,-0.20728 0.0915,-0.09036 0.157028,-0.193449 0.204444,-0.291567 0.06495,-0.134402 0.09755,-0.263957 0.11252,-0.329944 a 0.08449231,0.08449231 90 0 0 -0.1648,-0.03738 c -0.01391,0.06132 -0.04315,0.176413 -0.09987,0.293793 -0.0412,0.08526 -0.09641,0.17117 -0.171625,0.245448 -0.0713,0.07181 -0.154229,0.12918 -0.242652,0.181474 -0.09901,0.05855 -0.199908,0.108911 -0.282864,0.154739 -0.02205,0.01191 -0.04327,0.02377 -0.0631,0.03514 -0.236877,0.135931 -0.380786,0.266258 -0.47233,0.365045 a 0.08449231,0.08449231 90 0 0 0.123948,0.11486 z"
       id="path-1-9"
       inkscape:path-effect="#path-effect1873;#path-effect1875"
       inkscape:original-d="m 21.049734,18.206082 c 0.545524,-0.580789 1.148343,-0.427932 1.352865,-1.314384"
       style="fill:#e9afaf;fill-rule:nonzero;stroke:none;stroke-width:18.8976" />
    <path
       d="m 9.6592047,14.485976 c 0.078856,0.0651 0.2678858,0.219666 0.3897853,0.403033 0.03728,0.05608 0.06433,0.111573 0.08225,0.164123 0.01777,0.05213 0.02948,0.109861 0.02844,0.170304 -5.39e-4,0.0665 -0.01508,0.130109 -0.03769,0.189875 -0.03063,0.081 -0.07325,0.147185 -0.09741,0.182413 a 0.11828923,0.11828923 90 0 0 0.195122,0.133778 c 0.02794,-0.04075 0.08307,-0.125407 0.123568,-0.232507 0.03019,-0.07984 0.05216,-0.171378 0.05296,-0.270587 0.0016,-0.09232 -0.01651,-0.177545 -0.04108,-0.24962 -0.02492,-0.0731 -0.06135,-0.146832 -0.109149,-0.218746 -0.144504,-0.21737 -0.3619648,-0.393231 -0.4361933,-0.454508 a 0.11828923,0.11828923 90 0 0 -0.150612,0.182442 z"
       id="path-1-81"
       inkscape:path-effect="#path-effect2040;#path-effect2042"
       inkscape:original-d="m 9.7345107,14.394755 c 0.4604403,0.377062 0.7329353,0.761852 0.3876403,1.267858"
       style="fill:#ffff00;fill-rule:nonzero;stroke:none;stroke-width:18.8976" />
    <path
       d="m 11.708672,12.011922 c 0.09071,0.01562 0.265199,0.04135 0.467925,0.03468 0.150005,-0.0049 0.309795,-0.02719 0.469665,-0.07841 0.155852,-0.04873 0.293066,-0.119794 0.408918,-0.195373 0.117075,-0.07638 0.233568,-0.171237 0.345773,-0.285474 0.07701,-0.07785 0.137098,-0.148921 0.169124,-0.187696 a 0.10791972,0.10791972 90 0 0 -0.166414,-0.137452 c -0.03004,0.03637 -0.08554,0.101966 -0.156429,0.173632 -0.102021,0.103869 -0.206506,0.18871 -0.309986,0.256218 -0.102605,0.06694 -0.221932,0.128407 -0.356123,0.17037 -0.138163,0.04426 -0.277664,0.06405 -0.411626,0.06846 -0.181857,0.006 -0.338827,-0.01697 -0.424207,-0.03167 a 0.10791972,0.10791972 90 0 0 -0.03662,0.21271 z"
       id="path-1-19"
       inkscape:path-effect="#path-effect2047;#path-effect2049"
       inkscape:original-d="m 11.726982,11.905567 c 0.725249,0.123038 1.269877,-0.08134 1.759888,-0.67464"
       style="fill:#ffff00;fill-rule:nonzero;stroke:none;stroke-width:18.8976" />
    <path
       d="m 13.33424,12.602054 c 0.04457,0.05148 0.167742,0.189109 0.238233,0.323682 0.01844,0.03518 0.03229,0.07139 0.03961,0.106768 0.0078,0.03761 0.0074,0.07036 0.0012,0.09874 -0.008,0.03785 -0.02407,0.07678 -0.05031,0.120139 -0.0247,0.04082 -0.05527,0.08047 -0.08913,0.122135 -0.07363,0.08898 -0.178922,0.19896 -0.210352,0.232325 a 0.10446322,0.10446322 90 0 0 0.15208,0.143256 c 0.02845,-0.0302 0.140127,-0.146773 0.219827,-0.243107 0.03567,-0.04388 0.07381,-0.09271 0.106319,-0.146436 0.03544,-0.05856 0.062,-0.11928 0.07584,-0.184472 0.01292,-0.05957 0.01209,-0.121994 -9.25e-4,-0.184906 -0.01204,-0.05819 -0.03367,-0.112802 -0.05914,-0.161396 -0.08434,-0.161019 -0.227136,-0.319339 -0.265343,-0.363471 a 0.10446322,0.10446322 90 0 0 -0.157956,0.136748 z"
       id="path-1-77"
       inkscape:path-effect="#path-effect2054;#path-effect2056"
       inkscape:original-d="m 13.413218,12.53368 c 0.470837,0.536514 0.36976,0.67479 -0.07365,1.143786"
       style="fill:#ffff00;fill-rule:nonzero;stroke:none;stroke-width:18.8976" />
    <path
       d="m 17.045832,10.713891 c 0.04115,0.0025 0.119445,0.0078 0.194975,0.0213 0.05609,0.01003 0.116084,0.02532 0.173821,0.05074 0.03218,0.01409 0.06277,0.03299 0.08881,0.0564 0.02528,0.02272 0.04476,0.04832 0.05774,0.07583 0.02015,0.04199 0.03101,0.08761 0.03657,0.135757 0.0064,0.05504 0.0056,0.112773 0.0038,0.162084 -0.0017,0.03749 -0.0043,0.07295 -0.0068,0.101427 -0.0082,0.09566 -0.02959,0.264718 -0.0318,0.283231 a 0.11905735,0.11905735 90 0 0 0.236434,0.02823 c 0.0016,-0.01304 0.02393,-0.19017 0.03261,-0.291062 0.0026,-0.03051 0.0056,-0.06941 0.0075,-0.112106 0.002,-0.05278 0.0034,-0.125372 -0.0051,-0.199122 -0.0076,-0.06576 -0.02346,-0.138569 -0.05809,-0.210745 -0.02765,-0.05863 -0.0675,-0.109197 -0.113576,-0.150613 -0.04714,-0.04238 -0.0999,-0.07441 -0.152274,-0.09734 -0.08033,-0.03537 -0.160012,-0.05501 -0.227612,-0.06711 -0.09034,-0.01616 -0.180766,-0.02201 -0.222244,-0.02457 a 0.11905735,0.11905735 90 0 0 -0.01466,0.237662 z"
       id="path-1-57"
       inkscape:path-effect="#path-effect2061;#path-effect2063"
       inkscape:original-d="m 17.053162,10.59506 c 0.758759,0.04199 0.702435,0.40796 0.627977,1.019714"
       style="fill:#ffff00;fill-rule:nonzero;stroke:none;stroke-width:18.8976" />
    <path
       d="m 16.315948,15.03261 c -0.09356,0.08394 -0.334566,0.30456 -0.474089,0.606657 -0.0996,0.214059 -0.12123,0.428562 -0.09377,0.609103 0.0012,0.0081 0.0025,0.01662 0.0039,0.02471 0.02295,0.134424 0.0685,0.241111 0.09414,0.29599 a 0.11713707,0.11713707 90 0 0 0.21225,-0.09917 c -0.02141,-0.04582 -0.05749,-0.131046 -0.07545,-0.236245 -0.0011,-0.0063 -0.0021,-0.01286 -0.0031,-0.01973 -0.02075,-0.136445 -0.0054,-0.304248 0.07459,-0.476123 0.117767,-0.25499 0.325868,-0.448156 0.417993,-0.53081 a 0.11713707,0.11713707 90 0 0 -0.15645,-0.174378 z"
       id="path-1-70"
       inkscape:path-effect="#path-effect2068;#path-effect2070"
       inkscape:original-d="m 16.394173,15.119799 c -0.417555,0.373152 -0.697922,0.850969 -0.44191,1.399684"
       style="fill:#ffff00;fill-rule:nonzero;stroke:none;stroke-width:18.8976" />
    <path
       d="m 17.200465,17.907535 c 0.05908,9.59e-4 0.200629,0.0056 0.338262,0.0093 0.04032,8.94e-4 0.07985,-0.0027 0.114155,-0.0067 0.0343,-0.004 0.07367,-0.0099 0.113577,-0.01445 0.0547,-0.0069 0.09808,-0.01218 0.124006,-0.01529 a 0,0 0 0 0 0,0 c -0.02593,0.0031 -0.06931,0.0084 -0.124006,0.01529 -0.03991,0.0046 -0.07928,0.01046 -0.113577,0.01445 -0.0343,0.004 -0.07383,0.0076 -0.114155,0.0067 -0.137633,-0.0037 -0.279181,-0.0083 -0.338262,-0.0093 z"
       id="path-1-46"
       inkscape:path-effect="#path-effect2075;#path-effect2077"
       inkscape:original-d="m 17.200465,17.907535 c 0.496857,0.0097 0.267103,0.02362 0.69,-0.02714"
       style="fill:#ffff00;fill-rule:nonzero;stroke:none;stroke-width:18.8976" />
    <path
       d="m 19.507945,14.231263 c 0.06457,0.03611 0.221784,0.11554 0.368055,0.196478 0.04253,0.02371 0.07861,0.04664 0.110196,0.07116 0.03085,0.02394 0.06143,0.05254 0.08664,0.08721 0.03015,0.04094 0.0539,0.08528 0.07408,0.129569 0.02494,0.05473 0.04912,0.121432 0.05826,0.146207 a 0.06144895,0.06144895 90 0 0 0.115314,-0.0425 c -0.0086,-0.02321 -0.03448,-0.09483 -0.06173,-0.154659 -0.02228,-0.0489 -0.05008,-0.10142 -0.08674,-0.151195 -0.03375,-0.04642 -0.07353,-0.08305 -0.11046,-0.111719 -0.038,-0.02949 -0.07973,-0.05578 -0.125871,-0.08151 -0.150797,-0.08344 -0.305214,-0.161337 -0.36775,-0.196309 a 0.06144895,0.06144895 90 0 0 -0.05998,0.107266 z"
       id="path-1-28"
       inkscape:path-effect="#path-effect2082;#path-effect2084"
       inkscape:original-d="m 19.537937,14.17763 c 0.490205,0.270898 0.573126,0.242124 0.724887,0.663008"
       style="fill:#ffff00;fill-rule:nonzero;stroke:none;stroke-width:18.8976" />
    <path
       d="m 20.807381,16.464012 c -0.03958,0.09281 -0.10746,0.247154 -0.204753,0.442404 -0.01351,0.02717 -0.02822,0.05844 -0.04008,0.09223 -0.01296,0.03691 -0.02179,0.0747 -0.02438,0.114094 -0.0066,0.0837 -0.0057,0.182902 -0.0089,0.26953 -8.66e-4,0.03058 -0.0016,0.05424 -0.0021,0.06782 a 0.11176028,0.11176028 90 0 0 0.22339,0.0076 c 4.73e-4,-0.01385 0.0013,-0.03797 0.0021,-0.06817 0.0035,-0.09378 0.0028,-0.188152 0.0085,-0.260746 0.0011,-0.01666 0.0047,-0.0343 0.01234,-0.05611 0.0073,-0.02073 0.01716,-0.0423 0.02928,-0.06667 0.09974,-0.200157 0.169479,-0.358701 0.210259,-0.454331 a 0.11176028,0.11176028 90 0 0 -0.205606,-0.08768 z"
       id="path-1-0"
       inkscape:path-effect="#path-effect2089;#path-effect2091"
       inkscape:original-d="m 20.910184,16.507851 c -0.30462,0.709416 -0.252245,0.385559 -0.271349,0.946047"
       style="fill:#ffff00;fill-rule:nonzero;stroke:none;stroke-width:18.8976" />
    <path
       d="m 22.033653,13.540179 c 0.04279,-0.01131 0.125075,-0.02946 0.22381,-0.02522 0.05933,0.0025 0.118752,0.01291 0.1756,0.03292 0.01153,0.0041 0.02358,0.0087 0.03601,0.01414 0.07049,0.02998 0.143413,0.07587 0.218756,0.145631 0.06576,0.06089 0.125874,0.132993 0.181877,0.212051 0.08864,0.125826 0.162374,0.260208 0.225918,0.384635 0.08928,0.174818 0.160728,0.327633 0.205047,0.415344 a 0.11867329,0.11867329 90 0 0 0.21184,-0.107038 c -0.04288,-0.08486 -0.112839,-0.234796 -0.205509,-0.416256 -0.06545,-0.128163 -0.145106,-0.274043 -0.243442,-0.413629 -0.0628,-0.08865 -0.133476,-0.174264 -0.214477,-0.249264 -0.09374,-0.0868 -0.18945,-0.148348 -0.286222,-0.189502 -0.0171,-0.0074 -0.03447,-0.01418 -0.05099,-0.01999 -0.08143,-0.02866 -0.164277,-0.04274 -0.244228,-0.04617 -0.132032,-0.0057 -0.240126,0.01848 -0.294628,0.03288 a 0.11867329,0.11867329 90 0 0 0.06065,0.229468 z"
       id="path-1-56"
       inkscape:path-effect="#path-effect2096;#path-effect2098"
       inkscape:original-d="m 22.00333,13.425445 c 0.793503,-0.202412 1.112178,0.66675 1.403258,1.240717"
       style="fill:#ffff00;fill-rule:nonzero;stroke:none;stroke-width:18.8976" />
  </g>
</svg>
